%TF.GenerationSoftware,KiCad,Pcbnew,(6.0.11)*%
%TF.CreationDate,2023-04-10T14:51:40-04:00*%
%TF.ProjectId,IMU-pcb,494d552d-7063-4622-9e6b-696361645f70,rev?*%
%TF.SameCoordinates,Original*%
%TF.FileFunction,Soldermask,Bot*%
%TF.FilePolarity,Negative*%
%FSLAX46Y46*%
G04 Gerber Fmt 4.6, Leading zero omitted, Abs format (unit mm)*
G04 Created by KiCad (PCBNEW (6.0.11)) date 2023-04-10 14:51:40*
%MOMM*%
%LPD*%
G01*
G04 APERTURE LIST*
G04 Aperture macros list*
%AMRoundRect*
0 Rectangle with rounded corners*
0 $1 Rounding radius*
0 $2 $3 $4 $5 $6 $7 $8 $9 X,Y pos of 4 corners*
0 Add a 4 corners polygon primitive as box body*
4,1,4,$2,$3,$4,$5,$6,$7,$8,$9,$2,$3,0*
0 Add four circle primitives for the rounded corners*
1,1,$1+$1,$2,$3*
1,1,$1+$1,$4,$5*
1,1,$1+$1,$6,$7*
1,1,$1+$1,$8,$9*
0 Add four rect primitives between the rounded corners*
20,1,$1+$1,$2,$3,$4,$5,0*
20,1,$1+$1,$4,$5,$6,$7,0*
20,1,$1+$1,$6,$7,$8,$9,0*
20,1,$1+$1,$8,$9,$2,$3,0*%
G04 Aperture macros list end*
%ADD10RoundRect,0.050800X0.600000X0.850000X-0.600000X0.850000X-0.600000X-0.850000X0.600000X-0.850000X0*%
%ADD11O,1.301600X1.801600*%
%ADD12C,2.101600*%
%ADD13RoundRect,0.050800X-0.535000X-0.900000X0.535000X-0.900000X0.535000X0.900000X-0.535000X0.900000X0*%
%ADD14O,1.171600X1.901600*%
%ADD15C,1.901600*%
%ADD16C,1.879600*%
%ADD17C,3.301600*%
%ADD18C,1.625600*%
%ADD19C,2.601600*%
%ADD20RoundRect,0.050800X0.875000X-0.875000X0.875000X0.875000X-0.875000X0.875000X-0.875000X-0.875000X0*%
%ADD21C,1.851600*%
%ADD22RoundRect,0.050800X-1.100000X-1.100000X1.100000X-1.100000X1.100000X1.100000X-1.100000X1.100000X0*%
%ADD23O,2.301600X2.301600*%
G04 APERTURE END LIST*
D10*
%TO.C,J2*%
X142850000Y-81600000D03*
D11*
X140850000Y-81600000D03*
%TD*%
D12*
%TO.C,R2*%
X154600000Y-74900000D03*
X147600000Y-74900000D03*
%TD*%
%TO.C,R1*%
X133800000Y-71700000D03*
X126800000Y-71700000D03*
%TD*%
D13*
%TO.C,D3*%
X161100000Y-78000000D03*
D14*
X162370000Y-78000000D03*
X163640000Y-78000000D03*
X164910000Y-78000000D03*
%TD*%
D15*
%TO.C,U2*%
X112471012Y-82351012D03*
X112471012Y-84891012D03*
X112471012Y-87431012D03*
X112471012Y-89971012D03*
X112471012Y-92511012D03*
X112471012Y-95051012D03*
X112471012Y-97591012D03*
X112471012Y-100131012D03*
X135331012Y-100131012D03*
X135331012Y-97591012D03*
X135331012Y-95051012D03*
X135331012Y-92511012D03*
X135331012Y-89971012D03*
X135331012Y-87431012D03*
X135331012Y-84891012D03*
X135331012Y-82351012D03*
%TD*%
D16*
%TO.C,U3*%
X141110000Y-90450000D03*
X141110000Y-92990000D03*
X141110000Y-95530000D03*
X141110000Y-98070000D03*
X141110000Y-100610000D03*
X141110000Y-103150000D03*
X158890000Y-90450000D03*
X158890000Y-92990000D03*
X158890000Y-95530000D03*
X158890000Y-98070000D03*
X158890000Y-100610000D03*
X158890000Y-103150000D03*
D17*
X158890000Y-86640000D03*
X158890000Y-106960000D03*
X141110000Y-86640000D03*
X141110000Y-106960000D03*
%TD*%
D18*
%TO.C,J1*%
X112880000Y-71700000D03*
X115420000Y-71700000D03*
X117960000Y-71700000D03*
X120500000Y-71700000D03*
X123040000Y-71700000D03*
%TD*%
D19*
%TO.C,S1*%
X168950000Y-79500000D03*
X173750000Y-79500000D03*
X178550000Y-79500000D03*
%TD*%
D20*
%TO.C,J3*%
X183800000Y-94500000D03*
D21*
X183800000Y-92000000D03*
X183800000Y-89500000D03*
X183800000Y-87000000D03*
X183800000Y-84500000D03*
%TD*%
D22*
%TO.C,D2*%
X147520000Y-78500000D03*
D23*
X157680000Y-78500000D03*
%TD*%
D12*
%TO.C,U1*%
X164500000Y-84750000D03*
X167500000Y-84750000D03*
X175500000Y-84750000D03*
X178500000Y-84750000D03*
X164500000Y-107250000D03*
X178500000Y-107250000D03*
%TD*%
D22*
%TO.C,D1*%
X147520000Y-82000000D03*
D23*
X157680000Y-82000000D03*
%TD*%
G36*
X163070145Y-77523088D02*
G01*
X163070729Y-77524778D01*
X163056200Y-77635132D01*
X163056200Y-78364868D01*
X163057049Y-78371313D01*
X163056284Y-78373161D01*
X163054301Y-78373422D01*
X163053329Y-78372565D01*
X163035059Y-78340537D01*
X162999377Y-78330775D01*
X162967150Y-78349157D01*
X162957013Y-78375984D01*
X162953179Y-78436940D01*
X162953120Y-78437311D01*
X162943191Y-78475980D01*
X162941792Y-78477409D01*
X162939855Y-78476912D01*
X162939271Y-78475222D01*
X162953800Y-78364868D01*
X162953800Y-77635132D01*
X162952951Y-77628687D01*
X162953716Y-77626839D01*
X162955699Y-77626578D01*
X162956671Y-77627435D01*
X162974941Y-77659463D01*
X163010623Y-77669225D01*
X163042850Y-77650843D01*
X163052987Y-77624016D01*
X163056821Y-77563060D01*
X163056880Y-77562689D01*
X163066809Y-77524020D01*
X163068208Y-77522591D01*
X163070145Y-77523088D01*
G37*
G36*
X164340145Y-77523088D02*
G01*
X164340729Y-77524778D01*
X164326200Y-77635132D01*
X164326200Y-78364868D01*
X164327049Y-78371313D01*
X164326284Y-78373161D01*
X164324301Y-78373422D01*
X164323329Y-78372565D01*
X164305059Y-78340537D01*
X164269377Y-78330775D01*
X164237150Y-78349157D01*
X164227013Y-78375984D01*
X164223179Y-78436940D01*
X164223120Y-78437311D01*
X164213191Y-78475980D01*
X164211792Y-78477409D01*
X164209855Y-78476912D01*
X164209271Y-78475222D01*
X164223800Y-78364868D01*
X164223800Y-77635132D01*
X164222951Y-77628687D01*
X164223716Y-77626839D01*
X164225699Y-77626578D01*
X164226671Y-77627435D01*
X164244941Y-77659463D01*
X164280623Y-77669225D01*
X164312850Y-77650843D01*
X164322987Y-77624016D01*
X164326821Y-77563060D01*
X164326880Y-77562689D01*
X164336809Y-77524020D01*
X164338208Y-77522591D01*
X164340145Y-77523088D01*
G37*
G36*
X161800145Y-77523088D02*
G01*
X161800729Y-77524778D01*
X161786200Y-77635132D01*
X161786200Y-78364868D01*
X161787959Y-78378229D01*
X161787194Y-78380077D01*
X161785211Y-78380338D01*
X161784239Y-78379481D01*
X161765923Y-78347371D01*
X161730241Y-78337609D01*
X161698044Y-78355974D01*
X161687692Y-78386210D01*
X161686185Y-78387525D01*
X161684293Y-78386877D01*
X161683800Y-78385562D01*
X161683800Y-77593716D01*
X161684800Y-77591984D01*
X161686800Y-77591984D01*
X161687648Y-77592951D01*
X161702121Y-77627891D01*
X161736298Y-77642048D01*
X161770509Y-77627877D01*
X161784724Y-77596394D01*
X161786821Y-77563060D01*
X161786880Y-77562689D01*
X161796809Y-77524020D01*
X161798208Y-77522591D01*
X161800145Y-77523088D01*
G37*
M02*
