%TF.GenerationSoftware,KiCad,Pcbnew,(6.0.11)*%
%TF.CreationDate,2023-04-10T14:51:40-04:00*%
%TF.ProjectId,IMU-pcb,494d552d-7063-4622-9e6b-696361645f70,rev?*%
%TF.SameCoordinates,Original*%
%TF.FileFunction,Copper,L1,Top*%
%TF.FilePolarity,Positive*%
%FSLAX46Y46*%
G04 Gerber Fmt 4.6, Leading zero omitted, Abs format (unit mm)*
G04 Created by KiCad (PCBNEW (6.0.11)) date 2023-04-10 14:51:40*
%MOMM*%
%LPD*%
G01*
G04 APERTURE LIST*
%TA.AperFunction,ComponentPad*%
%ADD10R,1.200000X1.700000*%
%TD*%
%TA.AperFunction,ComponentPad*%
%ADD11O,1.200000X1.700000*%
%TD*%
%TA.AperFunction,ComponentPad*%
%ADD12C,2.000000*%
%TD*%
%TA.AperFunction,ComponentPad*%
%ADD13R,1.070000X1.800000*%
%TD*%
%TA.AperFunction,ComponentPad*%
%ADD14O,1.070000X1.800000*%
%TD*%
%TA.AperFunction,ComponentPad*%
%ADD15C,1.800000*%
%TD*%
%TA.AperFunction,ComponentPad*%
%ADD16C,1.778000*%
%TD*%
%TA.AperFunction,ComponentPad*%
%ADD17C,3.200000*%
%TD*%
%TA.AperFunction,ComponentPad*%
%ADD18C,1.524000*%
%TD*%
%TA.AperFunction,ComponentPad*%
%ADD19C,2.500000*%
%TD*%
%TA.AperFunction,ComponentPad*%
%ADD20R,1.750000X1.750000*%
%TD*%
%TA.AperFunction,ComponentPad*%
%ADD21C,1.750000*%
%TD*%
%TA.AperFunction,ComponentPad*%
%ADD22R,2.200000X2.200000*%
%TD*%
%TA.AperFunction,ComponentPad*%
%ADD23O,2.200000X2.200000*%
%TD*%
%TA.AperFunction,ViaPad*%
%ADD24C,0.800000*%
%TD*%
%TA.AperFunction,Conductor*%
%ADD25C,0.200000*%
%TD*%
%TA.AperFunction,Conductor*%
%ADD26C,0.250000*%
%TD*%
G04 APERTURE END LIST*
D10*
%TO.P,J2,1,Pin_1*%
%TO.N,B+*%
X142850000Y-81600000D03*
D11*
%TO.P,J2,2,Pin_2*%
%TO.N,B-*%
X140850000Y-81600000D03*
%TD*%
D12*
%TO.P,R2,1*%
%TO.N,Net-(D3-Pad1)*%
X154600000Y-74900000D03*
%TO.P,R2,2*%
%TO.N,RED*%
X147600000Y-74900000D03*
%TD*%
%TO.P,R1,1*%
%TO.N,B+*%
X133800000Y-71700000D03*
%TO.P,R1,2*%
%TO.N,Net-(R1-Pad2)*%
X126800000Y-71700000D03*
%TD*%
D13*
%TO.P,D3,1,RA*%
%TO.N,Net-(D3-Pad1)*%
X161100000Y-78000000D03*
D14*
%TO.P,D3,2,GA*%
%TO.N,GND*%
X162370000Y-78000000D03*
%TO.P,D3,3,BA*%
%TO.N,GRN*%
X163640000Y-78000000D03*
%TO.P,D3,4,K*%
%TO.N,BLU*%
X164910000Y-78000000D03*
%TD*%
D15*
%TO.P,U2,1,Rst*%
%TO.N,unconnected-(U2-Pad1)*%
X112471012Y-82351012D03*
%TO.P,U2,2,A0*%
%TO.N,Net-(R1-Pad2)*%
X112471012Y-84891012D03*
%TO.P,U2,3,D0*%
%TO.N,INT_PIN2*%
X112471012Y-87431012D03*
%TO.P,U2,4,D5*%
%TO.N,INT_PIN1*%
X112471012Y-89971012D03*
%TO.P,U2,5,D6*%
%TO.N,RED*%
X112471012Y-92511012D03*
%TO.P,U2,6,D7*%
%TO.N,GRN*%
X112471012Y-95051012D03*
%TO.P,U2,7,D8*%
%TO.N,BLU*%
X112471012Y-97591012D03*
%TO.P,U2,8,3.3V*%
%TO.N,+3.3V*%
X112471012Y-100131012D03*
%TO.P,U2,9,5V*%
%TO.N,+5V*%
X135331012Y-100131012D03*
%TO.P,U2,10,GND*%
%TO.N,GND*%
X135331012Y-97591012D03*
%TO.P,U2,11,D4*%
%TO.N,unconnected-(U2-Pad11)*%
X135331012Y-95051012D03*
%TO.P,U2,12,D3*%
%TO.N,unconnected-(U2-Pad12)*%
X135331012Y-92511012D03*
%TO.P,U2,13,D2*%
%TO.N,SDA*%
X135331012Y-89971012D03*
%TO.P,U2,14,D1*%
%TO.N,SCL*%
X135331012Y-87431012D03*
%TO.P,U2,15,Rx*%
%TO.N,unconnected-(U2-Pad15)*%
X135331012Y-84891012D03*
%TO.P,U2,16,Tx*%
%TO.N,unconnected-(U2-Pad16)*%
X135331012Y-82351012D03*
%TD*%
D16*
%TO.P,U3,JP1_1,VIN*%
%TO.N,+3.3V*%
X141110000Y-90450000D03*
%TO.P,U3,JP1_2,3VO*%
%TO.N,unconnected-(U3-PadJP1_2)*%
X141110000Y-92990000D03*
%TO.P,U3,JP1_3,GND*%
%TO.N,GND*%
X141110000Y-95530000D03*
%TO.P,U3,JP1_4,SCL*%
%TO.N,SCL*%
X141110000Y-98070000D03*
%TO.P,U3,JP1_5,SDA*%
%TO.N,SDA*%
X141110000Y-100610000D03*
%TO.P,U3,JP1_6,~{INT}*%
%TO.N,INT_PIN1*%
X141110000Y-103150000D03*
%TO.P,U3,JP2_1,BT*%
%TO.N,unconnected-(U3-PadJP2_1)*%
X158890000Y-90450000D03*
%TO.P,U3,JP2_2,P0*%
%TO.N,unconnected-(U3-PadJP2_2)*%
X158890000Y-92990000D03*
%TO.P,U3,JP2_3,P1*%
%TO.N,unconnected-(U3-PadJP2_3)*%
X158890000Y-95530000D03*
%TO.P,U3,JP2_4,~{RST}*%
%TO.N,unconnected-(U3-PadJP2_4)*%
X158890000Y-98070000D03*
%TO.P,U3,JP2_5,DI*%
%TO.N,unconnected-(U3-PadJP2_5)*%
X158890000Y-100610000D03*
%TO.P,U3,JP2_6,CS*%
%TO.N,unconnected-(U3-PadJP2_6)*%
X158890000Y-103150000D03*
D17*
%TO.P,U3,P1*%
%TO.N,N/C*%
X158890000Y-86640000D03*
%TO.P,U3,P2*%
X158890000Y-106960000D03*
%TO.P,U3,P3*%
X141110000Y-86640000D03*
%TO.P,U3,P4*%
X141110000Y-106960000D03*
%TD*%
D18*
%TO.P,J1,1,Pin_1*%
%TO.N,+5V*%
X112880000Y-71700000D03*
%TO.P,J1,2,Pin_2*%
%TO.N,+3.3V*%
X115420000Y-71700000D03*
%TO.P,J1,3,Pin_3*%
%TO.N,GND*%
X117960000Y-71700000D03*
%TO.P,J1,4,Pin_4*%
%TO.N,B+*%
X120500000Y-71700000D03*
%TO.P,J1,5,Pin_5*%
%TO.N,B-*%
X123040000Y-71700000D03*
%TD*%
D19*
%TO.P,S1,1,T1*%
%TO.N,+5V*%
X168950000Y-79500000D03*
%TO.P,S1,2,T2*%
%TO.N,Net-(D1-Pad1)*%
X173750000Y-79500000D03*
%TO.P,S1,3*%
%TO.N,N/C*%
X178550000Y-79500000D03*
%TD*%
D20*
%TO.P,J3,1,Pin_1*%
%TO.N,+3.3V*%
X183800000Y-94500000D03*
D21*
%TO.P,J3,2,Pin_2*%
%TO.N,GND*%
X183800000Y-92000000D03*
%TO.P,J3,3,Pin_3*%
%TO.N,SDA*%
X183800000Y-89500000D03*
%TO.P,J3,4,Pin_4*%
%TO.N,SCL*%
X183800000Y-87000000D03*
%TO.P,J3,5,Pin_5*%
%TO.N,INT_PIN2*%
X183800000Y-84500000D03*
%TD*%
D22*
%TO.P,D2,1,K*%
%TO.N,Net-(D1-Pad1)*%
X147520000Y-78500000D03*
D23*
%TO.P,D2,2,A*%
%TO.N,Net-(D2-Pad2)*%
X157680000Y-78500000D03*
%TD*%
D12*
%TO.P,U1,1,Out+*%
%TO.N,Net-(D2-Pad2)*%
X164500000Y-84750000D03*
%TO.P,U1,2,Battery+*%
%TO.N,B+*%
X167500000Y-84750000D03*
%TO.P,U1,3,Battery-*%
%TO.N,B-*%
X175500000Y-84750000D03*
%TO.P,U1,4,Out-*%
%TO.N,GND*%
X178500000Y-84750000D03*
%TO.P,U1,5,RB+*%
%TO.N,Net-(D1-Pad2)*%
X164500000Y-107250000D03*
%TO.P,U1,6,RB-*%
%TO.N,unconnected-(U1-Pad6)*%
X178500000Y-107250000D03*
%TD*%
D22*
%TO.P,D1,1,K*%
%TO.N,Net-(D1-Pad1)*%
X147520000Y-82000000D03*
D23*
%TO.P,D1,2,A*%
%TO.N,Net-(D1-Pad2)*%
X157680000Y-82000000D03*
%TD*%
D24*
%TO.N,GND*%
X125600000Y-87900000D03*
X118000000Y-75900000D03*
%TD*%
D25*
%TO.N,B+*%
X142850000Y-80250000D02*
X142850000Y-81600000D01*
X122375000Y-69825000D02*
X120500000Y-71700000D01*
X133800000Y-74700000D02*
X128925000Y-69825000D01*
X142350000Y-79750000D02*
X142850000Y-80250000D01*
X133800000Y-71700000D02*
X133800000Y-74700000D01*
X128925000Y-69825000D02*
X122375000Y-69825000D01*
X133800000Y-74700000D02*
X138850000Y-79750000D01*
X138850000Y-79750000D02*
X142350000Y-79750000D01*
%TO.N,B-*%
X140850000Y-81600000D02*
X140050000Y-81600000D01*
X125215000Y-73875000D02*
X132325000Y-73875000D01*
X140050000Y-81600000D02*
X132325000Y-73875000D01*
X123040000Y-71700000D02*
X125215000Y-73875000D01*
D26*
%TO.N,Net-(D1-Pad1)*%
X148500000Y-78500000D02*
X147520000Y-78500000D01*
X153600000Y-73400000D02*
X148500000Y-78500000D01*
X173750000Y-79500000D02*
X167650000Y-73400000D01*
X147520000Y-78500000D02*
X147520000Y-82000000D01*
X167650000Y-73400000D02*
X153600000Y-73400000D01*
%TO.N,Net-(D2-Pad2)*%
X157680000Y-79680000D02*
X162750000Y-84750000D01*
X157680000Y-78500000D02*
X157680000Y-79680000D01*
X162750000Y-84750000D02*
X164500000Y-84750000D01*
%TO.N,Net-(D1-Pad2)*%
X164500000Y-88820000D02*
X164500000Y-107250000D01*
X157680000Y-82000000D02*
X164500000Y-88820000D01*
%TO.N,Net-(D3-Pad1)*%
X161100000Y-78000000D02*
X158000000Y-74900000D01*
X158000000Y-74900000D02*
X154600000Y-74900000D01*
%TO.N,SCL*%
X138520000Y-95080000D02*
X138520000Y-95480000D01*
X138520000Y-90620000D02*
X138520000Y-95080000D01*
X135331012Y-87431012D02*
X138520000Y-90620000D01*
X138520000Y-95480000D02*
X141110000Y-98070000D01*
%TO.N,SDA*%
X137750000Y-97250000D02*
X137750000Y-92390000D01*
X137750000Y-92390000D02*
X135331012Y-89971012D01*
X141110000Y-100610000D02*
X137750000Y-97250000D01*
%TO.N,GND*%
X178500000Y-84750000D02*
X178500000Y-86700000D01*
X178500000Y-86700000D02*
X183800000Y-92000000D01*
X118000000Y-80300000D02*
X125600000Y-87900000D01*
X118000000Y-75900000D02*
X118000000Y-80300000D01*
%TO.N,+5V*%
X163750000Y-108750000D02*
X159750000Y-104750000D01*
X112250000Y-102000000D02*
X111000000Y-100750000D01*
X168950000Y-79500000D02*
X168950000Y-82850000D01*
X159750000Y-104750000D02*
X139950000Y-104750000D01*
X133462024Y-102000000D02*
X112250000Y-102000000D01*
X168950000Y-105800000D02*
X166000000Y-108750000D01*
X111000000Y-100750000D02*
X111000000Y-81750000D01*
X166000000Y-108750000D02*
X163750000Y-108750000D01*
X139950000Y-104750000D02*
X135331012Y-100131012D01*
X169700000Y-83600000D02*
X169700000Y-86100000D01*
X111000000Y-81750000D02*
X112880000Y-79870000D01*
X169700000Y-86100000D02*
X168950000Y-86850000D01*
X168950000Y-82850000D02*
X169700000Y-83600000D01*
X112880000Y-79870000D02*
X112880000Y-71700000D01*
X135331012Y-100131012D02*
X133462024Y-102000000D01*
X168950000Y-86850000D02*
X168950000Y-105800000D01*
%TD*%
%TA.AperFunction,Conductor*%
%TO.N,+3.3V*%
G36*
X121594882Y-69528502D02*
G01*
X121641375Y-69582158D01*
X121651479Y-69652432D01*
X121621985Y-69717012D01*
X121615856Y-69723595D01*
X120910105Y-70429346D01*
X120847793Y-70463372D01*
X120788400Y-70461958D01*
X120721463Y-70444022D01*
X120500000Y-70424647D01*
X120278537Y-70444022D01*
X120147868Y-70479035D01*
X120069114Y-70500137D01*
X120069112Y-70500138D01*
X120063804Y-70501560D01*
X120058823Y-70503882D01*
X120058822Y-70503883D01*
X119867311Y-70593186D01*
X119867306Y-70593189D01*
X119862324Y-70595512D01*
X119857817Y-70598668D01*
X119857815Y-70598669D01*
X119684730Y-70719864D01*
X119684727Y-70719866D01*
X119680219Y-70723023D01*
X119523023Y-70880219D01*
X119519866Y-70884727D01*
X119519864Y-70884730D01*
X119426820Y-71017611D01*
X119395512Y-71062324D01*
X119393189Y-71067306D01*
X119393186Y-71067311D01*
X119344195Y-71172373D01*
X119297277Y-71225658D01*
X119229000Y-71245119D01*
X119161040Y-71224577D01*
X119115805Y-71172373D01*
X119066814Y-71067311D01*
X119066811Y-71067306D01*
X119064488Y-71062324D01*
X119033180Y-71017611D01*
X118940136Y-70884730D01*
X118940134Y-70884727D01*
X118936977Y-70880219D01*
X118779781Y-70723023D01*
X118775273Y-70719866D01*
X118775270Y-70719864D01*
X118693650Y-70662713D01*
X118597677Y-70595512D01*
X118592695Y-70593189D01*
X118592690Y-70593186D01*
X118401178Y-70503883D01*
X118401177Y-70503882D01*
X118396196Y-70501560D01*
X118390888Y-70500138D01*
X118390886Y-70500137D01*
X118312132Y-70479035D01*
X118181463Y-70444022D01*
X117960000Y-70424647D01*
X117738537Y-70444022D01*
X117607868Y-70479035D01*
X117529114Y-70500137D01*
X117529112Y-70500138D01*
X117523804Y-70501560D01*
X117518823Y-70503882D01*
X117518822Y-70503883D01*
X117327311Y-70593186D01*
X117327306Y-70593189D01*
X117322324Y-70595512D01*
X117317817Y-70598668D01*
X117317815Y-70598669D01*
X117144730Y-70719864D01*
X117144727Y-70719866D01*
X117140219Y-70723023D01*
X116983023Y-70880219D01*
X116979866Y-70884727D01*
X116979864Y-70884730D01*
X116886820Y-71017611D01*
X116855512Y-71062324D01*
X116853189Y-71067306D01*
X116853186Y-71067311D01*
X116803919Y-71172965D01*
X116757001Y-71226250D01*
X116688724Y-71245711D01*
X116620764Y-71225169D01*
X116575529Y-71172965D01*
X116526377Y-71067559D01*
X116520897Y-71058068D01*
X116490206Y-71014235D01*
X116479729Y-71005860D01*
X116466282Y-71012928D01*
X115792022Y-71687188D01*
X115784408Y-71701132D01*
X115784539Y-71702965D01*
X115788790Y-71709580D01*
X116467003Y-72387793D01*
X116478777Y-72394223D01*
X116490793Y-72384926D01*
X116520897Y-72341932D01*
X116526377Y-72332441D01*
X116575529Y-72227035D01*
X116622447Y-72173750D01*
X116690724Y-72154289D01*
X116758684Y-72174831D01*
X116803919Y-72227035D01*
X116853186Y-72332689D01*
X116853189Y-72332694D01*
X116855512Y-72337676D01*
X116858668Y-72342183D01*
X116858669Y-72342185D01*
X116895107Y-72394223D01*
X116983023Y-72519781D01*
X117140219Y-72676977D01*
X117144727Y-72680134D01*
X117144730Y-72680136D01*
X117162876Y-72692842D01*
X117322323Y-72804488D01*
X117327305Y-72806811D01*
X117327310Y-72806814D01*
X117517810Y-72895645D01*
X117523804Y-72898440D01*
X117529112Y-72899862D01*
X117529114Y-72899863D01*
X117580680Y-72913680D01*
X117738537Y-72955978D01*
X117960000Y-72975353D01*
X118181463Y-72955978D01*
X118339320Y-72913680D01*
X118390886Y-72899863D01*
X118390888Y-72899862D01*
X118396196Y-72898440D01*
X118402190Y-72895645D01*
X118592690Y-72806814D01*
X118592695Y-72806811D01*
X118597677Y-72804488D01*
X118757124Y-72692842D01*
X118775270Y-72680136D01*
X118775273Y-72680134D01*
X118779781Y-72676977D01*
X118936977Y-72519781D01*
X119024894Y-72394223D01*
X119061331Y-72342185D01*
X119061332Y-72342183D01*
X119064488Y-72337676D01*
X119066811Y-72332694D01*
X119066814Y-72332689D01*
X119115805Y-72227627D01*
X119162723Y-72174342D01*
X119231000Y-72154881D01*
X119298960Y-72175423D01*
X119344195Y-72227627D01*
X119393186Y-72332689D01*
X119393189Y-72332694D01*
X119395512Y-72337676D01*
X119398668Y-72342183D01*
X119398669Y-72342185D01*
X119435107Y-72394223D01*
X119523023Y-72519781D01*
X119680219Y-72676977D01*
X119684727Y-72680134D01*
X119684730Y-72680136D01*
X119702876Y-72692842D01*
X119862323Y-72804488D01*
X119867305Y-72806811D01*
X119867310Y-72806814D01*
X120057810Y-72895645D01*
X120063804Y-72898440D01*
X120069112Y-72899862D01*
X120069114Y-72899863D01*
X120120680Y-72913680D01*
X120278537Y-72955978D01*
X120500000Y-72975353D01*
X120721463Y-72955978D01*
X120879320Y-72913680D01*
X120930886Y-72899863D01*
X120930888Y-72899862D01*
X120936196Y-72898440D01*
X120942190Y-72895645D01*
X121132690Y-72806814D01*
X121132695Y-72806811D01*
X121137677Y-72804488D01*
X121297124Y-72692842D01*
X121315270Y-72680136D01*
X121315273Y-72680134D01*
X121319781Y-72676977D01*
X121476977Y-72519781D01*
X121564894Y-72394223D01*
X121601331Y-72342185D01*
X121601332Y-72342183D01*
X121604488Y-72337676D01*
X121606811Y-72332694D01*
X121606814Y-72332689D01*
X121655805Y-72227627D01*
X121702723Y-72174342D01*
X121771000Y-72154881D01*
X121838960Y-72175423D01*
X121884195Y-72227627D01*
X121933186Y-72332689D01*
X121933189Y-72332694D01*
X121935512Y-72337676D01*
X121938668Y-72342183D01*
X121938669Y-72342185D01*
X121975107Y-72394223D01*
X122063023Y-72519781D01*
X122220219Y-72676977D01*
X122224727Y-72680134D01*
X122224730Y-72680136D01*
X122242876Y-72692842D01*
X122402323Y-72804488D01*
X122407305Y-72806811D01*
X122407310Y-72806814D01*
X122597810Y-72895645D01*
X122603804Y-72898440D01*
X122609112Y-72899862D01*
X122609114Y-72899863D01*
X122660680Y-72913680D01*
X122818537Y-72955978D01*
X123040000Y-72975353D01*
X123261463Y-72955978D01*
X123328399Y-72938042D01*
X123399376Y-72939732D01*
X123450105Y-72970654D01*
X124750685Y-74271234D01*
X124761552Y-74283625D01*
X124781013Y-74308987D01*
X124787563Y-74314013D01*
X124812081Y-74332826D01*
X124812925Y-74333474D01*
X124812928Y-74333477D01*
X124878008Y-74383414D01*
X124908125Y-74406524D01*
X124915751Y-74409683D01*
X124915753Y-74409684D01*
X125048521Y-74464678D01*
X125056150Y-74467838D01*
X125175115Y-74483500D01*
X125175120Y-74483500D01*
X125175129Y-74483501D01*
X125206812Y-74487672D01*
X125215000Y-74488750D01*
X125246693Y-74484578D01*
X125263136Y-74483500D01*
X132020761Y-74483500D01*
X132088882Y-74503502D01*
X132109856Y-74520405D01*
X139585685Y-81996234D01*
X139596552Y-82008625D01*
X139616013Y-82033987D01*
X139622563Y-82039013D01*
X139647921Y-82058471D01*
X139647937Y-82058485D01*
X139677552Y-82081209D01*
X139742664Y-82131171D01*
X139742665Y-82131172D01*
X139743124Y-82131524D01*
X139743069Y-82131596D01*
X139789201Y-82179978D01*
X139798111Y-82202243D01*
X139816092Y-82263534D01*
X139818836Y-82268861D01*
X139818836Y-82268862D01*
X139896705Y-82420053D01*
X139912942Y-82451580D01*
X140043604Y-82617920D01*
X140048135Y-82621852D01*
X140048138Y-82621855D01*
X140170377Y-82727928D01*
X140203363Y-82756552D01*
X140208549Y-82759552D01*
X140208553Y-82759555D01*
X140301388Y-82813261D01*
X140386454Y-82862473D01*
X140586271Y-82931861D01*
X140592206Y-82932722D01*
X140592208Y-82932722D01*
X140789664Y-82961352D01*
X140789667Y-82961352D01*
X140795604Y-82962213D01*
X141006899Y-82952433D01*
X141138077Y-82920819D01*
X141206701Y-82904281D01*
X141206703Y-82904280D01*
X141212534Y-82902875D01*
X141217992Y-82900393D01*
X141217996Y-82900392D01*
X141333041Y-82848084D01*
X141405087Y-82815326D01*
X141537120Y-82721669D01*
X141572725Y-82696412D01*
X141572726Y-82696411D01*
X141577611Y-82692946D01*
X141581753Y-82688619D01*
X141581759Y-82688614D01*
X141599370Y-82670217D01*
X141660925Y-82634840D01*
X141731834Y-82638359D01*
X141789585Y-82679655D01*
X141797490Y-82691651D01*
X141799385Y-82696705D01*
X141804767Y-82703886D01*
X141804768Y-82703888D01*
X141853276Y-82768612D01*
X141886739Y-82813261D01*
X142003295Y-82900615D01*
X142139684Y-82951745D01*
X142201866Y-82958500D01*
X143498134Y-82958500D01*
X143560316Y-82951745D01*
X143696705Y-82900615D01*
X143813261Y-82813261D01*
X143900615Y-82696705D01*
X143951745Y-82560316D01*
X143958500Y-82498134D01*
X143958500Y-80701866D01*
X143951745Y-80639684D01*
X143900615Y-80503295D01*
X143813261Y-80386739D01*
X143696705Y-80299385D01*
X143560316Y-80248255D01*
X143552466Y-80247402D01*
X143544975Y-80245621D01*
X143483329Y-80210403D01*
X143450510Y-80147448D01*
X143449201Y-80139484D01*
X143445584Y-80112005D01*
X143442838Y-80091150D01*
X143435942Y-80074500D01*
X143433638Y-80068939D01*
X143406939Y-80004481D01*
X143381524Y-79943124D01*
X143308478Y-79847929D01*
X143308474Y-79847925D01*
X143297934Y-79834189D01*
X143289016Y-79822566D01*
X143289013Y-79822563D01*
X143283987Y-79816013D01*
X143270726Y-79805837D01*
X143258621Y-79796548D01*
X143246230Y-79785681D01*
X142814315Y-79353766D01*
X142803448Y-79341375D01*
X142789013Y-79322563D01*
X142783987Y-79316013D01*
X142752075Y-79291526D01*
X142752072Y-79291523D01*
X142715241Y-79263261D01*
X142663429Y-79223504D01*
X142663427Y-79223503D01*
X142656876Y-79218476D01*
X142508851Y-79157162D01*
X142500664Y-79156084D01*
X142500663Y-79156084D01*
X142489458Y-79154609D01*
X142458262Y-79150502D01*
X142389885Y-79141500D01*
X142389882Y-79141500D01*
X142389874Y-79141499D01*
X142358189Y-79137328D01*
X142350000Y-79136250D01*
X142318307Y-79140422D01*
X142301864Y-79141500D01*
X139154239Y-79141500D01*
X139086118Y-79121498D01*
X139065144Y-79104595D01*
X134445405Y-74484856D01*
X134411379Y-74422544D01*
X134408500Y-74395761D01*
X134408500Y-73164931D01*
X134428502Y-73096810D01*
X134479082Y-73054543D01*
X134477980Y-73052381D01*
X134482389Y-73050135D01*
X134486963Y-73048240D01*
X134511723Y-73033067D01*
X134685202Y-72926759D01*
X134685208Y-72926755D01*
X134689416Y-72924176D01*
X134869969Y-72769969D01*
X134874257Y-72764949D01*
X134935842Y-72692842D01*
X135024176Y-72589416D01*
X135026755Y-72585208D01*
X135026759Y-72585202D01*
X135145654Y-72391183D01*
X135148240Y-72386963D01*
X135166893Y-72341932D01*
X135237211Y-72172167D01*
X135237212Y-72172165D01*
X135239105Y-72167594D01*
X135263878Y-72064408D01*
X135293380Y-71941524D01*
X135293381Y-71941518D01*
X135294535Y-71936711D01*
X135313165Y-71700000D01*
X135294535Y-71463289D01*
X135265257Y-71341335D01*
X135240260Y-71237218D01*
X135239105Y-71232406D01*
X135236310Y-71225658D01*
X135150135Y-71017611D01*
X135150133Y-71017607D01*
X135148240Y-71013037D01*
X135064461Y-70876322D01*
X135026759Y-70814798D01*
X135026755Y-70814792D01*
X135024176Y-70810584D01*
X134869969Y-70630031D01*
X134689416Y-70475824D01*
X134685208Y-70473245D01*
X134685202Y-70473241D01*
X134491183Y-70354346D01*
X134486963Y-70351760D01*
X134482393Y-70349867D01*
X134482389Y-70349865D01*
X134272167Y-70262789D01*
X134272165Y-70262788D01*
X134267594Y-70260895D01*
X134187391Y-70241640D01*
X134041524Y-70206620D01*
X134041518Y-70206619D01*
X134036711Y-70205465D01*
X133800000Y-70186835D01*
X133563289Y-70205465D01*
X133558482Y-70206619D01*
X133558476Y-70206620D01*
X133412609Y-70241640D01*
X133332406Y-70260895D01*
X133327835Y-70262788D01*
X133327833Y-70262789D01*
X133117611Y-70349865D01*
X133117607Y-70349867D01*
X133113037Y-70351760D01*
X133108817Y-70354346D01*
X132914798Y-70473241D01*
X132914792Y-70473245D01*
X132910584Y-70475824D01*
X132730031Y-70630031D01*
X132575824Y-70810584D01*
X132573245Y-70814792D01*
X132573241Y-70814798D01*
X132535539Y-70876322D01*
X132451760Y-71013037D01*
X132449867Y-71017607D01*
X132449865Y-71017611D01*
X132363690Y-71225658D01*
X132360895Y-71232406D01*
X132359740Y-71237218D01*
X132334744Y-71341335D01*
X132305465Y-71463289D01*
X132286835Y-71700000D01*
X132305465Y-71936711D01*
X132306619Y-71941518D01*
X132306620Y-71941524D01*
X132330133Y-72039461D01*
X132326586Y-72110369D01*
X132285266Y-72168103D01*
X132219292Y-72194333D01*
X132149611Y-72180730D01*
X132118519Y-72157970D01*
X129684144Y-69723595D01*
X129650118Y-69661283D01*
X129655183Y-69590468D01*
X129697730Y-69533632D01*
X129764250Y-69508821D01*
X129773239Y-69508500D01*
X137365500Y-69508500D01*
X137433621Y-69528502D01*
X137480114Y-69582158D01*
X137491500Y-69634500D01*
X137491500Y-72991377D01*
X137491498Y-72992147D01*
X137491024Y-73069721D01*
X137493491Y-73078352D01*
X137499150Y-73098153D01*
X137502728Y-73114915D01*
X137506920Y-73144187D01*
X137510634Y-73152355D01*
X137510634Y-73152356D01*
X137517548Y-73167562D01*
X137523996Y-73185086D01*
X137531051Y-73209771D01*
X137535843Y-73217365D01*
X137535844Y-73217368D01*
X137546830Y-73234780D01*
X137554969Y-73249863D01*
X137567208Y-73276782D01*
X137573069Y-73283584D01*
X137583970Y-73296235D01*
X137595073Y-73311239D01*
X137608776Y-73332958D01*
X137615501Y-73338897D01*
X137615504Y-73338901D01*
X137630938Y-73352532D01*
X137642982Y-73364724D01*
X137656427Y-73380327D01*
X137656430Y-73380329D01*
X137662287Y-73387127D01*
X137669816Y-73392007D01*
X137669817Y-73392008D01*
X137683835Y-73401094D01*
X137698709Y-73412385D01*
X137711217Y-73423431D01*
X137717951Y-73429378D01*
X137744711Y-73441942D01*
X137759691Y-73450263D01*
X137776983Y-73461471D01*
X137776988Y-73461473D01*
X137784515Y-73466352D01*
X137793108Y-73468922D01*
X137793113Y-73468924D01*
X137809120Y-73473711D01*
X137826564Y-73480372D01*
X137841676Y-73487467D01*
X137841678Y-73487468D01*
X137849800Y-73491281D01*
X137858667Y-73492662D01*
X137858668Y-73492662D01*
X137868310Y-73494163D01*
X137879017Y-73495830D01*
X137895732Y-73499613D01*
X137915466Y-73505515D01*
X137915472Y-73505516D01*
X137924066Y-73508086D01*
X137933037Y-73508141D01*
X137933038Y-73508141D01*
X137943097Y-73508202D01*
X137958506Y-73508296D01*
X137959289Y-73508329D01*
X137960386Y-73508500D01*
X137991377Y-73508500D01*
X137992147Y-73508502D01*
X138065785Y-73508952D01*
X138065786Y-73508952D01*
X138069721Y-73508976D01*
X138071065Y-73508592D01*
X138072410Y-73508500D01*
X146564957Y-73508500D01*
X146633078Y-73528502D01*
X146679571Y-73582158D01*
X146689675Y-73652432D01*
X146660181Y-73717012D01*
X146646788Y-73730311D01*
X146530031Y-73830031D01*
X146375824Y-74010584D01*
X146373245Y-74014792D01*
X146373241Y-74014798D01*
X146343638Y-74063106D01*
X146251760Y-74213037D01*
X146249867Y-74217607D01*
X146249865Y-74217611D01*
X146166968Y-74417745D01*
X146160895Y-74432406D01*
X146105465Y-74663289D01*
X146086835Y-74900000D01*
X146105465Y-75136711D01*
X146160895Y-75367594D01*
X146162788Y-75372165D01*
X146162789Y-75372167D01*
X146234807Y-75546034D01*
X146251760Y-75586963D01*
X146254346Y-75591183D01*
X146373241Y-75785202D01*
X146373245Y-75785208D01*
X146375824Y-75789416D01*
X146530031Y-75969969D01*
X146710584Y-76124176D01*
X146714792Y-76126755D01*
X146714798Y-76126759D01*
X146908817Y-76245654D01*
X146913037Y-76248240D01*
X146917607Y-76250133D01*
X146917611Y-76250135D01*
X147127833Y-76337211D01*
X147132406Y-76339105D01*
X147212609Y-76358360D01*
X147358476Y-76393380D01*
X147358482Y-76393381D01*
X147363289Y-76394535D01*
X147600000Y-76413165D01*
X147836711Y-76394535D01*
X147841518Y-76393381D01*
X147841524Y-76393380D01*
X147987391Y-76358360D01*
X148067594Y-76339105D01*
X148072167Y-76337211D01*
X148282389Y-76250135D01*
X148282393Y-76250133D01*
X148286963Y-76248240D01*
X148291183Y-76245654D01*
X148485202Y-76126759D01*
X148485208Y-76126755D01*
X148489416Y-76124176D01*
X148669969Y-75969969D01*
X148824176Y-75789416D01*
X148826755Y-75785208D01*
X148826759Y-75785202D01*
X148945654Y-75591183D01*
X148948240Y-75586963D01*
X148965194Y-75546034D01*
X149037211Y-75372167D01*
X149037212Y-75372165D01*
X149039105Y-75367594D01*
X149094535Y-75136711D01*
X149113165Y-74900000D01*
X149094535Y-74663289D01*
X149039105Y-74432406D01*
X149033032Y-74417745D01*
X148950135Y-74217611D01*
X148950133Y-74217607D01*
X148948240Y-74213037D01*
X148856362Y-74063106D01*
X148826759Y-74014798D01*
X148826755Y-74014792D01*
X148824176Y-74010584D01*
X148669969Y-73830031D01*
X148553212Y-73730311D01*
X148514403Y-73670861D01*
X148513897Y-73599866D01*
X148551853Y-73539867D01*
X148616221Y-73509914D01*
X148635043Y-73508500D01*
X152291405Y-73508500D01*
X152359526Y-73528502D01*
X152406019Y-73582158D01*
X152416123Y-73652432D01*
X152386629Y-73717012D01*
X152380500Y-73723595D01*
X149108575Y-76995520D01*
X149046263Y-77029546D01*
X148975448Y-77024481D01*
X148943915Y-77007251D01*
X148866705Y-76949385D01*
X148730316Y-76898255D01*
X148668134Y-76891500D01*
X146371866Y-76891500D01*
X146309684Y-76898255D01*
X146173295Y-76949385D01*
X146056739Y-77036739D01*
X145969385Y-77153295D01*
X145918255Y-77289684D01*
X145911500Y-77351866D01*
X145911500Y-79648134D01*
X145918255Y-79710316D01*
X145969385Y-79846705D01*
X146056739Y-79963261D01*
X146173295Y-80050615D01*
X146309684Y-80101745D01*
X146371866Y-80108500D01*
X146760500Y-80108500D01*
X146828621Y-80128502D01*
X146875114Y-80182158D01*
X146886500Y-80234500D01*
X146886500Y-80265500D01*
X146866498Y-80333621D01*
X146812842Y-80380114D01*
X146760500Y-80391500D01*
X146371866Y-80391500D01*
X146309684Y-80398255D01*
X146173295Y-80449385D01*
X146056739Y-80536739D01*
X145969385Y-80653295D01*
X145918255Y-80789684D01*
X145911500Y-80851866D01*
X145911500Y-83148134D01*
X145918255Y-83210316D01*
X145969385Y-83346705D01*
X146056739Y-83463261D01*
X146173295Y-83550615D01*
X146309684Y-83601745D01*
X146371866Y-83608500D01*
X148668134Y-83608500D01*
X148730316Y-83601745D01*
X148866705Y-83550615D01*
X148983261Y-83463261D01*
X149070615Y-83346705D01*
X149121745Y-83210316D01*
X149128500Y-83148134D01*
X149128500Y-80851866D01*
X149121745Y-80789684D01*
X149070615Y-80653295D01*
X148983261Y-80536739D01*
X148866705Y-80449385D01*
X148730316Y-80398255D01*
X148668134Y-80391500D01*
X148279500Y-80391500D01*
X148211379Y-80371498D01*
X148164886Y-80317842D01*
X148153500Y-80265500D01*
X148153500Y-80234500D01*
X148173502Y-80166379D01*
X148227158Y-80119886D01*
X148279500Y-80108500D01*
X148668134Y-80108500D01*
X148730316Y-80101745D01*
X148866705Y-80050615D01*
X148983261Y-79963261D01*
X149070615Y-79846705D01*
X149121745Y-79710316D01*
X149128500Y-79648134D01*
X149128500Y-78819594D01*
X149148502Y-78751473D01*
X149165405Y-78730499D01*
X152886938Y-75008966D01*
X152949250Y-74974940D01*
X153020065Y-74980005D01*
X153076901Y-75022552D01*
X153101645Y-75088175D01*
X153105465Y-75136711D01*
X153160895Y-75367594D01*
X153162788Y-75372165D01*
X153162789Y-75372167D01*
X153234807Y-75546034D01*
X153251760Y-75586963D01*
X153254346Y-75591183D01*
X153373241Y-75785202D01*
X153373245Y-75785208D01*
X153375824Y-75789416D01*
X153530031Y-75969969D01*
X153710584Y-76124176D01*
X153714792Y-76126755D01*
X153714798Y-76126759D01*
X153908817Y-76245654D01*
X153913037Y-76248240D01*
X153917607Y-76250133D01*
X153917611Y-76250135D01*
X154127833Y-76337211D01*
X154132406Y-76339105D01*
X154212609Y-76358360D01*
X154358476Y-76393380D01*
X154358482Y-76393381D01*
X154363289Y-76394535D01*
X154600000Y-76413165D01*
X154836711Y-76394535D01*
X154841518Y-76393381D01*
X154841524Y-76393380D01*
X154987391Y-76358360D01*
X155067594Y-76339105D01*
X155072167Y-76337211D01*
X155282389Y-76250135D01*
X155282393Y-76250133D01*
X155286963Y-76248240D01*
X155291183Y-76245654D01*
X155485202Y-76126759D01*
X155485208Y-76126755D01*
X155489416Y-76124176D01*
X155669969Y-75969969D01*
X155824176Y-75789416D01*
X155826755Y-75785208D01*
X155826759Y-75785202D01*
X155944133Y-75593665D01*
X155996781Y-75546034D01*
X156051566Y-75533500D01*
X157685406Y-75533500D01*
X157753527Y-75553502D01*
X157774501Y-75570405D01*
X160019595Y-77815500D01*
X160053621Y-77877812D01*
X160056500Y-77904595D01*
X160056500Y-78948134D01*
X160063255Y-79010316D01*
X160114385Y-79146705D01*
X160201739Y-79263261D01*
X160318295Y-79350615D01*
X160454684Y-79401745D01*
X160516866Y-79408500D01*
X161683134Y-79408500D01*
X161745316Y-79401745D01*
X161814081Y-79375966D01*
X161873303Y-79353765D01*
X161873304Y-79353764D01*
X161881705Y-79350615D01*
X161886467Y-79347046D01*
X161954338Y-79332201D01*
X161982750Y-79337525D01*
X162007638Y-79345229D01*
X162159160Y-79392133D01*
X162165282Y-79392776D01*
X162165285Y-79392777D01*
X162356551Y-79412879D01*
X162356553Y-79412879D01*
X162362680Y-79413523D01*
X162448066Y-79405752D01*
X162560339Y-79395535D01*
X162560342Y-79395534D01*
X162566478Y-79394976D01*
X162572384Y-79393238D01*
X162572388Y-79393237D01*
X162681015Y-79361266D01*
X162762793Y-79337198D01*
X162768251Y-79334345D01*
X162768255Y-79334343D01*
X162944147Y-79242388D01*
X162944955Y-79243934D01*
X163004960Y-79225769D01*
X163065943Y-79240929D01*
X163071501Y-79243934D01*
X163233671Y-79331619D01*
X163429160Y-79392133D01*
X163435282Y-79392776D01*
X163435285Y-79392777D01*
X163626551Y-79412879D01*
X163626553Y-79412879D01*
X163632680Y-79413523D01*
X163718066Y-79405752D01*
X163830339Y-79395535D01*
X163830342Y-79395534D01*
X163836478Y-79394976D01*
X163842384Y-79393238D01*
X163842388Y-79393237D01*
X163951015Y-79361266D01*
X164032793Y-79337198D01*
X164038251Y-79334345D01*
X164038255Y-79334343D01*
X164214147Y-79242388D01*
X164214955Y-79243934D01*
X164274960Y-79225769D01*
X164335943Y-79240929D01*
X164341501Y-79243934D01*
X164503671Y-79331619D01*
X164699160Y-79392133D01*
X164705282Y-79392776D01*
X164705285Y-79392777D01*
X164896551Y-79412879D01*
X164896553Y-79412879D01*
X164902680Y-79413523D01*
X164988066Y-79405752D01*
X165100339Y-79395535D01*
X165100342Y-79395534D01*
X165106478Y-79394976D01*
X165112384Y-79393238D01*
X165112388Y-79393237D01*
X165221015Y-79361266D01*
X165302793Y-79337198D01*
X165308251Y-79334345D01*
X165308255Y-79334343D01*
X165433928Y-79268642D01*
X165484147Y-79242388D01*
X165544650Y-79193743D01*
X165638824Y-79118025D01*
X165643631Y-79114160D01*
X165775172Y-78957396D01*
X165873758Y-78778067D01*
X165880373Y-78757216D01*
X165933774Y-78588875D01*
X165935636Y-78583006D01*
X165953500Y-78423744D01*
X165953500Y-77583505D01*
X165938580Y-77431336D01*
X165879432Y-77235429D01*
X165831396Y-77145086D01*
X165786253Y-77060184D01*
X165786251Y-77060181D01*
X165783359Y-77054742D01*
X165779469Y-77049972D01*
X165779466Y-77049968D01*
X165657915Y-76900932D01*
X165657912Y-76900929D01*
X165654020Y-76896157D01*
X165496341Y-76765713D01*
X165316329Y-76668381D01*
X165120840Y-76607867D01*
X165114718Y-76607224D01*
X165114715Y-76607223D01*
X164923449Y-76587121D01*
X164923447Y-76587121D01*
X164917320Y-76586477D01*
X164858072Y-76591869D01*
X164719661Y-76604465D01*
X164719658Y-76604466D01*
X164713522Y-76605024D01*
X164707616Y-76606762D01*
X164707612Y-76606763D01*
X164598985Y-76638734D01*
X164517207Y-76662802D01*
X164511749Y-76665655D01*
X164511745Y-76665657D01*
X164335853Y-76757612D01*
X164335045Y-76756066D01*
X164275040Y-76774231D01*
X164214057Y-76759071D01*
X164080209Y-76686700D01*
X164046329Y-76668381D01*
X163850840Y-76607867D01*
X163844718Y-76607224D01*
X163844715Y-76607223D01*
X163653449Y-76587121D01*
X163653447Y-76587121D01*
X163647320Y-76586477D01*
X163588072Y-76591869D01*
X163449661Y-76604465D01*
X163449658Y-76604466D01*
X163443522Y-76605024D01*
X163437616Y-76606762D01*
X163437612Y-76606763D01*
X163328985Y-76638734D01*
X163247207Y-76662802D01*
X163241749Y-76665655D01*
X163241745Y-76665657D01*
X163065853Y-76757612D01*
X163065045Y-76756066D01*
X163005040Y-76774231D01*
X162944057Y-76759071D01*
X162810209Y-76686700D01*
X162776329Y-76668381D01*
X162580840Y-76607867D01*
X162574718Y-76607224D01*
X162574715Y-76607223D01*
X162383449Y-76587121D01*
X162383447Y-76587121D01*
X162377320Y-76586477D01*
X162318072Y-76591869D01*
X162179661Y-76604465D01*
X162179658Y-76604466D01*
X162173522Y-76605024D01*
X162167616Y-76606762D01*
X162167612Y-76606763D01*
X162033501Y-76646234D01*
X161979500Y-76662127D01*
X161908504Y-76662172D01*
X161886716Y-76653140D01*
X161881705Y-76649385D01*
X161873304Y-76646236D01*
X161873301Y-76646234D01*
X161761881Y-76604465D01*
X161745316Y-76598255D01*
X161683134Y-76591500D01*
X160639594Y-76591500D01*
X160571473Y-76571498D01*
X160550499Y-76554595D01*
X159541939Y-75546034D01*
X158503652Y-74507747D01*
X158496112Y-74499461D01*
X158492000Y-74492982D01*
X158481901Y-74483498D01*
X158442349Y-74446357D01*
X158439507Y-74443602D01*
X158419770Y-74423865D01*
X158416573Y-74421385D01*
X158407551Y-74413680D01*
X158399931Y-74406524D01*
X158375321Y-74383414D01*
X158368375Y-74379595D01*
X158368372Y-74379593D01*
X158357566Y-74373652D01*
X158341047Y-74362801D01*
X158340583Y-74362441D01*
X158325041Y-74350386D01*
X158317772Y-74347241D01*
X158317768Y-74347238D01*
X158284463Y-74332826D01*
X158273813Y-74327609D01*
X158235060Y-74306305D01*
X158215437Y-74301267D01*
X158196734Y-74294863D01*
X158185420Y-74289967D01*
X158185419Y-74289967D01*
X158178145Y-74286819D01*
X158170320Y-74285579D01*
X158170311Y-74285577D01*
X158160026Y-74283948D01*
X158095873Y-74253535D01*
X158058347Y-74193267D01*
X158059362Y-74122277D01*
X158098595Y-74063106D01*
X158163591Y-74034539D01*
X158179738Y-74033500D01*
X167335406Y-74033500D01*
X167403527Y-74053502D01*
X167424501Y-74070405D01*
X172081952Y-78727857D01*
X172115978Y-78790169D01*
X172109054Y-78865677D01*
X172077697Y-78940455D01*
X172013359Y-79193783D01*
X172012891Y-79198434D01*
X172012890Y-79198438D01*
X172007086Y-79256081D01*
X171987173Y-79453839D01*
X171987397Y-79458505D01*
X171987397Y-79458511D01*
X171993443Y-79584373D01*
X171999713Y-79714908D01*
X172050704Y-79971256D01*
X172139026Y-80217252D01*
X172147538Y-80233093D01*
X172241248Y-80407497D01*
X172262737Y-80447491D01*
X172265532Y-80451234D01*
X172265534Y-80451237D01*
X172416330Y-80653177D01*
X172416335Y-80653183D01*
X172419122Y-80656915D01*
X172422431Y-80660195D01*
X172422436Y-80660201D01*
X172562174Y-80798724D01*
X172604743Y-80840923D01*
X172608505Y-80843681D01*
X172608508Y-80843684D01*
X172811750Y-80992707D01*
X172815524Y-80995474D01*
X172819667Y-80997654D01*
X172819669Y-80997655D01*
X173042684Y-81114989D01*
X173042689Y-81114991D01*
X173046834Y-81117172D01*
X173148498Y-81152675D01*
X173241311Y-81185087D01*
X173293590Y-81203344D01*
X173298183Y-81204216D01*
X173545785Y-81251224D01*
X173545788Y-81251224D01*
X173550374Y-81252095D01*
X173680958Y-81257226D01*
X173806875Y-81262174D01*
X173806881Y-81262174D01*
X173811543Y-81262357D01*
X173900696Y-81252593D01*
X174066707Y-81234412D01*
X174066712Y-81234411D01*
X174071360Y-81233902D01*
X174075884Y-81232711D01*
X174319594Y-81168548D01*
X174319596Y-81168547D01*
X174324117Y-81167357D01*
X174330707Y-81164526D01*
X174485193Y-81098153D01*
X174564262Y-81064182D01*
X174601070Y-81041405D01*
X174782547Y-80929104D01*
X174782548Y-80929104D01*
X174786519Y-80926646D01*
X174790082Y-80923629D01*
X174790087Y-80923626D01*
X174982439Y-80760787D01*
X174982440Y-80760786D01*
X174986005Y-80757768D01*
X175077615Y-80653307D01*
X175155257Y-80564774D01*
X175155261Y-80564769D01*
X175158339Y-80561259D01*
X175169493Y-80543919D01*
X175262135Y-80399889D01*
X175299733Y-80341437D01*
X175407083Y-80103129D01*
X175446530Y-79963261D01*
X175476760Y-79856076D01*
X175476761Y-79856073D01*
X175478030Y-79851572D01*
X175495058Y-79717715D01*
X175510616Y-79595421D01*
X175510616Y-79595417D01*
X175511014Y-79592291D01*
X175513431Y-79500000D01*
X175510001Y-79453839D01*
X176787173Y-79453839D01*
X176787397Y-79458505D01*
X176787397Y-79458511D01*
X176793443Y-79584373D01*
X176799713Y-79714908D01*
X176850704Y-79971256D01*
X176939026Y-80217252D01*
X176947538Y-80233093D01*
X177041248Y-80407497D01*
X177062737Y-80447491D01*
X177065532Y-80451234D01*
X177065534Y-80451237D01*
X177216330Y-80653177D01*
X177216335Y-80653183D01*
X177219122Y-80656915D01*
X177222431Y-80660195D01*
X177222436Y-80660201D01*
X177362174Y-80798724D01*
X177404743Y-80840923D01*
X177408505Y-80843681D01*
X177408508Y-80843684D01*
X177611750Y-80992707D01*
X177615524Y-80995474D01*
X177619667Y-80997654D01*
X177619669Y-80997655D01*
X177842684Y-81114989D01*
X177842689Y-81114991D01*
X177846834Y-81117172D01*
X177948498Y-81152675D01*
X178041311Y-81185087D01*
X178093590Y-81203344D01*
X178098183Y-81204216D01*
X178345785Y-81251224D01*
X178345788Y-81251224D01*
X178350374Y-81252095D01*
X178480958Y-81257226D01*
X178606875Y-81262174D01*
X178606881Y-81262174D01*
X178611543Y-81262357D01*
X178700696Y-81252593D01*
X178866707Y-81234412D01*
X178866712Y-81234411D01*
X178871360Y-81233902D01*
X178875884Y-81232711D01*
X179119594Y-81168548D01*
X179119596Y-81168547D01*
X179124117Y-81167357D01*
X179130707Y-81164526D01*
X179285193Y-81098153D01*
X179364262Y-81064182D01*
X179401070Y-81041405D01*
X179582547Y-80929104D01*
X179582548Y-80929104D01*
X179586519Y-80926646D01*
X179590082Y-80923629D01*
X179590087Y-80923626D01*
X179782439Y-80760787D01*
X179782440Y-80760786D01*
X179786005Y-80757768D01*
X179877615Y-80653307D01*
X179955257Y-80564774D01*
X179955261Y-80564769D01*
X179958339Y-80561259D01*
X179969493Y-80543919D01*
X180062135Y-80399889D01*
X180099733Y-80341437D01*
X180207083Y-80103129D01*
X180246530Y-79963261D01*
X180276760Y-79856076D01*
X180276761Y-79856073D01*
X180278030Y-79851572D01*
X180295058Y-79717715D01*
X180310616Y-79595421D01*
X180310616Y-79595417D01*
X180311014Y-79592291D01*
X180313431Y-79500000D01*
X180309595Y-79448376D01*
X180294407Y-79244000D01*
X180294406Y-79243996D01*
X180294061Y-79239348D01*
X180290989Y-79225769D01*
X180237408Y-78988980D01*
X180236377Y-78984423D01*
X180172279Y-78819594D01*
X180143340Y-78745176D01*
X180143339Y-78745173D01*
X180141647Y-78740823D01*
X180135747Y-78730499D01*
X180093626Y-78656804D01*
X180011951Y-78513902D01*
X179850138Y-78308643D01*
X179659763Y-78129557D01*
X179481976Y-78006221D01*
X179448851Y-77983241D01*
X179448848Y-77983239D01*
X179445009Y-77980576D01*
X179440816Y-77978508D01*
X179214781Y-77867040D01*
X179214778Y-77867039D01*
X179210593Y-77864975D01*
X179171325Y-77852405D01*
X178966123Y-77786720D01*
X178961665Y-77785293D01*
X178703693Y-77743279D01*
X178589942Y-77741790D01*
X178447022Y-77739919D01*
X178447019Y-77739919D01*
X178442345Y-77739858D01*
X178183362Y-77775104D01*
X177932433Y-77848243D01*
X177928180Y-77850203D01*
X177928179Y-77850204D01*
X177895069Y-77865468D01*
X177695072Y-77957668D01*
X177656067Y-77983241D01*
X177480404Y-78098410D01*
X177480399Y-78098414D01*
X177476491Y-78100976D01*
X177281494Y-78275018D01*
X177114363Y-78475970D01*
X177111934Y-78479973D01*
X177045851Y-78588875D01*
X176978771Y-78699419D01*
X176877697Y-78940455D01*
X176813359Y-79193783D01*
X176812891Y-79198434D01*
X176812890Y-79198438D01*
X176807086Y-79256081D01*
X176787173Y-79453839D01*
X175510001Y-79453839D01*
X175509595Y-79448376D01*
X175494407Y-79244000D01*
X175494406Y-79243996D01*
X175494061Y-79239348D01*
X175490989Y-79225769D01*
X175437408Y-78988980D01*
X175436377Y-78984423D01*
X175372279Y-78819594D01*
X175343340Y-78745176D01*
X175343339Y-78745173D01*
X175341647Y-78740823D01*
X175335747Y-78730499D01*
X175293626Y-78656804D01*
X175211951Y-78513902D01*
X175050138Y-78308643D01*
X174859763Y-78129557D01*
X174681976Y-78006221D01*
X174648851Y-77983241D01*
X174648848Y-77983239D01*
X174645009Y-77980576D01*
X174640816Y-77978508D01*
X174414781Y-77867040D01*
X174414778Y-77867039D01*
X174410593Y-77864975D01*
X174371325Y-77852405D01*
X174166123Y-77786720D01*
X174161665Y-77785293D01*
X173903693Y-77743279D01*
X173789942Y-77741790D01*
X173647022Y-77739919D01*
X173647019Y-77739919D01*
X173642345Y-77739858D01*
X173383362Y-77775104D01*
X173132433Y-77848243D01*
X173117535Y-77855111D01*
X173047298Y-77865468D01*
X172982612Y-77836208D01*
X172975686Y-77829782D01*
X168153652Y-73007747D01*
X168146112Y-72999461D01*
X168142000Y-72992982D01*
X168092348Y-72946356D01*
X168089507Y-72943602D01*
X168069770Y-72923865D01*
X168066573Y-72921385D01*
X168057551Y-72913680D01*
X168025321Y-72883414D01*
X168018375Y-72879595D01*
X168018372Y-72879593D01*
X168007566Y-72873652D01*
X167991047Y-72862801D01*
X167990583Y-72862441D01*
X167975041Y-72850386D01*
X167967772Y-72847241D01*
X167967768Y-72847238D01*
X167934463Y-72832826D01*
X167923813Y-72827609D01*
X167885060Y-72806305D01*
X167865437Y-72801267D01*
X167846734Y-72794863D01*
X167835420Y-72789967D01*
X167835419Y-72789967D01*
X167828145Y-72786819D01*
X167820322Y-72785580D01*
X167820312Y-72785577D01*
X167784476Y-72779901D01*
X167772856Y-72777495D01*
X167737711Y-72768472D01*
X167737710Y-72768472D01*
X167730030Y-72766500D01*
X167709776Y-72766500D01*
X167690065Y-72764949D01*
X167677886Y-72763020D01*
X167670057Y-72761780D01*
X167662165Y-72762526D01*
X167626039Y-72765941D01*
X167614181Y-72766500D01*
X160634500Y-72766500D01*
X160566379Y-72746498D01*
X160519886Y-72692842D01*
X160508500Y-72640500D01*
X160508500Y-69634500D01*
X160528502Y-69566379D01*
X160582158Y-69519886D01*
X160634500Y-69508500D01*
X180665500Y-69508500D01*
X180733621Y-69528502D01*
X180780114Y-69582158D01*
X180791500Y-69634500D01*
X180791500Y-80991377D01*
X180791498Y-80992147D01*
X180791024Y-81069721D01*
X180793491Y-81078352D01*
X180799150Y-81098153D01*
X180802728Y-81114915D01*
X180806920Y-81144187D01*
X180816168Y-81164526D01*
X180817548Y-81167562D01*
X180823996Y-81185086D01*
X180831051Y-81209771D01*
X180835843Y-81217365D01*
X180835844Y-81217368D01*
X180846830Y-81234780D01*
X180854969Y-81249863D01*
X180867208Y-81276782D01*
X180873069Y-81283584D01*
X180883970Y-81296235D01*
X180895073Y-81311239D01*
X180908776Y-81332958D01*
X180915501Y-81338897D01*
X180915504Y-81338901D01*
X180930938Y-81352532D01*
X180942982Y-81364724D01*
X180956427Y-81380327D01*
X180956430Y-81380329D01*
X180962287Y-81387127D01*
X180969816Y-81392007D01*
X180969817Y-81392008D01*
X180983835Y-81401094D01*
X180998709Y-81412385D01*
X181011217Y-81423431D01*
X181017951Y-81429378D01*
X181044711Y-81441942D01*
X181059691Y-81450263D01*
X181076983Y-81461471D01*
X181076988Y-81461473D01*
X181084515Y-81466352D01*
X181093108Y-81468922D01*
X181093113Y-81468924D01*
X181109120Y-81473711D01*
X181126564Y-81480372D01*
X181141676Y-81487467D01*
X181141678Y-81487468D01*
X181149800Y-81491281D01*
X181158667Y-81492662D01*
X181158668Y-81492662D01*
X181160974Y-81493021D01*
X181179017Y-81495830D01*
X181195732Y-81499613D01*
X181215466Y-81505515D01*
X181215472Y-81505516D01*
X181224066Y-81508086D01*
X181233037Y-81508141D01*
X181233038Y-81508141D01*
X181243097Y-81508202D01*
X181258506Y-81508296D01*
X181259289Y-81508329D01*
X181260386Y-81508500D01*
X181291377Y-81508500D01*
X181292147Y-81508502D01*
X181365785Y-81508952D01*
X181365786Y-81508952D01*
X181369721Y-81508976D01*
X181371065Y-81508592D01*
X181372410Y-81508500D01*
X186165500Y-81508500D01*
X186233621Y-81528502D01*
X186280114Y-81582158D01*
X186291500Y-81634500D01*
X186291500Y-97365500D01*
X186271498Y-97433621D01*
X186217842Y-97480114D01*
X186165500Y-97491500D01*
X181308623Y-97491500D01*
X181307853Y-97491498D01*
X181307037Y-97491493D01*
X181230279Y-97491024D01*
X181212928Y-97495983D01*
X181201847Y-97499150D01*
X181185085Y-97502728D01*
X181155813Y-97506920D01*
X181147645Y-97510634D01*
X181147644Y-97510634D01*
X181132438Y-97517548D01*
X181114914Y-97523996D01*
X181090229Y-97531051D01*
X181082635Y-97535843D01*
X181082632Y-97535844D01*
X181065220Y-97546830D01*
X181050137Y-97554969D01*
X181023218Y-97567208D01*
X181016416Y-97573069D01*
X181003765Y-97583970D01*
X180988761Y-97595073D01*
X180967042Y-97608776D01*
X180961103Y-97615501D01*
X180961099Y-97615504D01*
X180947468Y-97630938D01*
X180935276Y-97642982D01*
X180919673Y-97656427D01*
X180919671Y-97656430D01*
X180912873Y-97662287D01*
X180907993Y-97669816D01*
X180907992Y-97669817D01*
X180898906Y-97683835D01*
X180887615Y-97698709D01*
X180876569Y-97711217D01*
X180870622Y-97717951D01*
X180858058Y-97744711D01*
X180849737Y-97759691D01*
X180838529Y-97776983D01*
X180838527Y-97776988D01*
X180833648Y-97784515D01*
X180831078Y-97793108D01*
X180831076Y-97793113D01*
X180826289Y-97809120D01*
X180819628Y-97826564D01*
X180812533Y-97841676D01*
X180808719Y-97849800D01*
X180807338Y-97858667D01*
X180807338Y-97858668D01*
X180804170Y-97879015D01*
X180800387Y-97895732D01*
X180794485Y-97915466D01*
X180794484Y-97915472D01*
X180791914Y-97924066D01*
X180791859Y-97933037D01*
X180791859Y-97933038D01*
X180791704Y-97958497D01*
X180791671Y-97959289D01*
X180791500Y-97960386D01*
X180791500Y-97991377D01*
X180791498Y-97992147D01*
X180791024Y-98069721D01*
X180791408Y-98071065D01*
X180791500Y-98072410D01*
X180791500Y-109365500D01*
X180771498Y-109433621D01*
X180717842Y-109480114D01*
X180665500Y-109491500D01*
X166451266Y-109491500D01*
X166383145Y-109471498D01*
X166336652Y-109417842D01*
X166326548Y-109347568D01*
X166356042Y-109282988D01*
X166378744Y-109264044D01*
X166378273Y-109263437D01*
X166384534Y-109258580D01*
X166391362Y-109254542D01*
X166405683Y-109240221D01*
X166420717Y-109227380D01*
X166422432Y-109226134D01*
X166437107Y-109215472D01*
X166465298Y-109181395D01*
X166473288Y-109172616D01*
X168395905Y-107250000D01*
X176986835Y-107250000D01*
X177005465Y-107486711D01*
X177006619Y-107491518D01*
X177006620Y-107491524D01*
X177011308Y-107511050D01*
X177060895Y-107717594D01*
X177151760Y-107936963D01*
X177154346Y-107941183D01*
X177273241Y-108135202D01*
X177273245Y-108135208D01*
X177275824Y-108139416D01*
X177430031Y-108319969D01*
X177433787Y-108323177D01*
X177438504Y-108327206D01*
X177610584Y-108474176D01*
X177614792Y-108476755D01*
X177614798Y-108476759D01*
X177808817Y-108595654D01*
X177813037Y-108598240D01*
X177817607Y-108600133D01*
X177817611Y-108600135D01*
X178027833Y-108687211D01*
X178032406Y-108689105D01*
X178099967Y-108705325D01*
X178258476Y-108743380D01*
X178258482Y-108743381D01*
X178263289Y-108744535D01*
X178500000Y-108763165D01*
X178736711Y-108744535D01*
X178741518Y-108743381D01*
X178741524Y-108743380D01*
X178900033Y-108705325D01*
X178967594Y-108689105D01*
X178972167Y-108687211D01*
X179182389Y-108600135D01*
X179182393Y-108600133D01*
X179186963Y-108598240D01*
X179191183Y-108595654D01*
X179385202Y-108476759D01*
X179385208Y-108476755D01*
X179389416Y-108474176D01*
X179561496Y-108327206D01*
X179566213Y-108323177D01*
X179569969Y-108319969D01*
X179724176Y-108139416D01*
X179726755Y-108135208D01*
X179726759Y-108135202D01*
X179845654Y-107941183D01*
X179848240Y-107936963D01*
X179939105Y-107717594D01*
X179988692Y-107511050D01*
X179993380Y-107491524D01*
X179993381Y-107491518D01*
X179994535Y-107486711D01*
X180013165Y-107250000D01*
X179994535Y-107013289D01*
X179992960Y-107006726D01*
X179940260Y-106787218D01*
X179939105Y-106782406D01*
X179895632Y-106677452D01*
X179850135Y-106567611D01*
X179850133Y-106567607D01*
X179848240Y-106563037D01*
X179845654Y-106558817D01*
X179726759Y-106364798D01*
X179726755Y-106364792D01*
X179724176Y-106360584D01*
X179569969Y-106180031D01*
X179389416Y-106025824D01*
X179385208Y-106023245D01*
X179385202Y-106023241D01*
X179191183Y-105904346D01*
X179186963Y-105901760D01*
X179182393Y-105899867D01*
X179182389Y-105899865D01*
X178972167Y-105812789D01*
X178972165Y-105812788D01*
X178967594Y-105810895D01*
X178887391Y-105791640D01*
X178741524Y-105756620D01*
X178741518Y-105756619D01*
X178736711Y-105755465D01*
X178500000Y-105736835D01*
X178263289Y-105755465D01*
X178258482Y-105756619D01*
X178258476Y-105756620D01*
X178112609Y-105791640D01*
X178032406Y-105810895D01*
X178027835Y-105812788D01*
X178027833Y-105812789D01*
X177817611Y-105899865D01*
X177817607Y-105899867D01*
X177813037Y-105901760D01*
X177808817Y-105904346D01*
X177614798Y-106023241D01*
X177614792Y-106023245D01*
X177610584Y-106025824D01*
X177430031Y-106180031D01*
X177275824Y-106360584D01*
X177273245Y-106364792D01*
X177273241Y-106364798D01*
X177154346Y-106558817D01*
X177151760Y-106563037D01*
X177149867Y-106567607D01*
X177149865Y-106567611D01*
X177104368Y-106677452D01*
X177060895Y-106782406D01*
X177059740Y-106787218D01*
X177007041Y-107006726D01*
X177005465Y-107013289D01*
X176986835Y-107250000D01*
X168395905Y-107250000D01*
X169342253Y-106303652D01*
X169350539Y-106296112D01*
X169357018Y-106292000D01*
X169403644Y-106242348D01*
X169406398Y-106239507D01*
X169426135Y-106219770D01*
X169428615Y-106216573D01*
X169436320Y-106207551D01*
X169461159Y-106181100D01*
X169466586Y-106175321D01*
X169470405Y-106168375D01*
X169470407Y-106168372D01*
X169476348Y-106157566D01*
X169487199Y-106141047D01*
X169494758Y-106131301D01*
X169499614Y-106125041D01*
X169502759Y-106117772D01*
X169502762Y-106117768D01*
X169517174Y-106084463D01*
X169522391Y-106073813D01*
X169543695Y-106035060D01*
X169546067Y-106025824D01*
X169548733Y-106015438D01*
X169555137Y-105996734D01*
X169560033Y-105985420D01*
X169560033Y-105985419D01*
X169563181Y-105978145D01*
X169564420Y-105970322D01*
X169564423Y-105970312D01*
X169570099Y-105934476D01*
X169572505Y-105922856D01*
X169581528Y-105887711D01*
X169581528Y-105887710D01*
X169583500Y-105880030D01*
X169583500Y-105859776D01*
X169585051Y-105840065D01*
X169586980Y-105827886D01*
X169588220Y-105820057D01*
X169584059Y-105776038D01*
X169583500Y-105764181D01*
X169583500Y-95419669D01*
X182417001Y-95419669D01*
X182417371Y-95426490D01*
X182422895Y-95477352D01*
X182426521Y-95492604D01*
X182471676Y-95613054D01*
X182480214Y-95628649D01*
X182556715Y-95730724D01*
X182569276Y-95743285D01*
X182671351Y-95819786D01*
X182686946Y-95828324D01*
X182807394Y-95873478D01*
X182822649Y-95877105D01*
X182873514Y-95882631D01*
X182880328Y-95883000D01*
X183527885Y-95883000D01*
X183543124Y-95878525D01*
X183544329Y-95877135D01*
X183546000Y-95869452D01*
X183546000Y-95864884D01*
X184054000Y-95864884D01*
X184058475Y-95880123D01*
X184059865Y-95881328D01*
X184067548Y-95882999D01*
X184719669Y-95882999D01*
X184726490Y-95882629D01*
X184777352Y-95877105D01*
X184792604Y-95873479D01*
X184913054Y-95828324D01*
X184928649Y-95819786D01*
X185030724Y-95743285D01*
X185043285Y-95730724D01*
X185119786Y-95628649D01*
X185128324Y-95613054D01*
X185173478Y-95492606D01*
X185177105Y-95477351D01*
X185182631Y-95426486D01*
X185183000Y-95419672D01*
X185183000Y-94772115D01*
X185178525Y-94756876D01*
X185177135Y-94755671D01*
X185169452Y-94754000D01*
X184072115Y-94754000D01*
X184056876Y-94758475D01*
X184055671Y-94759865D01*
X184054000Y-94767548D01*
X184054000Y-95864884D01*
X183546000Y-95864884D01*
X183546000Y-94772115D01*
X183541525Y-94756876D01*
X183540135Y-94755671D01*
X183532452Y-94754000D01*
X182435116Y-94754000D01*
X182419877Y-94758475D01*
X182418672Y-94759865D01*
X182417001Y-94767548D01*
X182417001Y-95419669D01*
X169583500Y-95419669D01*
X169583500Y-87164594D01*
X169603502Y-87096473D01*
X169620405Y-87075499D01*
X170092247Y-86603657D01*
X170100537Y-86596113D01*
X170107018Y-86592000D01*
X170126749Y-86570989D01*
X170153658Y-86542333D01*
X170156413Y-86539491D01*
X170176134Y-86519770D01*
X170178612Y-86516575D01*
X170186318Y-86507553D01*
X170211158Y-86481101D01*
X170216586Y-86475321D01*
X170226346Y-86457568D01*
X170237199Y-86441045D01*
X170244753Y-86431306D01*
X170249613Y-86425041D01*
X170267176Y-86384457D01*
X170272383Y-86373827D01*
X170293695Y-86335060D01*
X170295666Y-86327383D01*
X170295668Y-86327378D01*
X170298732Y-86315442D01*
X170305138Y-86296730D01*
X170310033Y-86285419D01*
X170313181Y-86278145D01*
X170314421Y-86270317D01*
X170314423Y-86270310D01*
X170320099Y-86234476D01*
X170322505Y-86222856D01*
X170331528Y-86187711D01*
X170331528Y-86187710D01*
X170333500Y-86180030D01*
X170333500Y-86159776D01*
X170335051Y-86140065D01*
X170336980Y-86127886D01*
X170338220Y-86120057D01*
X170334059Y-86076038D01*
X170333500Y-86064181D01*
X170333500Y-84750000D01*
X173986835Y-84750000D01*
X174005465Y-84986711D01*
X174006619Y-84991518D01*
X174006620Y-84991524D01*
X174028254Y-85081636D01*
X174060895Y-85217594D01*
X174062788Y-85222165D01*
X174062789Y-85222167D01*
X174143050Y-85415934D01*
X174151760Y-85436963D01*
X174154346Y-85441183D01*
X174273241Y-85635202D01*
X174273245Y-85635208D01*
X174275824Y-85639416D01*
X174430031Y-85819969D01*
X174610584Y-85974176D01*
X174614792Y-85976755D01*
X174614798Y-85976759D01*
X174769659Y-86071658D01*
X174813037Y-86098240D01*
X174817607Y-86100133D01*
X174817611Y-86100135D01*
X175027833Y-86187211D01*
X175032406Y-86189105D01*
X175077025Y-86199817D01*
X175258476Y-86243380D01*
X175258482Y-86243381D01*
X175263289Y-86244535D01*
X175500000Y-86263165D01*
X175736711Y-86244535D01*
X175741518Y-86243381D01*
X175741524Y-86243380D01*
X175922975Y-86199817D01*
X175967594Y-86189105D01*
X175972167Y-86187211D01*
X176182389Y-86100135D01*
X176182393Y-86100133D01*
X176186963Y-86098240D01*
X176230341Y-86071658D01*
X176385202Y-85976759D01*
X176385208Y-85976755D01*
X176389416Y-85974176D01*
X176569969Y-85819969D01*
X176724176Y-85639416D01*
X176726755Y-85635208D01*
X176726759Y-85635202D01*
X176845654Y-85441183D01*
X176848240Y-85436963D01*
X176856951Y-85415934D01*
X176883591Y-85351618D01*
X176928139Y-85296337D01*
X176995503Y-85273916D01*
X177064294Y-85291474D01*
X177112672Y-85343436D01*
X177116409Y-85351618D01*
X177143050Y-85415934D01*
X177151760Y-85436963D01*
X177154346Y-85441183D01*
X177273241Y-85635202D01*
X177273245Y-85635208D01*
X177275824Y-85639416D01*
X177430031Y-85819969D01*
X177610584Y-85974176D01*
X177614792Y-85976755D01*
X177614798Y-85976759D01*
X177806335Y-86094133D01*
X177853966Y-86146781D01*
X177866500Y-86201566D01*
X177866500Y-86621233D01*
X177865973Y-86632416D01*
X177864298Y-86639909D01*
X177864547Y-86647835D01*
X177864547Y-86647836D01*
X177866438Y-86707986D01*
X177866500Y-86711945D01*
X177866500Y-86739856D01*
X177866997Y-86743790D01*
X177866997Y-86743791D01*
X177867005Y-86743856D01*
X177867938Y-86755693D01*
X177869327Y-86799889D01*
X177872246Y-86809935D01*
X177874978Y-86819339D01*
X177878987Y-86838700D01*
X177881526Y-86858797D01*
X177884445Y-86866168D01*
X177884445Y-86866170D01*
X177897804Y-86899912D01*
X177901649Y-86911142D01*
X177913982Y-86953593D01*
X177918015Y-86960412D01*
X177918017Y-86960417D01*
X177924293Y-86971028D01*
X177932988Y-86988776D01*
X177940448Y-87007617D01*
X177945110Y-87014033D01*
X177945110Y-87014034D01*
X177966436Y-87043387D01*
X177972952Y-87053307D01*
X177986077Y-87075499D01*
X177995458Y-87091362D01*
X178009779Y-87105683D01*
X178022619Y-87120716D01*
X178034528Y-87137107D01*
X178040634Y-87142158D01*
X178068605Y-87165298D01*
X178077384Y-87173288D01*
X182429464Y-91525369D01*
X182463490Y-91587681D01*
X182461787Y-91648135D01*
X182437728Y-91734891D01*
X182437727Y-91734897D01*
X182436348Y-91739869D01*
X182435800Y-91744997D01*
X182435799Y-91745002D01*
X182414414Y-91945108D01*
X182412172Y-91966082D01*
X182412469Y-91971234D01*
X182412469Y-91971238D01*
X182415453Y-92022993D01*
X182425268Y-92193206D01*
X182426405Y-92198252D01*
X182426406Y-92198258D01*
X182436086Y-92241209D01*
X182475283Y-92415141D01*
X182560875Y-92625927D01*
X182679744Y-92819904D01*
X182787000Y-92943723D01*
X182792942Y-92950583D01*
X182822424Y-93015169D01*
X182812309Y-93085441D01*
X182765808Y-93139089D01*
X182741933Y-93151062D01*
X182686948Y-93171675D01*
X182671351Y-93180214D01*
X182569276Y-93256715D01*
X182556715Y-93269276D01*
X182480214Y-93371351D01*
X182471676Y-93386946D01*
X182426522Y-93507394D01*
X182422895Y-93522649D01*
X182417369Y-93573514D01*
X182417000Y-93580328D01*
X182417000Y-94227885D01*
X182421475Y-94243124D01*
X182422865Y-94244329D01*
X182430548Y-94246000D01*
X185164884Y-94246000D01*
X185180123Y-94241525D01*
X185181328Y-94240135D01*
X185182999Y-94232452D01*
X185182999Y-93580331D01*
X185182629Y-93573510D01*
X185177105Y-93522648D01*
X185173479Y-93507396D01*
X185128324Y-93386946D01*
X185119786Y-93371351D01*
X185043285Y-93269276D01*
X185030724Y-93256715D01*
X184928649Y-93180214D01*
X184913054Y-93171676D01*
X184857781Y-93150955D01*
X184801017Y-93108313D01*
X184776317Y-93041752D01*
X184791524Y-92972403D01*
X184813070Y-92943723D01*
X184853539Y-92903395D01*
X184853543Y-92903390D01*
X184857199Y-92899747D01*
X184911770Y-92823804D01*
X184986938Y-92719198D01*
X184986942Y-92719192D01*
X184989956Y-92714997D01*
X185090755Y-92511046D01*
X185156890Y-92293370D01*
X185157565Y-92288244D01*
X185186148Y-92071136D01*
X185186148Y-92071132D01*
X185186585Y-92067815D01*
X185188242Y-92000000D01*
X185169601Y-91773264D01*
X185114178Y-91552617D01*
X185031513Y-91362500D01*
X185025522Y-91348722D01*
X185025520Y-91348719D01*
X185023462Y-91343985D01*
X184920709Y-91185152D01*
X184902698Y-91157311D01*
X184902696Y-91157308D01*
X184899890Y-91152971D01*
X184746779Y-90984704D01*
X184617245Y-90882405D01*
X184572063Y-90846722D01*
X184531000Y-90788805D01*
X184527768Y-90717882D01*
X184563393Y-90656470D01*
X184576987Y-90645261D01*
X184696051Y-90560334D01*
X184857199Y-90399747D01*
X184924588Y-90305966D01*
X184986938Y-90219198D01*
X184986942Y-90219192D01*
X184989956Y-90214997D01*
X185090755Y-90011046D01*
X185156890Y-89793370D01*
X185158254Y-89783009D01*
X185186148Y-89571136D01*
X185186148Y-89571132D01*
X185186585Y-89567815D01*
X185188242Y-89500000D01*
X185169601Y-89273264D01*
X185114178Y-89052617D01*
X185053962Y-88914129D01*
X185025522Y-88848722D01*
X185025520Y-88848719D01*
X185023462Y-88843985D01*
X184931950Y-88702529D01*
X184902698Y-88657311D01*
X184902696Y-88657308D01*
X184899890Y-88652971D01*
X184746779Y-88484704D01*
X184582180Y-88354712D01*
X184572063Y-88346722D01*
X184531000Y-88288805D01*
X184527768Y-88217882D01*
X184563393Y-88156470D01*
X184576987Y-88145261D01*
X184581011Y-88142391D01*
X184696051Y-88060334D01*
X184857199Y-87899747D01*
X184886881Y-87858440D01*
X184986938Y-87719198D01*
X184986942Y-87719192D01*
X184989956Y-87714997D01*
X185079050Y-87534729D01*
X185088461Y-87515688D01*
X185088462Y-87515686D01*
X185090755Y-87511046D01*
X185156890Y-87293370D01*
X185170361Y-87191050D01*
X185186148Y-87071136D01*
X185186148Y-87071132D01*
X185186585Y-87067815D01*
X185186667Y-87064463D01*
X185188160Y-87003365D01*
X185188160Y-87003361D01*
X185188242Y-87000000D01*
X185169601Y-86773264D01*
X185114178Y-86552617D01*
X185041067Y-86384473D01*
X185025522Y-86348722D01*
X185025520Y-86348719D01*
X185023462Y-86343985D01*
X184906454Y-86163117D01*
X184902698Y-86157311D01*
X184902696Y-86157308D01*
X184899890Y-86152971D01*
X184746779Y-85984704D01*
X184644714Y-85904098D01*
X184572063Y-85846722D01*
X184531000Y-85788805D01*
X184527768Y-85717882D01*
X184563393Y-85656470D01*
X184576987Y-85645261D01*
X184696051Y-85560334D01*
X184857199Y-85399747D01*
X184870291Y-85381528D01*
X184986938Y-85219198D01*
X184986942Y-85219192D01*
X184989956Y-85214997D01*
X185090755Y-85011046D01*
X185156890Y-84793370D01*
X185160352Y-84767073D01*
X185186148Y-84571136D01*
X185186148Y-84571132D01*
X185186585Y-84567815D01*
X185188035Y-84508476D01*
X185188160Y-84503365D01*
X185188160Y-84503361D01*
X185188242Y-84500000D01*
X185169601Y-84273264D01*
X185114178Y-84052617D01*
X185031471Y-83862404D01*
X185025522Y-83848722D01*
X185025520Y-83848719D01*
X185023462Y-83843985D01*
X184916578Y-83678767D01*
X184902698Y-83657311D01*
X184902696Y-83657308D01*
X184899890Y-83652971D01*
X184746779Y-83484704D01*
X184568241Y-83343704D01*
X184530537Y-83322890D01*
X184474867Y-83292159D01*
X184369072Y-83233757D01*
X184364203Y-83232033D01*
X184364199Y-83232031D01*
X184159496Y-83159541D01*
X184159492Y-83159540D01*
X184154621Y-83157815D01*
X184149528Y-83156908D01*
X184149525Y-83156907D01*
X183935734Y-83118825D01*
X183935728Y-83118824D01*
X183930645Y-83117919D01*
X183857196Y-83117022D01*
X183708331Y-83115203D01*
X183708329Y-83115203D01*
X183703161Y-83115140D01*
X183478278Y-83149552D01*
X183262035Y-83220231D01*
X183257447Y-83222619D01*
X183257443Y-83222621D01*
X183090089Y-83309740D01*
X183060239Y-83325279D01*
X183056106Y-83328382D01*
X183056103Y-83328384D01*
X182882445Y-83458770D01*
X182878310Y-83461875D01*
X182874738Y-83465613D01*
X182727387Y-83619807D01*
X182721133Y-83626351D01*
X182592931Y-83814289D01*
X182590758Y-83818971D01*
X182590756Y-83818974D01*
X182505996Y-84001576D01*
X182497145Y-84020643D01*
X182461720Y-84148382D01*
X182440987Y-84223143D01*
X182436348Y-84239869D01*
X182435799Y-84245006D01*
X182415436Y-84435545D01*
X182412172Y-84466082D01*
X182412469Y-84471234D01*
X182412469Y-84471238D01*
X182415959Y-84531755D01*
X182425268Y-84693206D01*
X182426405Y-84698252D01*
X182426406Y-84698258D01*
X182446686Y-84788244D01*
X182475283Y-84915141D01*
X182560875Y-85125927D01*
X182679744Y-85319904D01*
X182683128Y-85323810D01*
X182683129Y-85323812D01*
X182710264Y-85355137D01*
X182828698Y-85491861D01*
X183003737Y-85637181D01*
X183008192Y-85639784D01*
X183008203Y-85639792D01*
X183012651Y-85642391D01*
X183061374Y-85694029D01*
X183074445Y-85763812D01*
X183047713Y-85829584D01*
X183024735Y-85851936D01*
X182878310Y-85961875D01*
X182874738Y-85965613D01*
X182746186Y-86100135D01*
X182721133Y-86126351D01*
X182592931Y-86314289D01*
X182590758Y-86318971D01*
X182590756Y-86318974D01*
X182506209Y-86501117D01*
X182497145Y-86520643D01*
X182464044Y-86640000D01*
X182438278Y-86732911D01*
X182436348Y-86739869D01*
X182435799Y-86745006D01*
X182413400Y-86954595D01*
X182412172Y-86966082D01*
X182412469Y-86971234D01*
X182412469Y-86971238D01*
X182414567Y-87007617D01*
X182425268Y-87193206D01*
X182426405Y-87198252D01*
X182426406Y-87198258D01*
X182446686Y-87288244D01*
X182475283Y-87415141D01*
X182560875Y-87625927D01*
X182679744Y-87819904D01*
X182828698Y-87991861D01*
X183003737Y-88137181D01*
X183008192Y-88139784D01*
X183008203Y-88139792D01*
X183012651Y-88142391D01*
X183061374Y-88194029D01*
X183074445Y-88263812D01*
X183047713Y-88329584D01*
X183024735Y-88351936D01*
X182952222Y-88406380D01*
X182901987Y-88444098D01*
X182878310Y-88461875D01*
X182874738Y-88465613D01*
X182727107Y-88620100D01*
X182721133Y-88626351D01*
X182592931Y-88814289D01*
X182590758Y-88818971D01*
X182590756Y-88818974D01*
X182537286Y-88934167D01*
X182497145Y-89020643D01*
X182436348Y-89239869D01*
X182416624Y-89424430D01*
X182416025Y-89430033D01*
X182388897Y-89495643D01*
X182330604Y-89536171D01*
X182259655Y-89538750D01*
X182201643Y-89505739D01*
X180779270Y-88083365D01*
X179170405Y-86474500D01*
X179136379Y-86412188D01*
X179133500Y-86385405D01*
X179133500Y-86201566D01*
X179153502Y-86133445D01*
X179193665Y-86094133D01*
X179385202Y-85976759D01*
X179385208Y-85976755D01*
X179389416Y-85974176D01*
X179569969Y-85819969D01*
X179724176Y-85639416D01*
X179726755Y-85635208D01*
X179726759Y-85635202D01*
X179845654Y-85441183D01*
X179848240Y-85436963D01*
X179856951Y-85415934D01*
X179937211Y-85222167D01*
X179937212Y-85222165D01*
X179939105Y-85217594D01*
X179971746Y-85081636D01*
X179993380Y-84991524D01*
X179993381Y-84991518D01*
X179994535Y-84986711D01*
X180013165Y-84750000D01*
X179994535Y-84513289D01*
X179992153Y-84503365D01*
X179940260Y-84287218D01*
X179939105Y-84282406D01*
X179935318Y-84273264D01*
X179850135Y-84067611D01*
X179850133Y-84067607D01*
X179848240Y-84063037D01*
X179813195Y-84005849D01*
X179726759Y-83864798D01*
X179726755Y-83864792D01*
X179724176Y-83860584D01*
X179569969Y-83680031D01*
X179389416Y-83525824D01*
X179385208Y-83523245D01*
X179385202Y-83523241D01*
X179191183Y-83404346D01*
X179186963Y-83401760D01*
X179182393Y-83399867D01*
X179182389Y-83399865D01*
X178972167Y-83312789D01*
X178972165Y-83312788D01*
X178967594Y-83310895D01*
X178868510Y-83287107D01*
X178741524Y-83256620D01*
X178741518Y-83256619D01*
X178736711Y-83255465D01*
X178500000Y-83236835D01*
X178263289Y-83255465D01*
X178258482Y-83256619D01*
X178258476Y-83256620D01*
X178131490Y-83287107D01*
X178032406Y-83310895D01*
X178027835Y-83312788D01*
X178027833Y-83312789D01*
X177817611Y-83399865D01*
X177817607Y-83399867D01*
X177813037Y-83401760D01*
X177808817Y-83404346D01*
X177614798Y-83523241D01*
X177614792Y-83523245D01*
X177610584Y-83525824D01*
X177430031Y-83680031D01*
X177275824Y-83860584D01*
X177273245Y-83864792D01*
X177273241Y-83864798D01*
X177186805Y-84005849D01*
X177151760Y-84063037D01*
X177149867Y-84067607D01*
X177149865Y-84067611D01*
X177116409Y-84148382D01*
X177071861Y-84203663D01*
X177004497Y-84226084D01*
X176935706Y-84208526D01*
X176887328Y-84156564D01*
X176883591Y-84148382D01*
X176850135Y-84067611D01*
X176850133Y-84067607D01*
X176848240Y-84063037D01*
X176813195Y-84005849D01*
X176726759Y-83864798D01*
X176726755Y-83864792D01*
X176724176Y-83860584D01*
X176569969Y-83680031D01*
X176389416Y-83525824D01*
X176385208Y-83523245D01*
X176385202Y-83523241D01*
X176191183Y-83404346D01*
X176186963Y-83401760D01*
X176182393Y-83399867D01*
X176182389Y-83399865D01*
X175972167Y-83312789D01*
X175972165Y-83312788D01*
X175967594Y-83310895D01*
X175868510Y-83287107D01*
X175741524Y-83256620D01*
X175741518Y-83256619D01*
X175736711Y-83255465D01*
X175500000Y-83236835D01*
X175263289Y-83255465D01*
X175258482Y-83256619D01*
X175258476Y-83256620D01*
X175131490Y-83287107D01*
X175032406Y-83310895D01*
X175027835Y-83312788D01*
X175027833Y-83312789D01*
X174817611Y-83399865D01*
X174817607Y-83399867D01*
X174813037Y-83401760D01*
X174808817Y-83404346D01*
X174614798Y-83523241D01*
X174614792Y-83523245D01*
X174610584Y-83525824D01*
X174430031Y-83680031D01*
X174275824Y-83860584D01*
X174273245Y-83864792D01*
X174273241Y-83864798D01*
X174186805Y-84005849D01*
X174151760Y-84063037D01*
X174149867Y-84067607D01*
X174149865Y-84067611D01*
X174064682Y-84273264D01*
X174060895Y-84282406D01*
X174059740Y-84287218D01*
X174007848Y-84503365D01*
X174005465Y-84513289D01*
X173986835Y-84750000D01*
X170333500Y-84750000D01*
X170333500Y-83678767D01*
X170334027Y-83667584D01*
X170335702Y-83660091D01*
X170333562Y-83592014D01*
X170333500Y-83588055D01*
X170333500Y-83560144D01*
X170332995Y-83556144D01*
X170332062Y-83544301D01*
X170331791Y-83535660D01*
X170331062Y-83512490D01*
X170330922Y-83508029D01*
X170330673Y-83500110D01*
X170325022Y-83480658D01*
X170321014Y-83461306D01*
X170319467Y-83449063D01*
X170318474Y-83441203D01*
X170313321Y-83428187D01*
X170302200Y-83400097D01*
X170298355Y-83388870D01*
X170297721Y-83386687D01*
X170286018Y-83346407D01*
X170281984Y-83339585D01*
X170281981Y-83339579D01*
X170275706Y-83328968D01*
X170267010Y-83311218D01*
X170262472Y-83299756D01*
X170262469Y-83299751D01*
X170259552Y-83292383D01*
X170241123Y-83267017D01*
X170233573Y-83256625D01*
X170227057Y-83246707D01*
X170212812Y-83222621D01*
X170204542Y-83208637D01*
X170190218Y-83194313D01*
X170177376Y-83179278D01*
X170165472Y-83162893D01*
X170131406Y-83134711D01*
X170122627Y-83126722D01*
X169620405Y-82624500D01*
X169586379Y-82562188D01*
X169583500Y-82535405D01*
X169583500Y-81224847D01*
X169603502Y-81156726D01*
X169659762Y-81109079D01*
X169685193Y-81098153D01*
X169764262Y-81064182D01*
X169801070Y-81041405D01*
X169982547Y-80929104D01*
X169982548Y-80929104D01*
X169986519Y-80926646D01*
X169990082Y-80923629D01*
X169990087Y-80923626D01*
X170182439Y-80760787D01*
X170182440Y-80760786D01*
X170186005Y-80757768D01*
X170277615Y-80653307D01*
X170355257Y-80564774D01*
X170355261Y-80564769D01*
X170358339Y-80561259D01*
X170369493Y-80543919D01*
X170462135Y-80399889D01*
X170499733Y-80341437D01*
X170607083Y-80103129D01*
X170646530Y-79963261D01*
X170676760Y-79856076D01*
X170676761Y-79856073D01*
X170678030Y-79851572D01*
X170695058Y-79717715D01*
X170710616Y-79595421D01*
X170710616Y-79595417D01*
X170711014Y-79592291D01*
X170713431Y-79500000D01*
X170709595Y-79448376D01*
X170694407Y-79244000D01*
X170694406Y-79243996D01*
X170694061Y-79239348D01*
X170690989Y-79225769D01*
X170637408Y-78988980D01*
X170636377Y-78984423D01*
X170572279Y-78819594D01*
X170543340Y-78745176D01*
X170543339Y-78745173D01*
X170541647Y-78740823D01*
X170535747Y-78730499D01*
X170493626Y-78656804D01*
X170411951Y-78513902D01*
X170250138Y-78308643D01*
X170059763Y-78129557D01*
X169881976Y-78006221D01*
X169848851Y-77983241D01*
X169848848Y-77983239D01*
X169845009Y-77980576D01*
X169840816Y-77978508D01*
X169614781Y-77867040D01*
X169614778Y-77867039D01*
X169610593Y-77864975D01*
X169571325Y-77852405D01*
X169366123Y-77786720D01*
X169361665Y-77785293D01*
X169103693Y-77743279D01*
X168989942Y-77741790D01*
X168847022Y-77739919D01*
X168847019Y-77739919D01*
X168842345Y-77739858D01*
X168583362Y-77775104D01*
X168332433Y-77848243D01*
X168328180Y-77850203D01*
X168328179Y-77850204D01*
X168295069Y-77865468D01*
X168095072Y-77957668D01*
X168056067Y-77983241D01*
X167880404Y-78098410D01*
X167880399Y-78098414D01*
X167876491Y-78100976D01*
X167681494Y-78275018D01*
X167514363Y-78475970D01*
X167511934Y-78479973D01*
X167445851Y-78588875D01*
X167378771Y-78699419D01*
X167277697Y-78940455D01*
X167213359Y-79193783D01*
X167212891Y-79198434D01*
X167212890Y-79198438D01*
X167207086Y-79256081D01*
X167187173Y-79453839D01*
X167187397Y-79458505D01*
X167187397Y-79458511D01*
X167193443Y-79584373D01*
X167199713Y-79714908D01*
X167250704Y-79971256D01*
X167339026Y-80217252D01*
X167347538Y-80233093D01*
X167441248Y-80407497D01*
X167462737Y-80447491D01*
X167465532Y-80451234D01*
X167465534Y-80451237D01*
X167616330Y-80653177D01*
X167616335Y-80653183D01*
X167619122Y-80656915D01*
X167622431Y-80660195D01*
X167622436Y-80660201D01*
X167762174Y-80798724D01*
X167804743Y-80840923D01*
X167808505Y-80843681D01*
X167808508Y-80843684D01*
X168011750Y-80992707D01*
X168015524Y-80995474D01*
X168019667Y-80997654D01*
X168019669Y-80997655D01*
X168246834Y-81117172D01*
X168246084Y-81118598D01*
X168295252Y-81159674D01*
X168316500Y-81229695D01*
X168316500Y-82771233D01*
X168315973Y-82782416D01*
X168314298Y-82789909D01*
X168314547Y-82797835D01*
X168314547Y-82797836D01*
X168316438Y-82857986D01*
X168316500Y-82861945D01*
X168316500Y-82889856D01*
X168316997Y-82893790D01*
X168316997Y-82893791D01*
X168317005Y-82893856D01*
X168317938Y-82905693D01*
X168319327Y-82949889D01*
X168324978Y-82969339D01*
X168328987Y-82988700D01*
X168331526Y-83008797D01*
X168334445Y-83016168D01*
X168334445Y-83016170D01*
X168347804Y-83049912D01*
X168351649Y-83061142D01*
X168361771Y-83095983D01*
X168363982Y-83103593D01*
X168368015Y-83110412D01*
X168368017Y-83110417D01*
X168374293Y-83121028D01*
X168382988Y-83138776D01*
X168390448Y-83157617D01*
X168395110Y-83164033D01*
X168395110Y-83164034D01*
X168416436Y-83193387D01*
X168422952Y-83203307D01*
X168439940Y-83232031D01*
X168445458Y-83241362D01*
X168459779Y-83255683D01*
X168472619Y-83270716D01*
X168484528Y-83287107D01*
X168490635Y-83292159D01*
X168498150Y-83298376D01*
X168537890Y-83357209D01*
X168539513Y-83428187D01*
X168502506Y-83488775D01*
X168438616Y-83519738D01*
X168368130Y-83511244D01*
X168352002Y-83502896D01*
X168191183Y-83404346D01*
X168186963Y-83401760D01*
X168182393Y-83399867D01*
X168182389Y-83399865D01*
X167972167Y-83312789D01*
X167972165Y-83312788D01*
X167967594Y-83310895D01*
X167868510Y-83287107D01*
X167741524Y-83256620D01*
X167741518Y-83256619D01*
X167736711Y-83255465D01*
X167500000Y-83236835D01*
X167263289Y-83255465D01*
X167258482Y-83256619D01*
X167258476Y-83256620D01*
X167131490Y-83287107D01*
X167032406Y-83310895D01*
X167027835Y-83312788D01*
X167027833Y-83312789D01*
X166817611Y-83399865D01*
X166817607Y-83399867D01*
X166813037Y-83401760D01*
X166808817Y-83404346D01*
X166614798Y-83523241D01*
X166614792Y-83523245D01*
X166610584Y-83525824D01*
X166430031Y-83680031D01*
X166275824Y-83860584D01*
X166273245Y-83864792D01*
X166273241Y-83864798D01*
X166186805Y-84005849D01*
X166151760Y-84063037D01*
X166149867Y-84067607D01*
X166149865Y-84067611D01*
X166116409Y-84148382D01*
X166071861Y-84203663D01*
X166004497Y-84226084D01*
X165935706Y-84208526D01*
X165887328Y-84156564D01*
X165883591Y-84148382D01*
X165850135Y-84067611D01*
X165850133Y-84067607D01*
X165848240Y-84063037D01*
X165813195Y-84005849D01*
X165726759Y-83864798D01*
X165726755Y-83864792D01*
X165724176Y-83860584D01*
X165569969Y-83680031D01*
X165389416Y-83525824D01*
X165385208Y-83523245D01*
X165385202Y-83523241D01*
X165191183Y-83404346D01*
X165186963Y-83401760D01*
X165182393Y-83399867D01*
X165182389Y-83399865D01*
X164972167Y-83312789D01*
X164972165Y-83312788D01*
X164967594Y-83310895D01*
X164868510Y-83287107D01*
X164741524Y-83256620D01*
X164741518Y-83256619D01*
X164736711Y-83255465D01*
X164500000Y-83236835D01*
X164263289Y-83255465D01*
X164258482Y-83256619D01*
X164258476Y-83256620D01*
X164131490Y-83287107D01*
X164032406Y-83310895D01*
X164027835Y-83312788D01*
X164027833Y-83312789D01*
X163817611Y-83399865D01*
X163817607Y-83399867D01*
X163813037Y-83401760D01*
X163808817Y-83404346D01*
X163614798Y-83523241D01*
X163614792Y-83523245D01*
X163610584Y-83525824D01*
X163430031Y-83680031D01*
X163275824Y-83860584D01*
X163273242Y-83864797D01*
X163273235Y-83864807D01*
X163162006Y-84046315D01*
X163109359Y-84093946D01*
X163039317Y-84105553D01*
X162974120Y-84077450D01*
X162965479Y-84069575D01*
X158764054Y-79868149D01*
X158730028Y-79805837D01*
X158735093Y-79735021D01*
X158771318Y-79683243D01*
X158820898Y-79640898D01*
X158862413Y-79592291D01*
X158938538Y-79503160D01*
X158985328Y-79448376D01*
X159117616Y-79232502D01*
X159133671Y-79193743D01*
X159212611Y-79003164D01*
X159212612Y-79003162D01*
X159214505Y-78998591D01*
X159257478Y-78819594D01*
X159272454Y-78757216D01*
X159272455Y-78757210D01*
X159273609Y-78752403D01*
X159293474Y-78500000D01*
X159273609Y-78247597D01*
X159214505Y-78001409D01*
X159196387Y-77957668D01*
X159119511Y-77772072D01*
X159119509Y-77772068D01*
X159117616Y-77767498D01*
X158985328Y-77551624D01*
X158820898Y-77359102D01*
X158628376Y-77194672D01*
X158412502Y-77062384D01*
X158407932Y-77060491D01*
X158407928Y-77060489D01*
X158183164Y-76967389D01*
X158183162Y-76967388D01*
X158178591Y-76965495D01*
X158093968Y-76945179D01*
X157937216Y-76907546D01*
X157937210Y-76907545D01*
X157932403Y-76906391D01*
X157680000Y-76886526D01*
X157427597Y-76906391D01*
X157422790Y-76907545D01*
X157422784Y-76907546D01*
X157266032Y-76945179D01*
X157181409Y-76965495D01*
X157176838Y-76967388D01*
X157176836Y-76967389D01*
X156952072Y-77060489D01*
X156952068Y-77060491D01*
X156947498Y-77062384D01*
X156731624Y-77194672D01*
X156539102Y-77359102D01*
X156374672Y-77551624D01*
X156242384Y-77767498D01*
X156240491Y-77772068D01*
X156240489Y-77772072D01*
X156163613Y-77957668D01*
X156145495Y-78001409D01*
X156086391Y-78247597D01*
X156066526Y-78500000D01*
X156086391Y-78752403D01*
X156087545Y-78757210D01*
X156087546Y-78757216D01*
X156102522Y-78819594D01*
X156145495Y-78998591D01*
X156147388Y-79003162D01*
X156147389Y-79003164D01*
X156226330Y-79193743D01*
X156242384Y-79232502D01*
X156374672Y-79448376D01*
X156539102Y-79640898D01*
X156731624Y-79805328D01*
X156947498Y-79937616D01*
X156952068Y-79939509D01*
X156952072Y-79939511D01*
X157105821Y-80003196D01*
X157161102Y-80047745D01*
X157166055Y-80055463D01*
X157175458Y-80071362D01*
X157189779Y-80085683D01*
X157202619Y-80100716D01*
X157214528Y-80117107D01*
X157220634Y-80122158D01*
X157248605Y-80145298D01*
X157257384Y-80153288D01*
X157335348Y-80231252D01*
X157369374Y-80293564D01*
X157364309Y-80364379D01*
X157321762Y-80421215D01*
X157275668Y-80442866D01*
X157181409Y-80465495D01*
X157176838Y-80467388D01*
X157176836Y-80467389D01*
X156952072Y-80560489D01*
X156952068Y-80560491D01*
X156947498Y-80562384D01*
X156731624Y-80694672D01*
X156539102Y-80859102D01*
X156374672Y-81051624D01*
X156242384Y-81267498D01*
X156240491Y-81272068D01*
X156240489Y-81272072D01*
X156156968Y-81473711D01*
X156145495Y-81501409D01*
X156138991Y-81528502D01*
X156100728Y-81687880D01*
X156086391Y-81747597D01*
X156066526Y-82000000D01*
X156086391Y-82252403D01*
X156087545Y-82257210D01*
X156087546Y-82257216D01*
X156122866Y-82404333D01*
X156145495Y-82498591D01*
X156147388Y-82503162D01*
X156147389Y-82503164D01*
X156230532Y-82703888D01*
X156242384Y-82732502D01*
X156374672Y-82948376D01*
X156517156Y-83115203D01*
X156526995Y-83126722D01*
X156539102Y-83140898D01*
X156731624Y-83305328D01*
X156947498Y-83437616D01*
X156952068Y-83439509D01*
X156952072Y-83439511D01*
X157168203Y-83529035D01*
X157181409Y-83534505D01*
X157246951Y-83550240D01*
X157422784Y-83592454D01*
X157422790Y-83592455D01*
X157427597Y-83593609D01*
X157680000Y-83613474D01*
X157932403Y-83593609D01*
X157937210Y-83592455D01*
X157937216Y-83592454D01*
X158113049Y-83550240D01*
X158178591Y-83534505D01*
X158199812Y-83525715D01*
X158270402Y-83518126D01*
X158337125Y-83553029D01*
X159101077Y-84316981D01*
X159135103Y-84379293D01*
X159130038Y-84450108D01*
X159087491Y-84506944D01*
X159020971Y-84531755D01*
X159011330Y-84532074D01*
X158913616Y-84531562D01*
X158761583Y-84530765D01*
X158761576Y-84530765D01*
X158757297Y-84530743D01*
X158753053Y-84531302D01*
X158753049Y-84531302D01*
X158627660Y-84547810D01*
X158472266Y-84568268D01*
X158468126Y-84569401D01*
X158468124Y-84569401D01*
X158415900Y-84583688D01*
X158194964Y-84644129D01*
X158191016Y-84645813D01*
X157934476Y-84755237D01*
X157934472Y-84755239D01*
X157930524Y-84756923D01*
X157869626Y-84793370D01*
X157687521Y-84902357D01*
X157687517Y-84902360D01*
X157683839Y-84904561D01*
X157459472Y-85084313D01*
X157364345Y-85184556D01*
X157266941Y-85287199D01*
X157261577Y-85292851D01*
X157093814Y-85526317D01*
X156959288Y-85780392D01*
X156957813Y-85784423D01*
X156869247Y-86026442D01*
X156860489Y-86050373D01*
X156799245Y-86331264D01*
X156794042Y-86397370D01*
X156779180Y-86586223D01*
X156776689Y-86617869D01*
X156793238Y-86904883D01*
X156794063Y-86909088D01*
X156794064Y-86909096D01*
X156824546Y-87064463D01*
X156848586Y-87186995D01*
X156849973Y-87191045D01*
X156849974Y-87191050D01*
X156930984Y-87427658D01*
X156941710Y-87458986D01*
X156970228Y-87515688D01*
X157064836Y-87703794D01*
X157070885Y-87715822D01*
X157233721Y-87952750D01*
X157236608Y-87955923D01*
X157236609Y-87955924D01*
X157406280Y-88142391D01*
X157427206Y-88165388D01*
X157430501Y-88168143D01*
X157430502Y-88168144D01*
X157640471Y-88343704D01*
X157647759Y-88349798D01*
X157891298Y-88502571D01*
X158153318Y-88620877D01*
X158157437Y-88622097D01*
X158424857Y-88701311D01*
X158424862Y-88701312D01*
X158428970Y-88702529D01*
X158433204Y-88703177D01*
X158433209Y-88703178D01*
X158672649Y-88739817D01*
X158713153Y-88746015D01*
X158859485Y-88748314D01*
X158996317Y-88750464D01*
X158996323Y-88750464D01*
X159000608Y-88750531D01*
X159004860Y-88750016D01*
X159004868Y-88750016D01*
X159281756Y-88716508D01*
X159281761Y-88716507D01*
X159286017Y-88715992D01*
X159418232Y-88681306D01*
X159559954Y-88644126D01*
X159559955Y-88644126D01*
X159564097Y-88643039D01*
X159829704Y-88533021D01*
X160077922Y-88387974D01*
X160304159Y-88210582D01*
X160345285Y-88168144D01*
X160501244Y-88007206D01*
X160504227Y-88004128D01*
X160506760Y-88000680D01*
X160506764Y-88000675D01*
X160671887Y-87775886D01*
X160674425Y-87772431D01*
X160811604Y-87519779D01*
X160913225Y-87250848D01*
X160943029Y-87120717D01*
X160976449Y-86974797D01*
X160976450Y-86974793D01*
X160977407Y-86970613D01*
X160977812Y-86966082D01*
X161002743Y-86686726D01*
X161002743Y-86686724D01*
X161002963Y-86684260D01*
X161003427Y-86640000D01*
X161001627Y-86613598D01*
X160995511Y-86523883D01*
X161010833Y-86454559D01*
X161061202Y-86404525D01*
X161130627Y-86389665D01*
X161197064Y-86414697D01*
X161210314Y-86426218D01*
X163829595Y-89045499D01*
X163863621Y-89107811D01*
X163866500Y-89134594D01*
X163866500Y-105798434D01*
X163846498Y-105866555D01*
X163806335Y-105905867D01*
X163614798Y-106023241D01*
X163614792Y-106023245D01*
X163610584Y-106025824D01*
X163430031Y-106180031D01*
X163275824Y-106360584D01*
X163273245Y-106364792D01*
X163273241Y-106364798D01*
X163154346Y-106558817D01*
X163151760Y-106563037D01*
X163149867Y-106567607D01*
X163149865Y-106567611D01*
X163104368Y-106677452D01*
X163060895Y-106782406D01*
X163059740Y-106787218D01*
X163059739Y-106787221D01*
X163039350Y-106872149D01*
X163003998Y-106933719D01*
X162940972Y-106966402D01*
X162870281Y-106959822D01*
X162827736Y-106931831D01*
X160253652Y-104357747D01*
X160246112Y-104349461D01*
X160242000Y-104342982D01*
X160192348Y-104296356D01*
X160189507Y-104293602D01*
X160169770Y-104273865D01*
X160166573Y-104271385D01*
X160157551Y-104263680D01*
X160131100Y-104238841D01*
X160125321Y-104233414D01*
X160118375Y-104229595D01*
X160118372Y-104229593D01*
X160107566Y-104223652D01*
X160091047Y-104212801D01*
X160090583Y-104212441D01*
X160075041Y-104200386D01*
X160067771Y-104197240D01*
X160067766Y-104197237D01*
X160051671Y-104190272D01*
X159997097Y-104144861D01*
X159975738Y-104077153D01*
X159994375Y-104008647D01*
X159999390Y-104001110D01*
X160088979Y-103876433D01*
X160091997Y-103872233D01*
X160193816Y-103666217D01*
X160209739Y-103613808D01*
X160259117Y-103451291D01*
X160259118Y-103451285D01*
X160260621Y-103446339D01*
X160290616Y-103218502D01*
X160292290Y-103150000D01*
X160286058Y-103074194D01*
X160273884Y-102926121D01*
X160273883Y-102926115D01*
X160273460Y-102920970D01*
X160217477Y-102698090D01*
X160125843Y-102487347D01*
X160122549Y-102482255D01*
X160003830Y-102298743D01*
X160003828Y-102298740D01*
X160001020Y-102294400D01*
X159846359Y-102124430D01*
X159842308Y-102121231D01*
X159842304Y-102121227D01*
X159670069Y-101985204D01*
X159670064Y-101985201D01*
X159666015Y-101982003D01*
X159665590Y-101981768D01*
X159620796Y-101928452D01*
X159611766Y-101858032D01*
X159642240Y-101793908D01*
X159663026Y-101775285D01*
X159790916Y-101684062D01*
X159795119Y-101681064D01*
X159957898Y-101518852D01*
X159978191Y-101490612D01*
X160088979Y-101336433D01*
X160091997Y-101332233D01*
X160193816Y-101126217D01*
X160209739Y-101073808D01*
X160259117Y-100911291D01*
X160259118Y-100911285D01*
X160260621Y-100906339D01*
X160290616Y-100678502D01*
X160291172Y-100655749D01*
X160292208Y-100613365D01*
X160292208Y-100613361D01*
X160292290Y-100610000D01*
X160277872Y-100434632D01*
X160273884Y-100386121D01*
X160273883Y-100386115D01*
X160273460Y-100380970D01*
X160217477Y-100158090D01*
X160125843Y-99947347D01*
X160123037Y-99943009D01*
X160003830Y-99758743D01*
X160003828Y-99758740D01*
X160001020Y-99754400D01*
X159933977Y-99680720D01*
X159849837Y-99588252D01*
X159849835Y-99588251D01*
X159846359Y-99584430D01*
X159842308Y-99581231D01*
X159842304Y-99581227D01*
X159670069Y-99445204D01*
X159670064Y-99445201D01*
X159666015Y-99442003D01*
X159665590Y-99441768D01*
X159620796Y-99388452D01*
X159611766Y-99318032D01*
X159642240Y-99253908D01*
X159663026Y-99235285D01*
X159790916Y-99144062D01*
X159795119Y-99141064D01*
X159835130Y-99101193D01*
X159933782Y-99002884D01*
X159957898Y-98978852D01*
X160039281Y-98865596D01*
X160088979Y-98796433D01*
X160091997Y-98792233D01*
X160104080Y-98767786D01*
X160153959Y-98666862D01*
X160193816Y-98586217D01*
X160220470Y-98498490D01*
X160259117Y-98371291D01*
X160259118Y-98371285D01*
X160260621Y-98366339D01*
X160290616Y-98138502D01*
X160290834Y-98129587D01*
X160292208Y-98073365D01*
X160292208Y-98073361D01*
X160292290Y-98070000D01*
X160283123Y-97958497D01*
X160273884Y-97846121D01*
X160273883Y-97846115D01*
X160273460Y-97840970D01*
X160217477Y-97618090D01*
X160125843Y-97407347D01*
X160113780Y-97388700D01*
X160003830Y-97218743D01*
X160003828Y-97218740D01*
X160001020Y-97214400D01*
X159969772Y-97180058D01*
X159849837Y-97048252D01*
X159849835Y-97048251D01*
X159846359Y-97044430D01*
X159842308Y-97041231D01*
X159842304Y-97041227D01*
X159670069Y-96905204D01*
X159670064Y-96905201D01*
X159666015Y-96902003D01*
X159665590Y-96901768D01*
X159620796Y-96848452D01*
X159611766Y-96778032D01*
X159642240Y-96713908D01*
X159663026Y-96695285D01*
X159790916Y-96604062D01*
X159795119Y-96601064D01*
X159835130Y-96561193D01*
X159921149Y-96475473D01*
X159957898Y-96438852D01*
X160091997Y-96252233D01*
X160098338Y-96239404D01*
X160153959Y-96126862D01*
X160193816Y-96046217D01*
X160219154Y-95962820D01*
X160259117Y-95831291D01*
X160259118Y-95831285D01*
X160260621Y-95826339D01*
X160290616Y-95598502D01*
X160290834Y-95589587D01*
X160292208Y-95533365D01*
X160292208Y-95533361D01*
X160292290Y-95530000D01*
X160283780Y-95426490D01*
X160273884Y-95306121D01*
X160273883Y-95306115D01*
X160273460Y-95300970D01*
X160217477Y-95078090D01*
X160125843Y-94867347D01*
X160123037Y-94863009D01*
X160003830Y-94678743D01*
X160003828Y-94678740D01*
X160001020Y-94674400D01*
X159929268Y-94595545D01*
X159849837Y-94508252D01*
X159849835Y-94508251D01*
X159846359Y-94504430D01*
X159842308Y-94501231D01*
X159842304Y-94501227D01*
X159670069Y-94365204D01*
X159670064Y-94365201D01*
X159666015Y-94362003D01*
X159665590Y-94361768D01*
X159620796Y-94308452D01*
X159611766Y-94238032D01*
X159642240Y-94173908D01*
X159663026Y-94155285D01*
X159790916Y-94064062D01*
X159795119Y-94061064D01*
X159835130Y-94021193D01*
X159877585Y-93978885D01*
X159957898Y-93898852D01*
X160091997Y-93712233D01*
X160109770Y-93676273D01*
X160160558Y-93573510D01*
X160193816Y-93506217D01*
X160219154Y-93422820D01*
X160259117Y-93291291D01*
X160259118Y-93291285D01*
X160260621Y-93286339D01*
X160284058Y-93108313D01*
X160290179Y-93061823D01*
X160290179Y-93061819D01*
X160290616Y-93058502D01*
X160291025Y-93041752D01*
X160292208Y-92993365D01*
X160292208Y-92993361D01*
X160292290Y-92990000D01*
X160278626Y-92823804D01*
X160273884Y-92766121D01*
X160273883Y-92766115D01*
X160273460Y-92760970D01*
X160217477Y-92538090D01*
X160125843Y-92327347D01*
X160123037Y-92323009D01*
X160003830Y-92138743D01*
X160003828Y-92138740D01*
X160001020Y-92134400D01*
X159940433Y-92067815D01*
X159849837Y-91968252D01*
X159849835Y-91968251D01*
X159846359Y-91964430D01*
X159842308Y-91961231D01*
X159842304Y-91961227D01*
X159670069Y-91825204D01*
X159670064Y-91825201D01*
X159666015Y-91822003D01*
X159665590Y-91821768D01*
X159620796Y-91768452D01*
X159611766Y-91698032D01*
X159642240Y-91633908D01*
X159663026Y-91615285D01*
X159790916Y-91524062D01*
X159795119Y-91521064D01*
X159835130Y-91481193D01*
X159922098Y-91394527D01*
X159957898Y-91358852D01*
X160048003Y-91233458D01*
X160088979Y-91176433D01*
X160091997Y-91172233D01*
X160109770Y-91136273D01*
X160184679Y-90984704D01*
X160193816Y-90966217D01*
X160219154Y-90882820D01*
X160259117Y-90751291D01*
X160259118Y-90751285D01*
X160260621Y-90746339D01*
X160290616Y-90518502D01*
X160291052Y-90500661D01*
X160292208Y-90453365D01*
X160292208Y-90453361D01*
X160292290Y-90450000D01*
X160278035Y-90276613D01*
X160273884Y-90226121D01*
X160273883Y-90226115D01*
X160273460Y-90220970D01*
X160217477Y-89998090D01*
X160125843Y-89787347D01*
X160109630Y-89762285D01*
X160003830Y-89598743D01*
X160003828Y-89598740D01*
X160001020Y-89594400D01*
X159979852Y-89571136D01*
X159849837Y-89428252D01*
X159849835Y-89428251D01*
X159846359Y-89424430D01*
X159842308Y-89421231D01*
X159842304Y-89421227D01*
X159672651Y-89287244D01*
X159666015Y-89282003D01*
X159464831Y-89170943D01*
X159288998Y-89108677D01*
X159253084Y-89095959D01*
X159253080Y-89095958D01*
X159248209Y-89094233D01*
X159243116Y-89093326D01*
X159243113Y-89093325D01*
X159027056Y-89054839D01*
X159027050Y-89054838D01*
X159021967Y-89053933D01*
X158948784Y-89053039D01*
X158797351Y-89051189D01*
X158797349Y-89051189D01*
X158792181Y-89051126D01*
X158640610Y-89074319D01*
X158570131Y-89085104D01*
X158570128Y-89085105D01*
X158565022Y-89085886D01*
X158542263Y-89093325D01*
X158351504Y-89155675D01*
X158351502Y-89155676D01*
X158346591Y-89157281D01*
X158315538Y-89173446D01*
X158197515Y-89234885D01*
X158142753Y-89263392D01*
X158138620Y-89266495D01*
X158138617Y-89266497D01*
X158079482Y-89310897D01*
X157958983Y-89401370D01*
X157800216Y-89567510D01*
X157670716Y-89757350D01*
X157654482Y-89792323D01*
X157579610Y-89953623D01*
X157573961Y-89965792D01*
X157512548Y-90187237D01*
X157488129Y-90415739D01*
X157501357Y-90645161D01*
X157502492Y-90650198D01*
X157502493Y-90650204D01*
X157525274Y-90751291D01*
X157551878Y-90869342D01*
X157638336Y-91082261D01*
X157641033Y-91086662D01*
X157641034Y-91086664D01*
X157701388Y-91185152D01*
X157758408Y-91278200D01*
X157908869Y-91451898D01*
X157912844Y-91455198D01*
X157912847Y-91455201D01*
X157935692Y-91474167D01*
X158085679Y-91598689D01*
X158090143Y-91601297D01*
X158090145Y-91601299D01*
X158107352Y-91611354D01*
X158156075Y-91662994D01*
X158169145Y-91732777D01*
X158142412Y-91798548D01*
X158119433Y-91820901D01*
X158116891Y-91822810D01*
X157958983Y-91941370D01*
X157800216Y-92107510D01*
X157670716Y-92297350D01*
X157622339Y-92401571D01*
X157579610Y-92493623D01*
X157573961Y-92505792D01*
X157512548Y-92727237D01*
X157488129Y-92955739D01*
X157501357Y-93185161D01*
X157502492Y-93190198D01*
X157502493Y-93190204D01*
X157534701Y-93333120D01*
X157551878Y-93409342D01*
X157638336Y-93622261D01*
X157641033Y-93626662D01*
X157641034Y-93626664D01*
X157701388Y-93725152D01*
X157758408Y-93818200D01*
X157908869Y-93991898D01*
X157912844Y-93995198D01*
X157912847Y-93995201D01*
X157935692Y-94014167D01*
X158085679Y-94138689D01*
X158090143Y-94141297D01*
X158090145Y-94141299D01*
X158107352Y-94151354D01*
X158156075Y-94202994D01*
X158169145Y-94272777D01*
X158142412Y-94338548D01*
X158119433Y-94360901D01*
X158116891Y-94362810D01*
X157958983Y-94481370D01*
X157800216Y-94647510D01*
X157670716Y-94837350D01*
X157622338Y-94941571D01*
X157587567Y-95016481D01*
X157573961Y-95045792D01*
X157512548Y-95267237D01*
X157488129Y-95495739D01*
X157501357Y-95725161D01*
X157502492Y-95730198D01*
X157502493Y-95730204D01*
X157536844Y-95882631D01*
X157551878Y-95949342D01*
X157638336Y-96162261D01*
X157641033Y-96166662D01*
X157641034Y-96166664D01*
X157701388Y-96265152D01*
X157758408Y-96358200D01*
X157908869Y-96531898D01*
X157912844Y-96535198D01*
X157912847Y-96535201D01*
X157935692Y-96554167D01*
X158085679Y-96678689D01*
X158090143Y-96681297D01*
X158090145Y-96681299D01*
X158107352Y-96691354D01*
X158156075Y-96742994D01*
X158169145Y-96812777D01*
X158142412Y-96878548D01*
X158119433Y-96900901D01*
X158116891Y-96902810D01*
X157958983Y-97021370D01*
X157800216Y-97187510D01*
X157797302Y-97191782D01*
X157797301Y-97191783D01*
X157750795Y-97259958D01*
X157670716Y-97377350D01*
X157644596Y-97433621D01*
X157579867Y-97573069D01*
X157573961Y-97585792D01*
X157512548Y-97807237D01*
X157488129Y-98035739D01*
X157488426Y-98040892D01*
X157488426Y-98040895D01*
X157491203Y-98089059D01*
X157501357Y-98265161D01*
X157502492Y-98270198D01*
X157502493Y-98270204D01*
X157547282Y-98468949D01*
X157551878Y-98489342D01*
X157638336Y-98702261D01*
X157641033Y-98706662D01*
X157641034Y-98706664D01*
X157701388Y-98805152D01*
X157758408Y-98898200D01*
X157908869Y-99071898D01*
X157912844Y-99075198D01*
X157912847Y-99075201D01*
X157935692Y-99094167D01*
X158085679Y-99218689D01*
X158090143Y-99221297D01*
X158090145Y-99221299D01*
X158107352Y-99231354D01*
X158156075Y-99282994D01*
X158169145Y-99352777D01*
X158142412Y-99418548D01*
X158119433Y-99440901D01*
X158116891Y-99442810D01*
X157958983Y-99561370D01*
X157955411Y-99565108D01*
X157844930Y-99680720D01*
X157800216Y-99727510D01*
X157670716Y-99917350D01*
X157622338Y-100021571D01*
X157577485Y-100118201D01*
X157573961Y-100125792D01*
X157512548Y-100347237D01*
X157488129Y-100575739D01*
X157501357Y-100805161D01*
X157502492Y-100810198D01*
X157502493Y-100810204D01*
X157528288Y-100924664D01*
X157551878Y-101029342D01*
X157638336Y-101242261D01*
X157641033Y-101246662D01*
X157641034Y-101246664D01*
X157693471Y-101332233D01*
X157758408Y-101438200D01*
X157908869Y-101611898D01*
X158085679Y-101758689D01*
X158090143Y-101761297D01*
X158090145Y-101761299D01*
X158107352Y-101771354D01*
X158156075Y-101822994D01*
X158169145Y-101892777D01*
X158142412Y-101958548D01*
X158119433Y-101980901D01*
X158116891Y-101982810D01*
X157958983Y-102101370D01*
X157800216Y-102267510D01*
X157670716Y-102457350D01*
X157625440Y-102554890D01*
X157587106Y-102637474D01*
X157573961Y-102665792D01*
X157512548Y-102887237D01*
X157488129Y-103115739D01*
X157501357Y-103345161D01*
X157502492Y-103350198D01*
X157502493Y-103350204D01*
X157524158Y-103446339D01*
X157551878Y-103569342D01*
X157638336Y-103782261D01*
X157641036Y-103786667D01*
X157641039Y-103786673D01*
X157725601Y-103924665D01*
X157744140Y-103993198D01*
X157722684Y-104060875D01*
X157668045Y-104106208D01*
X157618169Y-104116500D01*
X142382170Y-104116500D01*
X142314049Y-104096498D01*
X142267556Y-104042842D01*
X142257452Y-103972568D01*
X142279848Y-103916973D01*
X142308978Y-103876435D01*
X142308980Y-103876431D01*
X142311997Y-103872233D01*
X142413816Y-103666217D01*
X142429739Y-103613808D01*
X142479117Y-103451291D01*
X142479118Y-103451285D01*
X142480621Y-103446339D01*
X142510616Y-103218502D01*
X142512290Y-103150000D01*
X142506058Y-103074194D01*
X142493884Y-102926121D01*
X142493883Y-102926115D01*
X142493460Y-102920970D01*
X142437477Y-102698090D01*
X142345843Y-102487347D01*
X142342549Y-102482255D01*
X142223830Y-102298743D01*
X142223828Y-102298740D01*
X142221020Y-102294400D01*
X142066359Y-102124430D01*
X142062308Y-102121231D01*
X142062304Y-102121227D01*
X141890069Y-101985204D01*
X141890064Y-101985201D01*
X141886015Y-101982003D01*
X141885590Y-101981768D01*
X141840796Y-101928452D01*
X141831766Y-101858032D01*
X141862240Y-101793908D01*
X141883026Y-101775285D01*
X142010916Y-101684062D01*
X142015119Y-101681064D01*
X142177898Y-101518852D01*
X142198191Y-101490612D01*
X142308979Y-101336433D01*
X142311997Y-101332233D01*
X142413816Y-101126217D01*
X142429739Y-101073808D01*
X142479117Y-100911291D01*
X142479118Y-100911285D01*
X142480621Y-100906339D01*
X142510616Y-100678502D01*
X142511172Y-100655749D01*
X142512208Y-100613365D01*
X142512208Y-100613361D01*
X142512290Y-100610000D01*
X142497872Y-100434632D01*
X142493884Y-100386121D01*
X142493883Y-100386115D01*
X142493460Y-100380970D01*
X142437477Y-100158090D01*
X142345843Y-99947347D01*
X142343037Y-99943009D01*
X142223830Y-99758743D01*
X142223828Y-99758740D01*
X142221020Y-99754400D01*
X142153977Y-99680720D01*
X142069837Y-99588252D01*
X142069835Y-99588251D01*
X142066359Y-99584430D01*
X142062308Y-99581231D01*
X142062304Y-99581227D01*
X141890069Y-99445204D01*
X141890064Y-99445201D01*
X141886015Y-99442003D01*
X141885590Y-99441768D01*
X141840796Y-99388452D01*
X141831766Y-99318032D01*
X141862240Y-99253908D01*
X141883026Y-99235285D01*
X142010916Y-99144062D01*
X142015119Y-99141064D01*
X142055130Y-99101193D01*
X142153782Y-99002884D01*
X142177898Y-98978852D01*
X142259281Y-98865596D01*
X142308979Y-98796433D01*
X142311997Y-98792233D01*
X142324080Y-98767786D01*
X142373959Y-98666862D01*
X142413816Y-98586217D01*
X142440470Y-98498490D01*
X142479117Y-98371291D01*
X142479118Y-98371285D01*
X142480621Y-98366339D01*
X142510616Y-98138502D01*
X142510834Y-98129587D01*
X142512208Y-98073365D01*
X142512208Y-98073361D01*
X142512290Y-98070000D01*
X142503123Y-97958497D01*
X142493884Y-97846121D01*
X142493883Y-97846115D01*
X142493460Y-97840970D01*
X142437477Y-97618090D01*
X142345843Y-97407347D01*
X142333780Y-97388700D01*
X142223830Y-97218743D01*
X142223828Y-97218740D01*
X142221020Y-97214400D01*
X142189772Y-97180058D01*
X142069837Y-97048252D01*
X142069835Y-97048251D01*
X142066359Y-97044430D01*
X142062308Y-97041231D01*
X142062304Y-97041227D01*
X141890069Y-96905204D01*
X141890064Y-96905201D01*
X141886015Y-96902003D01*
X141885590Y-96901768D01*
X141840796Y-96848452D01*
X141831766Y-96778032D01*
X141862240Y-96713908D01*
X141883026Y-96695285D01*
X142010916Y-96604062D01*
X142015119Y-96601064D01*
X142055130Y-96561193D01*
X142141149Y-96475473D01*
X142177898Y-96438852D01*
X142311997Y-96252233D01*
X142318338Y-96239404D01*
X142373959Y-96126862D01*
X142413816Y-96046217D01*
X142439154Y-95962820D01*
X142479117Y-95831291D01*
X142479118Y-95831285D01*
X142480621Y-95826339D01*
X142510616Y-95598502D01*
X142510834Y-95589587D01*
X142512208Y-95533365D01*
X142512208Y-95533361D01*
X142512290Y-95530000D01*
X142503780Y-95426490D01*
X142493884Y-95306121D01*
X142493883Y-95306115D01*
X142493460Y-95300970D01*
X142437477Y-95078090D01*
X142345843Y-94867347D01*
X142343037Y-94863009D01*
X142223830Y-94678743D01*
X142223828Y-94678740D01*
X142221020Y-94674400D01*
X142149268Y-94595545D01*
X142069837Y-94508252D01*
X142069835Y-94508251D01*
X142066359Y-94504430D01*
X142062308Y-94501231D01*
X142062304Y-94501227D01*
X141890069Y-94365204D01*
X141890064Y-94365201D01*
X141886015Y-94362003D01*
X141885590Y-94361768D01*
X141840796Y-94308452D01*
X141831766Y-94238032D01*
X141862240Y-94173908D01*
X141883026Y-94155285D01*
X142010916Y-94064062D01*
X142015119Y-94061064D01*
X142055130Y-94021193D01*
X142097585Y-93978885D01*
X142177898Y-93898852D01*
X142311997Y-93712233D01*
X142329770Y-93676273D01*
X142380558Y-93573510D01*
X142413816Y-93506217D01*
X142439154Y-93422820D01*
X142479117Y-93291291D01*
X142479118Y-93291285D01*
X142480621Y-93286339D01*
X142504058Y-93108313D01*
X142510179Y-93061823D01*
X142510179Y-93061819D01*
X142510616Y-93058502D01*
X142511025Y-93041752D01*
X142512208Y-92993365D01*
X142512208Y-92993361D01*
X142512290Y-92990000D01*
X142498626Y-92823804D01*
X142493884Y-92766121D01*
X142493883Y-92766115D01*
X142493460Y-92760970D01*
X142437477Y-92538090D01*
X142345843Y-92327347D01*
X142343037Y-92323009D01*
X142223830Y-92138743D01*
X142223828Y-92138740D01*
X142221020Y-92134400D01*
X142160433Y-92067815D01*
X142069837Y-91968252D01*
X142069835Y-91968251D01*
X142066359Y-91964430D01*
X142062308Y-91961231D01*
X142062304Y-91961227D01*
X141890072Y-91825207D01*
X141886015Y-91822003D01*
X141885224Y-91821567D01*
X141840351Y-91768161D01*
X141831316Y-91697742D01*
X141861788Y-91633617D01*
X141882579Y-91614988D01*
X141887210Y-91611685D01*
X141895609Y-91600987D01*
X141888622Y-91587833D01*
X141122811Y-90822021D01*
X141108868Y-90814408D01*
X141107034Y-90814539D01*
X141100420Y-90818790D01*
X140328221Y-91590990D01*
X140321464Y-91603365D01*
X140326745Y-91610420D01*
X140327784Y-91611027D01*
X140376508Y-91662665D01*
X140389579Y-91732448D01*
X140362848Y-91798220D01*
X140339867Y-91820575D01*
X140336891Y-91822810D01*
X140178983Y-91941370D01*
X140020216Y-92107510D01*
X139890716Y-92297350D01*
X139842339Y-92401571D01*
X139799610Y-92493623D01*
X139793961Y-92505792D01*
X139732548Y-92727237D01*
X139708129Y-92955739D01*
X139721357Y-93185161D01*
X139722492Y-93190198D01*
X139722493Y-93190204D01*
X139754701Y-93333120D01*
X139771878Y-93409342D01*
X139858336Y-93622261D01*
X139861033Y-93626662D01*
X139861034Y-93626664D01*
X139921388Y-93725152D01*
X139978408Y-93818200D01*
X140128869Y-93991898D01*
X140132844Y-93995198D01*
X140132847Y-93995201D01*
X140155692Y-94014167D01*
X140305679Y-94138689D01*
X140310143Y-94141297D01*
X140310145Y-94141299D01*
X140327352Y-94151354D01*
X140376075Y-94202994D01*
X140389145Y-94272777D01*
X140362412Y-94338548D01*
X140339433Y-94360901D01*
X140336891Y-94362810D01*
X140178983Y-94481370D01*
X140020216Y-94647510D01*
X139890716Y-94837350D01*
X139842338Y-94941571D01*
X139807567Y-95016481D01*
X139793961Y-95045792D01*
X139732548Y-95267237D01*
X139731999Y-95272373D01*
X139731999Y-95272374D01*
X139709442Y-95483449D01*
X139682314Y-95549059D01*
X139624022Y-95589587D01*
X139553072Y-95592166D01*
X139495060Y-95559155D01*
X139190405Y-95254500D01*
X139156379Y-95192188D01*
X139153500Y-95165405D01*
X139153500Y-90698767D01*
X139154027Y-90687584D01*
X139155702Y-90680091D01*
X139154960Y-90656470D01*
X139153562Y-90612014D01*
X139153500Y-90608055D01*
X139153500Y-90580144D01*
X139152995Y-90576144D01*
X139152062Y-90564301D01*
X139151938Y-90560334D01*
X139150673Y-90520111D01*
X139145021Y-90500657D01*
X139141013Y-90481300D01*
X139139468Y-90469070D01*
X139139468Y-90469069D01*
X139138474Y-90461203D01*
X139135371Y-90453365D01*
X139122520Y-90420907D01*
X139708927Y-90420907D01*
X139721557Y-90639932D01*
X139722990Y-90650134D01*
X139771219Y-90864143D01*
X139774302Y-90873983D01*
X139856837Y-91077240D01*
X139861490Y-91086451D01*
X139948098Y-91227780D01*
X139958555Y-91237241D01*
X139967331Y-91233458D01*
X140737979Y-90462811D01*
X140744356Y-90451132D01*
X141474408Y-90451132D01*
X141474539Y-90452966D01*
X141478790Y-90459580D01*
X142248425Y-91229214D01*
X142260431Y-91235770D01*
X142272170Y-91226802D01*
X142308549Y-91176174D01*
X142313860Y-91167335D01*
X142411056Y-90970675D01*
X142414854Y-90961082D01*
X142478628Y-90751177D01*
X142480805Y-90741107D01*
X142509677Y-90521799D01*
X142510196Y-90515124D01*
X142511706Y-90453364D01*
X142511512Y-90446646D01*
X142493389Y-90226203D01*
X142491706Y-90216041D01*
X142438261Y-90003263D01*
X142434943Y-89993516D01*
X142347462Y-89792323D01*
X142342595Y-89783246D01*
X142271268Y-89672993D01*
X142260582Y-89663791D01*
X142251017Y-89668194D01*
X141482021Y-90437189D01*
X141474408Y-90451132D01*
X140744356Y-90451132D01*
X140745592Y-90448868D01*
X140745461Y-90447034D01*
X140741210Y-90440420D01*
X139971778Y-89670989D01*
X139960246Y-89664692D01*
X139947964Y-89674315D01*
X139894064Y-89753329D01*
X139888976Y-89762285D01*
X139796611Y-89961270D01*
X139793048Y-89970957D01*
X139734424Y-90182347D01*
X139732493Y-90192468D01*
X139709178Y-90410619D01*
X139708927Y-90420907D01*
X139122520Y-90420907D01*
X139122196Y-90420088D01*
X139118351Y-90408858D01*
X139108229Y-90374017D01*
X139108229Y-90374016D01*
X139106018Y-90366407D01*
X139101985Y-90359588D01*
X139101983Y-90359583D01*
X139095707Y-90348972D01*
X139087012Y-90331224D01*
X139079552Y-90312383D01*
X139053564Y-90276613D01*
X139047048Y-90266693D01*
X139028580Y-90235465D01*
X139028578Y-90235462D01*
X139024542Y-90228638D01*
X139010221Y-90214317D01*
X138997380Y-90199283D01*
X138985472Y-90182893D01*
X138951395Y-90154702D01*
X138942616Y-90146712D01*
X138094474Y-89298570D01*
X140323365Y-89298570D01*
X140330108Y-89310897D01*
X141097189Y-90077979D01*
X141111132Y-90085592D01*
X141112966Y-90085461D01*
X141119580Y-90081210D01*
X141891162Y-89309627D01*
X141898179Y-89296776D01*
X141890405Y-89286107D01*
X141889796Y-89285625D01*
X141881210Y-89279921D01*
X141689151Y-89173900D01*
X141679752Y-89169675D01*
X141472950Y-89096443D01*
X141462993Y-89093813D01*
X141247008Y-89055339D01*
X141236757Y-89054370D01*
X141017386Y-89051690D01*
X141007102Y-89052410D01*
X140790251Y-89085592D01*
X140780224Y-89087981D01*
X140571704Y-89156135D01*
X140562195Y-89160132D01*
X140367603Y-89261431D01*
X140358890Y-89266918D01*
X140331819Y-89287244D01*
X140323365Y-89298570D01*
X138094474Y-89298570D01*
X136722311Y-87926407D01*
X136688285Y-87864095D01*
X136690848Y-87800683D01*
X136710915Y-87734636D01*
X136710917Y-87734629D01*
X136712420Y-87729683D01*
X136742652Y-87500053D01*
X136743562Y-87462817D01*
X136744257Y-87434377D01*
X136744257Y-87434373D01*
X136744339Y-87431012D01*
X136733023Y-87293370D01*
X136725785Y-87205330D01*
X136725784Y-87205324D01*
X136725361Y-87200179D01*
X136691272Y-87064463D01*
X136670196Y-86980556D01*
X136670195Y-86980552D01*
X136668937Y-86975545D01*
X136666793Y-86970613D01*
X136578642Y-86767880D01*
X136578640Y-86767877D01*
X136576582Y-86763143D01*
X136482600Y-86617869D01*
X138996689Y-86617869D01*
X139013238Y-86904883D01*
X139014063Y-86909088D01*
X139014064Y-86909096D01*
X139044546Y-87064463D01*
X139068586Y-87186995D01*
X139069973Y-87191045D01*
X139069974Y-87191050D01*
X139150984Y-87427658D01*
X139161710Y-87458986D01*
X139190228Y-87515688D01*
X139284836Y-87703794D01*
X139290885Y-87715822D01*
X139453721Y-87952750D01*
X139456608Y-87955923D01*
X139456609Y-87955924D01*
X139626280Y-88142391D01*
X139647206Y-88165388D01*
X139650501Y-88168143D01*
X139650502Y-88168144D01*
X139860471Y-88343704D01*
X139867759Y-88349798D01*
X140111298Y-88502571D01*
X140373318Y-88620877D01*
X140377437Y-88622097D01*
X140644857Y-88701311D01*
X140644862Y-88701312D01*
X140648970Y-88702529D01*
X140653204Y-88703177D01*
X140653209Y-88703178D01*
X140892649Y-88739817D01*
X140933153Y-88746015D01*
X141079485Y-88748314D01*
X141216317Y-88750464D01*
X141216323Y-88750464D01*
X141220608Y-88750531D01*
X141224860Y-88750016D01*
X141224868Y-88750016D01*
X141501756Y-88716508D01*
X141501761Y-88716507D01*
X141506017Y-88715992D01*
X141638232Y-88681306D01*
X141779954Y-88644126D01*
X141779955Y-88644126D01*
X141784097Y-88643039D01*
X142049704Y-88533021D01*
X142297922Y-88387974D01*
X142524159Y-88210582D01*
X142565285Y-88168144D01*
X142721244Y-88007206D01*
X142724227Y-88004128D01*
X142726760Y-88000680D01*
X142726764Y-88000675D01*
X142891887Y-87775886D01*
X142894425Y-87772431D01*
X143031604Y-87519779D01*
X143133225Y-87250848D01*
X143163029Y-87120717D01*
X143196449Y-86974797D01*
X143196450Y-86974793D01*
X143197407Y-86970613D01*
X143197812Y-86966082D01*
X143222743Y-86686726D01*
X143222743Y-86686724D01*
X143222963Y-86684260D01*
X143223427Y-86640000D01*
X143220949Y-86603657D01*
X143204165Y-86357452D01*
X143204164Y-86357446D01*
X143203873Y-86353175D01*
X143199336Y-86331264D01*
X143155597Y-86120057D01*
X143145574Y-86071658D01*
X143049607Y-85800657D01*
X142917750Y-85545188D01*
X142908941Y-85532653D01*
X142818171Y-85403502D01*
X142752441Y-85309977D01*
X142640657Y-85189683D01*
X142559661Y-85102521D01*
X142559658Y-85102519D01*
X142556740Y-85099378D01*
X142334268Y-84917287D01*
X142089142Y-84767073D01*
X142071048Y-84759130D01*
X141829830Y-84653243D01*
X141825898Y-84651517D01*
X141799963Y-84644129D01*
X141553534Y-84573932D01*
X141553535Y-84573932D01*
X141549406Y-84572756D01*
X141336704Y-84542485D01*
X141269036Y-84532854D01*
X141269034Y-84532854D01*
X141264784Y-84532249D01*
X141260495Y-84532227D01*
X141260488Y-84532226D01*
X140981583Y-84530765D01*
X140981576Y-84530765D01*
X140977297Y-84530743D01*
X140973053Y-84531302D01*
X140973049Y-84531302D01*
X140847660Y-84547810D01*
X140692266Y-84568268D01*
X140688126Y-84569401D01*
X140688124Y-84569401D01*
X140635900Y-84583688D01*
X140414964Y-84644129D01*
X140411016Y-84645813D01*
X140154476Y-84755237D01*
X140154472Y-84755239D01*
X140150524Y-84756923D01*
X140089626Y-84793370D01*
X139907521Y-84902357D01*
X139907517Y-84902360D01*
X139903839Y-84904561D01*
X139679472Y-85084313D01*
X139584345Y-85184556D01*
X139486941Y-85287199D01*
X139481577Y-85292851D01*
X139313814Y-85526317D01*
X139179288Y-85780392D01*
X139177813Y-85784423D01*
X139089247Y-86026442D01*
X139080489Y-86050373D01*
X139019245Y-86331264D01*
X139014042Y-86397370D01*
X138999180Y-86586223D01*
X138996689Y-86617869D01*
X136482600Y-86617869D01*
X136450776Y-86568677D01*
X136431851Y-86547878D01*
X136365829Y-86475321D01*
X136294899Y-86397370D01*
X136290848Y-86394171D01*
X136290844Y-86394167D01*
X136118089Y-86257734D01*
X136077026Y-86199817D01*
X136073794Y-86128894D01*
X136109419Y-86067482D01*
X136123013Y-86056273D01*
X136126884Y-86053512D01*
X136243255Y-85970506D01*
X136407315Y-85807017D01*
X136423551Y-85784423D01*
X136489644Y-85692444D01*
X136542470Y-85618929D01*
X136571430Y-85560334D01*
X136642796Y-85415934D01*
X136642797Y-85415932D01*
X136645090Y-85411292D01*
X136712420Y-85189683D01*
X136742652Y-84960053D01*
X136743697Y-84917287D01*
X136744257Y-84894377D01*
X136744257Y-84894373D01*
X136744339Y-84891012D01*
X136734149Y-84767073D01*
X136725785Y-84665330D01*
X136725784Y-84665324D01*
X136725361Y-84660179D01*
X136685127Y-84500000D01*
X136670196Y-84440556D01*
X136670195Y-84440552D01*
X136668937Y-84435545D01*
X136666878Y-84430809D01*
X136578642Y-84227880D01*
X136578640Y-84227877D01*
X136576582Y-84223143D01*
X136450776Y-84028677D01*
X136294899Y-83857370D01*
X136290848Y-83854171D01*
X136290844Y-83854167D01*
X136118089Y-83717734D01*
X136077026Y-83659817D01*
X136073794Y-83588894D01*
X136109419Y-83527482D01*
X136123013Y-83516273D01*
X136126884Y-83513512D01*
X136243255Y-83430506D01*
X136407315Y-83267017D01*
X136414783Y-83256625D01*
X136453095Y-83203307D01*
X136542470Y-83078929D01*
X136554084Y-83055431D01*
X136642796Y-82875934D01*
X136642797Y-82875932D01*
X136645090Y-82871292D01*
X136712420Y-82649683D01*
X136742652Y-82420053D01*
X136744339Y-82351012D01*
X136732108Y-82202245D01*
X136725785Y-82125330D01*
X136725784Y-82125324D01*
X136725361Y-82120179D01*
X136668937Y-81895545D01*
X136666878Y-81890809D01*
X136578642Y-81687880D01*
X136578640Y-81687877D01*
X136576582Y-81683143D01*
X136450776Y-81488677D01*
X136294899Y-81317370D01*
X136290848Y-81314171D01*
X136290844Y-81314167D01*
X136117189Y-81177023D01*
X136117184Y-81177020D01*
X136113135Y-81173822D01*
X136108619Y-81171329D01*
X136108616Y-81171327D01*
X135914891Y-81064385D01*
X135914887Y-81064383D01*
X135910367Y-81061888D01*
X135905498Y-81060164D01*
X135905494Y-81060162D01*
X135696915Y-80986300D01*
X135696911Y-80986299D01*
X135692040Y-80984574D01*
X135686947Y-80983667D01*
X135686944Y-80983666D01*
X135469107Y-80944863D01*
X135469101Y-80944862D01*
X135464018Y-80943957D01*
X135391108Y-80943066D01*
X135237593Y-80941191D01*
X135237591Y-80941191D01*
X135232423Y-80941128D01*
X135003476Y-80976162D01*
X134783326Y-81048118D01*
X134778738Y-81050506D01*
X134778734Y-81050508D01*
X134583086Y-81152356D01*
X134577884Y-81155064D01*
X134573751Y-81158167D01*
X134573748Y-81158169D01*
X134396802Y-81291024D01*
X134392667Y-81294129D01*
X134232651Y-81461576D01*
X134229737Y-81465848D01*
X134229736Y-81465849D01*
X134200640Y-81508502D01*
X134102131Y-81652911D01*
X134004614Y-81862993D01*
X133942719Y-82086181D01*
X133918107Y-82316481D01*
X133918404Y-82321634D01*
X133918404Y-82321637D01*
X133928330Y-82493788D01*
X133931439Y-82547709D01*
X133932576Y-82552755D01*
X133932577Y-82552761D01*
X133956097Y-82657125D01*
X133982358Y-82773654D01*
X133984300Y-82778436D01*
X133984301Y-82778440D01*
X134055065Y-82952710D01*
X134069496Y-82988249D01*
X134072195Y-82992653D01*
X134168343Y-83149552D01*
X134190513Y-83185731D01*
X134342159Y-83360796D01*
X134520361Y-83508742D01*
X134524831Y-83511354D01*
X134528523Y-83513512D01*
X134577244Y-83565152D01*
X134590313Y-83634936D01*
X134563578Y-83700706D01*
X134540601Y-83723057D01*
X134411031Y-83820341D01*
X134392667Y-83834129D01*
X134232651Y-84001576D01*
X134229737Y-84005848D01*
X134229736Y-84005849D01*
X134216239Y-84025635D01*
X134102131Y-84192911D01*
X134004614Y-84402993D01*
X133942719Y-84626181D01*
X133918107Y-84856481D01*
X133918404Y-84861634D01*
X133918404Y-84861637D01*
X133924079Y-84960053D01*
X133931439Y-85087709D01*
X133932576Y-85092755D01*
X133932577Y-85092761D01*
X133957566Y-85203643D01*
X133982358Y-85313654D01*
X133984300Y-85318436D01*
X133984301Y-85318440D01*
X134067295Y-85522828D01*
X134069496Y-85528249D01*
X134190513Y-85725731D01*
X134342159Y-85900796D01*
X134520361Y-86048742D01*
X134524831Y-86051354D01*
X134528523Y-86053512D01*
X134577244Y-86105152D01*
X134590313Y-86174936D01*
X134563578Y-86240706D01*
X134540601Y-86263057D01*
X134406455Y-86363777D01*
X134392667Y-86374129D01*
X134344014Y-86425041D01*
X134247885Y-86525635D01*
X134232651Y-86541576D01*
X134229737Y-86545848D01*
X134229736Y-86545849D01*
X134216306Y-86565537D01*
X134102131Y-86732911D01*
X134004614Y-86942993D01*
X133942719Y-87166181D01*
X133918107Y-87396481D01*
X133918404Y-87401634D01*
X133918404Y-87401637D01*
X133924980Y-87515688D01*
X133931439Y-87627709D01*
X133932576Y-87632755D01*
X133932577Y-87632761D01*
X133955536Y-87734636D01*
X133982358Y-87853654D01*
X133984300Y-87858436D01*
X133984301Y-87858440D01*
X134038478Y-87991861D01*
X134069496Y-88068249D01*
X134190513Y-88265731D01*
X134342159Y-88440796D01*
X134520361Y-88588742D01*
X134524831Y-88591354D01*
X134528523Y-88593512D01*
X134577244Y-88645152D01*
X134590313Y-88714936D01*
X134563578Y-88780706D01*
X134540601Y-88803057D01*
X134531323Y-88810023D01*
X134413133Y-88898763D01*
X134392667Y-88914129D01*
X134389095Y-88917867D01*
X134264854Y-89047878D01*
X134232651Y-89081576D01*
X134229737Y-89085848D01*
X134229736Y-89085849D01*
X134179379Y-89159670D01*
X134102131Y-89272911D01*
X134004614Y-89482993D01*
X133942719Y-89706181D01*
X133918107Y-89936481D01*
X133918404Y-89941634D01*
X133918404Y-89941637D01*
X133924079Y-90040053D01*
X133931439Y-90167709D01*
X133932576Y-90172755D01*
X133932577Y-90172761D01*
X133962597Y-90305966D01*
X133982358Y-90393654D01*
X133984300Y-90398436D01*
X133984301Y-90398440D01*
X134056486Y-90576209D01*
X134069496Y-90608249D01*
X134190513Y-90805731D01*
X134342159Y-90980796D01*
X134520361Y-91128742D01*
X134524831Y-91131354D01*
X134528523Y-91133512D01*
X134577244Y-91185152D01*
X134590313Y-91254936D01*
X134563578Y-91320706D01*
X134540601Y-91343057D01*
X134410127Y-91441020D01*
X134392667Y-91454129D01*
X134389095Y-91457867D01*
X134238947Y-91614988D01*
X134232651Y-91621576D01*
X134229737Y-91625848D01*
X134229736Y-91625849D01*
X134180694Y-91697742D01*
X134102131Y-91812911D01*
X134004614Y-92022993D01*
X133942719Y-92246181D01*
X133918107Y-92476481D01*
X133918404Y-92481634D01*
X133918404Y-92481637D01*
X133924079Y-92580053D01*
X133931439Y-92707709D01*
X133932576Y-92712755D01*
X133932577Y-92712761D01*
X133955731Y-92815501D01*
X133982358Y-92933654D01*
X133984300Y-92938436D01*
X133984301Y-92938440D01*
X134067552Y-93143462D01*
X134069496Y-93148249D01*
X134190513Y-93345731D01*
X134342159Y-93520796D01*
X134520361Y-93668742D01*
X134524831Y-93671354D01*
X134528523Y-93673512D01*
X134577244Y-93725152D01*
X134590313Y-93794936D01*
X134563578Y-93860706D01*
X134540601Y-93883057D01*
X134392667Y-93994129D01*
X134232651Y-94161576D01*
X134229737Y-94165848D01*
X134229736Y-94165849D01*
X134187418Y-94227885D01*
X134102131Y-94352911D01*
X134004614Y-94562993D01*
X133942719Y-94786181D01*
X133918107Y-95016481D01*
X133918404Y-95021634D01*
X133918404Y-95021637D01*
X133928238Y-95192188D01*
X133931439Y-95247709D01*
X133932576Y-95252755D01*
X133932577Y-95252761D01*
X133964753Y-95395535D01*
X133982358Y-95473654D01*
X133984300Y-95478436D01*
X133984301Y-95478440D01*
X134034402Y-95601823D01*
X134069496Y-95688249D01*
X134190513Y-95885731D01*
X134342159Y-96060796D01*
X134520361Y-96208742D01*
X134524831Y-96211354D01*
X134528523Y-96213512D01*
X134577244Y-96265152D01*
X134590313Y-96334936D01*
X134563578Y-96400706D01*
X134540601Y-96423057D01*
X134392667Y-96534129D01*
X134232651Y-96701576D01*
X134229737Y-96705848D01*
X134229736Y-96705849D01*
X134180496Y-96778032D01*
X134102131Y-96892911D01*
X134004614Y-97102993D01*
X133942719Y-97326181D01*
X133918107Y-97556481D01*
X133918404Y-97561634D01*
X133918404Y-97561637D01*
X133928960Y-97744711D01*
X133931439Y-97787709D01*
X133932576Y-97792755D01*
X133932577Y-97792761D01*
X133955783Y-97895732D01*
X133982358Y-98013654D01*
X133984300Y-98018436D01*
X133984301Y-98018440D01*
X134050680Y-98181912D01*
X134069496Y-98228249D01*
X134190513Y-98425731D01*
X134342159Y-98600796D01*
X134520361Y-98748742D01*
X134524831Y-98751354D01*
X134528523Y-98753512D01*
X134577244Y-98805152D01*
X134590313Y-98874936D01*
X134563578Y-98940706D01*
X134540601Y-98963057D01*
X134392667Y-99074129D01*
X134232651Y-99241576D01*
X134229737Y-99245848D01*
X134229736Y-99245849D01*
X134180496Y-99318032D01*
X134102131Y-99432911D01*
X134004614Y-99642993D01*
X133942719Y-99866181D01*
X133918107Y-100096481D01*
X133918404Y-100101634D01*
X133918404Y-100101637D01*
X133924079Y-100200053D01*
X133931439Y-100327709D01*
X133932576Y-100332755D01*
X133932577Y-100332761D01*
X133972635Y-100510510D01*
X133968099Y-100581362D01*
X133938813Y-100627306D01*
X133236524Y-101329595D01*
X133174212Y-101363621D01*
X133147429Y-101366500D01*
X113380948Y-101366500D01*
X113312827Y-101346498D01*
X113269673Y-101299610D01*
X113257519Y-101276730D01*
X112200897Y-100220107D01*
X112166871Y-100157795D01*
X112168706Y-100132144D01*
X112835420Y-100132144D01*
X112835551Y-100133978D01*
X112839802Y-100140592D01*
X113617319Y-100918108D01*
X113629325Y-100924664D01*
X113641064Y-100915696D01*
X113679022Y-100862871D01*
X113684333Y-100854032D01*
X113782330Y-100655749D01*
X113786129Y-100646154D01*
X113850427Y-100434529D01*
X113852606Y-100424448D01*
X113881714Y-100203350D01*
X113882233Y-100196675D01*
X113883756Y-100134376D01*
X113883562Y-100127658D01*
X113865291Y-99905412D01*
X113863608Y-99895250D01*
X113809722Y-99680720D01*
X113806401Y-99670965D01*
X113718205Y-99468130D01*
X113713327Y-99459032D01*
X113640236Y-99346050D01*
X113629550Y-99336847D01*
X113619985Y-99341250D01*
X112843033Y-100118201D01*
X112835420Y-100132144D01*
X112168706Y-100132144D01*
X112171936Y-100086979D01*
X112200897Y-100041917D01*
X112471012Y-99771802D01*
X113260002Y-98982811D01*
X113267022Y-98969955D01*
X113259248Y-98959286D01*
X113257667Y-98958037D01*
X113216604Y-98900121D01*
X113213371Y-98829198D01*
X113248995Y-98767786D01*
X113262590Y-98756575D01*
X113304835Y-98726442D01*
X113383255Y-98670506D01*
X113547315Y-98507017D01*
X113556578Y-98494127D01*
X113617086Y-98409920D01*
X113682470Y-98318929D01*
X113706552Y-98270204D01*
X113782796Y-98115934D01*
X113782797Y-98115932D01*
X113785090Y-98111292D01*
X113852420Y-97889683D01*
X113882652Y-97660053D01*
X113883276Y-97634535D01*
X113884257Y-97594377D01*
X113884257Y-97594373D01*
X113884339Y-97591012D01*
X113865361Y-97360179D01*
X113827783Y-97210574D01*
X113810196Y-97140556D01*
X113810195Y-97140552D01*
X113808937Y-97135545D01*
X113806878Y-97130809D01*
X113718642Y-96927880D01*
X113718640Y-96927877D01*
X113716582Y-96923143D01*
X113590776Y-96728677D01*
X113577338Y-96713908D01*
X113474657Y-96601064D01*
X113434899Y-96557370D01*
X113430848Y-96554171D01*
X113430844Y-96554167D01*
X113258089Y-96417734D01*
X113217026Y-96359817D01*
X113213794Y-96288894D01*
X113249419Y-96227482D01*
X113263013Y-96216273D01*
X113266884Y-96213512D01*
X113383255Y-96130506D01*
X113547315Y-95967017D01*
X113556578Y-95954127D01*
X113607688Y-95882999D01*
X113682470Y-95778929D01*
X113700087Y-95743285D01*
X113782796Y-95575934D01*
X113782797Y-95575932D01*
X113785090Y-95571292D01*
X113852420Y-95349683D01*
X113882652Y-95120053D01*
X113883555Y-95083104D01*
X113884257Y-95054377D01*
X113884257Y-95054373D01*
X113884339Y-95051012D01*
X113869239Y-94867347D01*
X113865785Y-94825330D01*
X113865784Y-94825324D01*
X113865361Y-94820179D01*
X113808937Y-94595545D01*
X113806878Y-94590809D01*
X113718642Y-94387880D01*
X113718640Y-94387877D01*
X113716582Y-94383143D01*
X113590776Y-94188677D01*
X113577338Y-94173908D01*
X113474657Y-94061064D01*
X113434899Y-94017370D01*
X113430848Y-94014171D01*
X113430844Y-94014167D01*
X113258089Y-93877734D01*
X113217026Y-93819817D01*
X113213794Y-93748894D01*
X113249419Y-93687482D01*
X113263013Y-93676273D01*
X113266884Y-93673512D01*
X113383255Y-93590506D01*
X113547315Y-93427017D01*
X113556578Y-93414127D01*
X113576109Y-93386946D01*
X113682470Y-93238929D01*
X113706552Y-93190204D01*
X113782796Y-93035934D01*
X113782797Y-93035932D01*
X113785090Y-93031292D01*
X113852420Y-92809683D01*
X113882652Y-92580053D01*
X113882734Y-92576703D01*
X113884257Y-92514377D01*
X113884257Y-92514373D01*
X113884339Y-92511012D01*
X113869239Y-92327347D01*
X113865785Y-92285330D01*
X113865784Y-92285324D01*
X113865361Y-92280179D01*
X113808937Y-92055545D01*
X113806878Y-92050809D01*
X113718642Y-91847880D01*
X113718640Y-91847877D01*
X113716582Y-91843143D01*
X113590776Y-91648677D01*
X113577338Y-91633908D01*
X113499056Y-91547878D01*
X113434899Y-91477370D01*
X113430848Y-91474171D01*
X113430844Y-91474167D01*
X113258089Y-91337734D01*
X113217026Y-91279817D01*
X113213794Y-91208894D01*
X113249419Y-91147482D01*
X113263013Y-91136273D01*
X113266884Y-91133512D01*
X113383255Y-91050506D01*
X113547315Y-90887017D01*
X113556578Y-90874127D01*
X113608887Y-90801330D01*
X113682470Y-90698929D01*
X113691781Y-90680091D01*
X113782796Y-90495934D01*
X113782797Y-90495932D01*
X113785090Y-90491292D01*
X113852420Y-90269683D01*
X113882652Y-90040053D01*
X113882734Y-90036703D01*
X113884257Y-89974377D01*
X113884257Y-89974373D01*
X113884339Y-89971012D01*
X113868902Y-89783246D01*
X113865785Y-89745330D01*
X113865784Y-89745324D01*
X113865361Y-89740179D01*
X113823063Y-89571783D01*
X113810196Y-89520556D01*
X113810195Y-89520552D01*
X113808937Y-89515545D01*
X113806878Y-89510809D01*
X113718642Y-89307880D01*
X113718640Y-89307877D01*
X113716582Y-89303143D01*
X113590776Y-89108677D01*
X113566870Y-89082404D01*
X113506399Y-89015948D01*
X113434899Y-88937370D01*
X113430848Y-88934171D01*
X113430844Y-88934167D01*
X113258089Y-88797734D01*
X113217026Y-88739817D01*
X113213794Y-88668894D01*
X113249419Y-88607482D01*
X113263013Y-88596273D01*
X113266884Y-88593512D01*
X113383255Y-88510506D01*
X113547315Y-88347017D01*
X113682470Y-88158929D01*
X113693219Y-88137181D01*
X113782796Y-87955934D01*
X113782797Y-87955932D01*
X113785090Y-87951292D01*
X113852420Y-87729683D01*
X113882652Y-87500053D01*
X113883562Y-87462817D01*
X113884257Y-87434377D01*
X113884257Y-87434373D01*
X113884339Y-87431012D01*
X113873023Y-87293370D01*
X113865785Y-87205330D01*
X113865784Y-87205324D01*
X113865361Y-87200179D01*
X113831272Y-87064463D01*
X113810196Y-86980556D01*
X113810195Y-86980552D01*
X113808937Y-86975545D01*
X113806793Y-86970613D01*
X113718642Y-86767880D01*
X113718640Y-86767877D01*
X113716582Y-86763143D01*
X113590776Y-86568677D01*
X113571851Y-86547878D01*
X113505829Y-86475321D01*
X113434899Y-86397370D01*
X113430848Y-86394171D01*
X113430844Y-86394167D01*
X113258089Y-86257734D01*
X113217026Y-86199817D01*
X113213794Y-86128894D01*
X113249419Y-86067482D01*
X113263013Y-86056273D01*
X113266884Y-86053512D01*
X113383255Y-85970506D01*
X113547315Y-85807017D01*
X113563551Y-85784423D01*
X113629644Y-85692444D01*
X113682470Y-85618929D01*
X113711430Y-85560334D01*
X113782796Y-85415934D01*
X113782797Y-85415932D01*
X113785090Y-85411292D01*
X113852420Y-85189683D01*
X113882652Y-84960053D01*
X113883697Y-84917287D01*
X113884257Y-84894377D01*
X113884257Y-84894373D01*
X113884339Y-84891012D01*
X113874149Y-84767073D01*
X113865785Y-84665330D01*
X113865784Y-84665324D01*
X113865361Y-84660179D01*
X113825127Y-84500000D01*
X113810196Y-84440556D01*
X113810195Y-84440552D01*
X113808937Y-84435545D01*
X113806878Y-84430809D01*
X113718642Y-84227880D01*
X113718640Y-84227877D01*
X113716582Y-84223143D01*
X113590776Y-84028677D01*
X113434899Y-83857370D01*
X113430848Y-83854171D01*
X113430844Y-83854167D01*
X113258089Y-83717734D01*
X113217026Y-83659817D01*
X113213794Y-83588894D01*
X113249419Y-83527482D01*
X113263013Y-83516273D01*
X113266884Y-83513512D01*
X113383255Y-83430506D01*
X113547315Y-83267017D01*
X113554783Y-83256625D01*
X113593095Y-83203307D01*
X113682470Y-83078929D01*
X113694084Y-83055431D01*
X113782796Y-82875934D01*
X113782797Y-82875932D01*
X113785090Y-82871292D01*
X113852420Y-82649683D01*
X113882652Y-82420053D01*
X113884339Y-82351012D01*
X113872108Y-82202245D01*
X113865785Y-82125330D01*
X113865784Y-82125324D01*
X113865361Y-82120179D01*
X113808937Y-81895545D01*
X113806878Y-81890809D01*
X113718642Y-81687880D01*
X113718640Y-81687877D01*
X113716582Y-81683143D01*
X113590776Y-81488677D01*
X113434899Y-81317370D01*
X113430848Y-81314171D01*
X113430844Y-81314167D01*
X113257189Y-81177023D01*
X113257184Y-81177020D01*
X113253135Y-81173822D01*
X113248619Y-81171329D01*
X113248616Y-81171327D01*
X113054891Y-81064385D01*
X113054887Y-81064383D01*
X113050367Y-81061888D01*
X112894215Y-81006592D01*
X112836679Y-80964998D01*
X112810763Y-80898900D01*
X112824697Y-80829285D01*
X112847180Y-80798724D01*
X113272247Y-80373657D01*
X113280537Y-80366113D01*
X113287018Y-80362000D01*
X113333659Y-80312332D01*
X113336413Y-80309491D01*
X113356134Y-80289770D01*
X113358612Y-80286575D01*
X113366318Y-80277553D01*
X113368775Y-80274937D01*
X113396586Y-80245321D01*
X113403308Y-80233093D01*
X113406346Y-80227568D01*
X113417199Y-80211045D01*
X113424753Y-80201306D01*
X113429613Y-80195041D01*
X113447176Y-80154457D01*
X113452383Y-80143827D01*
X113473695Y-80105060D01*
X113475666Y-80097383D01*
X113475668Y-80097378D01*
X113478732Y-80085442D01*
X113485138Y-80066730D01*
X113490034Y-80055417D01*
X113493181Y-80048145D01*
X113496342Y-80028192D01*
X113500097Y-80004481D01*
X113502504Y-79992860D01*
X113511528Y-79957711D01*
X113511528Y-79957710D01*
X113513500Y-79950030D01*
X113513500Y-79929769D01*
X113515051Y-79910058D01*
X113516979Y-79897885D01*
X113518219Y-79890057D01*
X113514059Y-79846046D01*
X113513500Y-79834189D01*
X113513500Y-75900000D01*
X117086496Y-75900000D01*
X117106458Y-76089928D01*
X117165473Y-76271556D01*
X117260960Y-76436944D01*
X117334137Y-76518215D01*
X117364853Y-76582221D01*
X117366500Y-76602524D01*
X117366500Y-80221233D01*
X117365973Y-80232416D01*
X117364298Y-80239909D01*
X117364547Y-80247835D01*
X117364547Y-80247836D01*
X117366438Y-80307986D01*
X117366500Y-80311945D01*
X117366500Y-80339856D01*
X117366997Y-80343790D01*
X117366997Y-80343791D01*
X117367005Y-80343856D01*
X117367938Y-80355693D01*
X117369327Y-80399889D01*
X117374978Y-80419339D01*
X117378987Y-80438700D01*
X117381526Y-80458797D01*
X117384445Y-80466168D01*
X117384445Y-80466170D01*
X117397804Y-80499912D01*
X117401649Y-80511142D01*
X117411771Y-80545983D01*
X117413982Y-80553593D01*
X117418015Y-80560412D01*
X117418017Y-80560417D01*
X117424293Y-80571028D01*
X117432988Y-80588776D01*
X117440448Y-80607617D01*
X117445110Y-80614033D01*
X117445110Y-80614034D01*
X117466436Y-80643387D01*
X117472952Y-80653307D01*
X117476822Y-80659850D01*
X117495458Y-80691362D01*
X117509779Y-80705683D01*
X117522619Y-80720716D01*
X117534528Y-80737107D01*
X117563152Y-80760787D01*
X117568605Y-80765298D01*
X117577384Y-80773288D01*
X124652878Y-87848783D01*
X124686904Y-87911095D01*
X124689093Y-87924706D01*
X124691367Y-87946341D01*
X124703348Y-88060334D01*
X124706458Y-88089928D01*
X124765473Y-88271556D01*
X124860960Y-88436944D01*
X124865378Y-88441851D01*
X124865379Y-88441852D01*
X124945839Y-88531212D01*
X124988747Y-88578866D01*
X125143248Y-88691118D01*
X125149276Y-88693802D01*
X125149278Y-88693803D01*
X125276542Y-88750464D01*
X125317712Y-88768794D01*
X125411112Y-88788647D01*
X125498056Y-88807128D01*
X125498061Y-88807128D01*
X125504513Y-88808500D01*
X125695487Y-88808500D01*
X125701939Y-88807128D01*
X125701944Y-88807128D01*
X125788887Y-88788647D01*
X125882288Y-88768794D01*
X125923458Y-88750464D01*
X126050722Y-88693803D01*
X126050724Y-88693802D01*
X126056752Y-88691118D01*
X126211253Y-88578866D01*
X126254161Y-88531212D01*
X126334621Y-88441852D01*
X126334622Y-88441851D01*
X126339040Y-88436944D01*
X126434527Y-88271556D01*
X126493542Y-88089928D01*
X126496338Y-88063332D01*
X126512814Y-87906565D01*
X126513504Y-87900000D01*
X126504623Y-87815501D01*
X126494232Y-87716635D01*
X126494232Y-87716633D01*
X126493542Y-87710072D01*
X126434527Y-87528444D01*
X126427205Y-87515761D01*
X126342341Y-87368774D01*
X126339040Y-87363056D01*
X126241626Y-87254866D01*
X126215675Y-87226045D01*
X126215674Y-87226044D01*
X126211253Y-87221134D01*
X126086774Y-87130694D01*
X126062094Y-87112763D01*
X126062093Y-87112762D01*
X126056752Y-87108882D01*
X126050724Y-87106198D01*
X126050722Y-87106197D01*
X125888319Y-87033891D01*
X125888318Y-87033891D01*
X125882288Y-87031206D01*
X125788888Y-87011353D01*
X125701944Y-86992872D01*
X125701939Y-86992872D01*
X125695487Y-86991500D01*
X125639594Y-86991500D01*
X125571473Y-86971498D01*
X125550499Y-86954595D01*
X118670405Y-80074500D01*
X118636379Y-80012188D01*
X118633500Y-79985405D01*
X118633500Y-76602524D01*
X118653502Y-76534403D01*
X118665858Y-76518221D01*
X118739040Y-76436944D01*
X118834527Y-76271556D01*
X118893542Y-76089928D01*
X118913504Y-75900000D01*
X118901881Y-75789416D01*
X118894232Y-75716635D01*
X118894232Y-75716633D01*
X118893542Y-75710072D01*
X118834527Y-75528444D01*
X118739040Y-75363056D01*
X118611253Y-75221134D01*
X118456752Y-75108882D01*
X118450724Y-75106198D01*
X118450722Y-75106197D01*
X118288319Y-75033891D01*
X118288318Y-75033891D01*
X118282288Y-75031206D01*
X118177658Y-75008966D01*
X118101944Y-74992872D01*
X118101939Y-74992872D01*
X118095487Y-74991500D01*
X117904513Y-74991500D01*
X117898061Y-74992872D01*
X117898056Y-74992872D01*
X117822342Y-75008966D01*
X117717712Y-75031206D01*
X117711682Y-75033891D01*
X117711681Y-75033891D01*
X117549278Y-75106197D01*
X117549276Y-75106198D01*
X117543248Y-75108882D01*
X117388747Y-75221134D01*
X117260960Y-75363056D01*
X117165473Y-75528444D01*
X117106458Y-75710072D01*
X117105768Y-75716633D01*
X117105768Y-75716635D01*
X117098119Y-75789416D01*
X117086496Y-75900000D01*
X113513500Y-75900000D01*
X113513500Y-72873004D01*
X113533502Y-72804883D01*
X113567229Y-72769791D01*
X113572728Y-72765941D01*
X113582959Y-72758777D01*
X114725777Y-72758777D01*
X114735074Y-72770793D01*
X114778069Y-72800898D01*
X114787555Y-72806376D01*
X114978993Y-72895645D01*
X114989285Y-72899391D01*
X115193309Y-72954059D01*
X115204104Y-72955962D01*
X115414525Y-72974372D01*
X115425475Y-72974372D01*
X115635896Y-72955962D01*
X115646691Y-72954059D01*
X115850715Y-72899391D01*
X115861007Y-72895645D01*
X116052445Y-72806376D01*
X116061931Y-72800898D01*
X116105764Y-72770207D01*
X116114139Y-72759729D01*
X116107071Y-72746281D01*
X115432812Y-72072022D01*
X115418868Y-72064408D01*
X115417035Y-72064539D01*
X115410420Y-72068790D01*
X114732207Y-72747003D01*
X114725777Y-72758777D01*
X113582959Y-72758777D01*
X113677124Y-72692842D01*
X113695270Y-72680136D01*
X113695273Y-72680134D01*
X113699781Y-72676977D01*
X113856977Y-72519781D01*
X113944894Y-72394223D01*
X113981331Y-72342185D01*
X113981332Y-72342183D01*
X113984488Y-72337676D01*
X113986811Y-72332694D01*
X113986814Y-72332689D01*
X114036081Y-72227035D01*
X114082999Y-72173750D01*
X114151276Y-72154289D01*
X114219236Y-72174831D01*
X114264471Y-72227035D01*
X114313623Y-72332441D01*
X114319103Y-72341932D01*
X114349794Y-72385765D01*
X114360271Y-72394140D01*
X114373718Y-72387072D01*
X115047978Y-71712812D01*
X115055592Y-71698868D01*
X115055461Y-71697035D01*
X115051210Y-71690420D01*
X114372997Y-71012207D01*
X114361223Y-71005777D01*
X114349207Y-71015074D01*
X114319103Y-71058068D01*
X114313623Y-71067559D01*
X114264471Y-71172965D01*
X114217553Y-71226250D01*
X114149276Y-71245711D01*
X114081316Y-71225169D01*
X114036081Y-71172965D01*
X113986814Y-71067311D01*
X113986811Y-71067306D01*
X113984488Y-71062324D01*
X113953180Y-71017611D01*
X113860136Y-70884730D01*
X113860134Y-70884727D01*
X113856977Y-70880219D01*
X113699781Y-70723023D01*
X113695273Y-70719866D01*
X113695270Y-70719864D01*
X113613650Y-70662713D01*
X113581599Y-70640271D01*
X114725860Y-70640271D01*
X114732928Y-70653718D01*
X115407188Y-71327978D01*
X115421132Y-71335592D01*
X115422965Y-71335461D01*
X115429580Y-71331210D01*
X116107793Y-70652997D01*
X116114223Y-70641223D01*
X116104926Y-70629207D01*
X116061931Y-70599102D01*
X116052445Y-70593624D01*
X115861007Y-70504355D01*
X115850715Y-70500609D01*
X115646691Y-70445941D01*
X115635896Y-70444038D01*
X115425475Y-70425628D01*
X115414525Y-70425628D01*
X115204104Y-70444038D01*
X115193309Y-70445941D01*
X114989285Y-70500609D01*
X114978993Y-70504355D01*
X114787559Y-70593623D01*
X114778068Y-70599103D01*
X114734235Y-70629794D01*
X114725860Y-70640271D01*
X113581599Y-70640271D01*
X113517677Y-70595512D01*
X113512695Y-70593189D01*
X113512690Y-70593186D01*
X113321178Y-70503883D01*
X113321177Y-70503882D01*
X113316196Y-70501560D01*
X113310888Y-70500138D01*
X113310886Y-70500137D01*
X113232132Y-70479035D01*
X113101463Y-70444022D01*
X112880000Y-70424647D01*
X112658537Y-70444022D01*
X112527868Y-70479035D01*
X112449114Y-70500137D01*
X112449112Y-70500138D01*
X112443804Y-70501560D01*
X112438823Y-70503882D01*
X112438822Y-70503883D01*
X112247311Y-70593186D01*
X112247306Y-70593189D01*
X112242324Y-70595512D01*
X112237817Y-70598668D01*
X112237815Y-70598669D01*
X112064730Y-70719864D01*
X112064727Y-70719866D01*
X112060219Y-70723023D01*
X111903023Y-70880219D01*
X111899866Y-70884727D01*
X111899864Y-70884730D01*
X111806820Y-71017611D01*
X111775512Y-71062324D01*
X111773189Y-71067306D01*
X111773186Y-71067311D01*
X111696201Y-71232406D01*
X111681560Y-71263804D01*
X111624022Y-71478537D01*
X111604647Y-71700000D01*
X111624022Y-71921463D01*
X111641958Y-71988399D01*
X111674640Y-72110369D01*
X111681560Y-72136196D01*
X111683882Y-72141177D01*
X111683883Y-72141178D01*
X111773186Y-72332689D01*
X111773189Y-72332694D01*
X111775512Y-72337676D01*
X111778668Y-72342183D01*
X111778669Y-72342185D01*
X111815107Y-72394223D01*
X111903023Y-72519781D01*
X112060219Y-72676977D01*
X112064727Y-72680134D01*
X112064730Y-72680136D01*
X112082876Y-72692842D01*
X112187273Y-72765941D01*
X112192771Y-72769791D01*
X112237099Y-72825248D01*
X112246500Y-72873004D01*
X112246500Y-79555405D01*
X112226498Y-79623526D01*
X112209595Y-79644500D01*
X110723595Y-81130500D01*
X110661283Y-81164526D01*
X110590468Y-81159461D01*
X110533632Y-81116914D01*
X110508821Y-81050394D01*
X110508500Y-81041405D01*
X110508500Y-69634500D01*
X110528502Y-69566379D01*
X110582158Y-69519886D01*
X110634500Y-69508500D01*
X121526761Y-69508500D01*
X121594882Y-69528502D01*
G37*
%TD.AperFunction*%
%TD*%
M02*
