%TF.GenerationSoftware,KiCad,Pcbnew,(6.0.11)*%
%TF.CreationDate,2023-04-10T14:51:40-04:00*%
%TF.ProjectId,IMU-pcb,494d552d-7063-4622-9e6b-696361645f70,rev?*%
%TF.SameCoordinates,Original*%
%TF.FileFunction,Legend,Bot*%
%TF.FilePolarity,Positive*%
%FSLAX46Y46*%
G04 Gerber Fmt 4.6, Leading zero omitted, Abs format (unit mm)*
G04 Created by KiCad (PCBNEW (6.0.11)) date 2023-04-10 14:51:40*
%MOMM*%
%LPD*%
G01*
G04 APERTURE LIST*
%ADD10C,0.150000*%
G04 APERTURE END LIST*
D10*
X176252380Y-107061666D02*
X175776190Y-107061666D01*
X176347619Y-107347380D02*
X176014285Y-106347380D01*
X175680952Y-107347380D01*
X175347619Y-106680714D02*
X175347619Y-107347380D01*
X175347619Y-106775952D02*
X175300000Y-106728333D01*
X175204761Y-106680714D01*
X175061904Y-106680714D01*
X174966666Y-106728333D01*
X174919047Y-106823571D01*
X174919047Y-107347380D01*
X174014285Y-106680714D02*
X174014285Y-107490238D01*
X174061904Y-107585476D01*
X174109523Y-107633095D01*
X174204761Y-107680714D01*
X174347619Y-107680714D01*
X174442857Y-107633095D01*
X174014285Y-107299761D02*
X174109523Y-107347380D01*
X174300000Y-107347380D01*
X174395238Y-107299761D01*
X174442857Y-107252142D01*
X174490476Y-107156904D01*
X174490476Y-106871190D01*
X174442857Y-106775952D01*
X174395238Y-106728333D01*
X174300000Y-106680714D01*
X174109523Y-106680714D01*
X174014285Y-106728333D01*
X173157142Y-107299761D02*
X173252380Y-107347380D01*
X173442857Y-107347380D01*
X173538095Y-107299761D01*
X173585714Y-107204523D01*
X173585714Y-106823571D01*
X173538095Y-106728333D01*
X173442857Y-106680714D01*
X173252380Y-106680714D01*
X173157142Y-106728333D01*
X173109523Y-106823571D01*
X173109523Y-106918809D01*
X173585714Y-107014047D01*
X172538095Y-107347380D02*
X172633333Y-107299761D01*
X172680952Y-107204523D01*
X172680952Y-106347380D01*
X171728571Y-107347380D02*
X171728571Y-106823571D01*
X171776190Y-106728333D01*
X171871428Y-106680714D01*
X172061904Y-106680714D01*
X172157142Y-106728333D01*
X171728571Y-107299761D02*
X171823809Y-107347380D01*
X172061904Y-107347380D01*
X172157142Y-107299761D01*
X172204761Y-107204523D01*
X172204761Y-107109285D01*
X172157142Y-107014047D01*
X172061904Y-106966428D01*
X171823809Y-106966428D01*
X171728571Y-106918809D01*
X170490476Y-107347380D02*
X170490476Y-106347380D01*
X170490476Y-106823571D02*
X169919047Y-106823571D01*
X169919047Y-107347380D02*
X169919047Y-106347380D01*
X169014285Y-106680714D02*
X169014285Y-107347380D01*
X169442857Y-106680714D02*
X169442857Y-107204523D01*
X169395238Y-107299761D01*
X169300000Y-107347380D01*
X169157142Y-107347380D01*
X169061904Y-107299761D01*
X169014285Y-107252142D01*
X168109523Y-107347380D02*
X168109523Y-106347380D01*
X168109523Y-107299761D02*
X168204761Y-107347380D01*
X168395238Y-107347380D01*
X168490476Y-107299761D01*
X168538095Y-107252142D01*
X168585714Y-107156904D01*
X168585714Y-106871190D01*
X168538095Y-106775952D01*
X168490476Y-106728333D01*
X168395238Y-106680714D01*
X168204761Y-106680714D01*
X168109523Y-106728333D01*
X167204761Y-107347380D02*
X167204761Y-106823571D01*
X167252380Y-106728333D01*
X167347619Y-106680714D01*
X167538095Y-106680714D01*
X167633333Y-106728333D01*
X167204761Y-107299761D02*
X167300000Y-107347380D01*
X167538095Y-107347380D01*
X167633333Y-107299761D01*
X167680952Y-107204523D01*
X167680952Y-107109285D01*
X167633333Y-107014047D01*
X167538095Y-106966428D01*
X167300000Y-106966428D01*
X167204761Y-106918809D01*
X166728571Y-107347380D02*
X166728571Y-106347380D01*
X166633333Y-106966428D02*
X166347619Y-107347380D01*
X166347619Y-106680714D02*
X166728571Y-107061666D01*
X176204761Y-108862142D02*
X176252380Y-108909761D01*
X176395238Y-108957380D01*
X176490476Y-108957380D01*
X176633333Y-108909761D01*
X176728571Y-108814523D01*
X176776190Y-108719285D01*
X176823809Y-108528809D01*
X176823809Y-108385952D01*
X176776190Y-108195476D01*
X176728571Y-108100238D01*
X176633333Y-108005000D01*
X176490476Y-107957380D01*
X176395238Y-107957380D01*
X176252380Y-108005000D01*
X176204761Y-108052619D01*
X175633333Y-108957380D02*
X175728571Y-108909761D01*
X175776190Y-108862142D01*
X175823809Y-108766904D01*
X175823809Y-108481190D01*
X175776190Y-108385952D01*
X175728571Y-108338333D01*
X175633333Y-108290714D01*
X175490476Y-108290714D01*
X175395238Y-108338333D01*
X175347619Y-108385952D01*
X175300000Y-108481190D01*
X175300000Y-108766904D01*
X175347619Y-108862142D01*
X175395238Y-108909761D01*
X175490476Y-108957380D01*
X175633333Y-108957380D01*
X174871428Y-108957380D02*
X174871428Y-108290714D01*
X174871428Y-108481190D02*
X174823809Y-108385952D01*
X174776190Y-108338333D01*
X174680952Y-108290714D01*
X174585714Y-108290714D01*
X173871428Y-108909761D02*
X173966666Y-108957380D01*
X174157142Y-108957380D01*
X174252380Y-108909761D01*
X174300000Y-108814523D01*
X174300000Y-108433571D01*
X174252380Y-108338333D01*
X174157142Y-108290714D01*
X173966666Y-108290714D01*
X173871428Y-108338333D01*
X173823809Y-108433571D01*
X173823809Y-108528809D01*
X174300000Y-108624047D01*
X173490476Y-108290714D02*
X173252380Y-108957380D01*
X173014285Y-108290714D02*
X173252380Y-108957380D01*
X173347619Y-109195476D01*
X173395238Y-109243095D01*
X173490476Y-109290714D01*
X171919047Y-108909761D02*
X171776190Y-108957380D01*
X171538095Y-108957380D01*
X171442857Y-108909761D01*
X171395238Y-108862142D01*
X171347619Y-108766904D01*
X171347619Y-108671666D01*
X171395238Y-108576428D01*
X171442857Y-108528809D01*
X171538095Y-108481190D01*
X171728571Y-108433571D01*
X171823809Y-108385952D01*
X171871428Y-108338333D01*
X171919047Y-108243095D01*
X171919047Y-108147857D01*
X171871428Y-108052619D01*
X171823809Y-108005000D01*
X171728571Y-107957380D01*
X171490476Y-107957380D01*
X171347619Y-108005000D01*
X170919047Y-108957380D02*
X170919047Y-107957380D01*
X170490476Y-108957380D02*
X170490476Y-108433571D01*
X170538095Y-108338333D01*
X170633333Y-108290714D01*
X170776190Y-108290714D01*
X170871428Y-108338333D01*
X170919047Y-108385952D01*
X169633333Y-108909761D02*
X169728571Y-108957380D01*
X169919047Y-108957380D01*
X170014285Y-108909761D01*
X170061904Y-108814523D01*
X170061904Y-108433571D01*
X170014285Y-108338333D01*
X169919047Y-108290714D01*
X169728571Y-108290714D01*
X169633333Y-108338333D01*
X169585714Y-108433571D01*
X169585714Y-108528809D01*
X170061904Y-108624047D01*
X169157142Y-108957380D02*
X169157142Y-108290714D01*
X169157142Y-108481190D02*
X169109523Y-108385952D01*
X169061904Y-108338333D01*
X168966666Y-108290714D01*
X168871428Y-108290714D01*
X168538095Y-108957380D02*
X168538095Y-108290714D01*
X168538095Y-107957380D02*
X168585714Y-108005000D01*
X168538095Y-108052619D01*
X168490476Y-108005000D01*
X168538095Y-107957380D01*
X168538095Y-108052619D01*
X167633333Y-108957380D02*
X167633333Y-107957380D01*
X167633333Y-108909761D02*
X167728571Y-108957380D01*
X167919047Y-108957380D01*
X168014285Y-108909761D01*
X168061904Y-108862142D01*
X168109523Y-108766904D01*
X168109523Y-108481190D01*
X168061904Y-108385952D01*
X168014285Y-108338333D01*
X167919047Y-108290714D01*
X167728571Y-108290714D01*
X167633333Y-108338333D01*
X166728571Y-108957380D02*
X166728571Y-108433571D01*
X166776190Y-108338333D01*
X166871428Y-108290714D01*
X167061904Y-108290714D01*
X167157142Y-108338333D01*
X166728571Y-108909761D02*
X166823809Y-108957380D01*
X167061904Y-108957380D01*
X167157142Y-108909761D01*
X167204761Y-108814523D01*
X167204761Y-108719285D01*
X167157142Y-108624047D01*
X167061904Y-108576428D01*
X166823809Y-108576428D01*
X166728571Y-108528809D01*
X166252380Y-108290714D02*
X166252380Y-108957380D01*
X166252380Y-108385952D02*
X166204761Y-108338333D01*
X166109523Y-108290714D01*
X165966666Y-108290714D01*
X165871428Y-108338333D01*
X165823809Y-108433571D01*
X165823809Y-108957380D01*
X136297619Y-108930952D02*
X136297619Y-106430952D01*
X135345238Y-106430952D01*
X135107142Y-106550000D01*
X134988095Y-106669047D01*
X134869047Y-106907142D01*
X134869047Y-107264285D01*
X134988095Y-107502380D01*
X135107142Y-107621428D01*
X135345238Y-107740476D01*
X136297619Y-107740476D01*
X132607142Y-108930952D02*
X133797619Y-108930952D01*
X133797619Y-106430952D01*
X131892857Y-108216666D02*
X130702380Y-108216666D01*
X132130952Y-108930952D02*
X131297619Y-106430952D01*
X130464285Y-108930952D01*
X129630952Y-108930952D02*
X129630952Y-106430952D01*
X128202380Y-108930952D01*
X128202380Y-106430952D01*
X127011904Y-107621428D02*
X126178571Y-107621428D01*
X125821428Y-108930952D02*
X127011904Y-108930952D01*
X127011904Y-106430952D01*
X125821428Y-106430952D01*
X125107142Y-106430952D02*
X123678571Y-106430952D01*
X124392857Y-108930952D02*
X124392857Y-106430952D01*
X121178571Y-107264285D02*
X120583333Y-108930952D01*
X119988095Y-107264285D01*
X117726190Y-108930952D02*
X119154761Y-108930952D01*
X118440476Y-108930952D02*
X118440476Y-106430952D01*
X118678571Y-106788095D01*
X118916666Y-107026190D01*
X119154761Y-107145238D01*
X116654761Y-108692857D02*
X116535714Y-108811904D01*
X116654761Y-108930952D01*
X116773809Y-108811904D01*
X116654761Y-108692857D01*
X116654761Y-108930952D01*
X114154761Y-108930952D02*
X115583333Y-108930952D01*
X114869047Y-108930952D02*
X114869047Y-106430952D01*
X115107142Y-106788095D01*
X115345238Y-107026190D01*
X115583333Y-107145238D01*
X113083333Y-108692857D02*
X112964285Y-108811904D01*
X113083333Y-108930952D01*
X113202380Y-108811904D01*
X113083333Y-108692857D01*
X113083333Y-108930952D01*
X110583333Y-108930952D02*
X112011904Y-108930952D01*
X111297619Y-108930952D02*
X111297619Y-106430952D01*
X111535714Y-106788095D01*
X111773809Y-107026190D01*
X112011904Y-107145238D01*
%TO.C,*%
G36*
X131928877Y-97140561D02*
G01*
X131912362Y-97393134D01*
X131880319Y-97706517D01*
X131831413Y-98045374D01*
X131768038Y-98381823D01*
X131690387Y-98715303D01*
X131598656Y-99045254D01*
X131493042Y-99371117D01*
X131373740Y-99692332D01*
X131240945Y-100008340D01*
X131094853Y-100318579D01*
X130935660Y-100622492D01*
X130763562Y-100919517D01*
X130578753Y-101209096D01*
X130510457Y-101309923D01*
X130385401Y-101487609D01*
X130260120Y-101656136D01*
X130132437Y-101818153D01*
X130000170Y-101976308D01*
X129861141Y-102133248D01*
X129713170Y-102291622D01*
X129554078Y-102454078D01*
X129465569Y-102541614D01*
X129305649Y-102694422D01*
X129148379Y-102837287D01*
X128991111Y-102972389D01*
X128831197Y-103101907D01*
X128665988Y-103228021D01*
X128492837Y-103352909D01*
X128309096Y-103478752D01*
X128182720Y-103561558D01*
X127891488Y-103739753D01*
X127592967Y-103905376D01*
X127287779Y-104058216D01*
X126976549Y-104198060D01*
X126659901Y-104324698D01*
X126338459Y-104437917D01*
X126012846Y-104537506D01*
X125683688Y-104623253D01*
X125351607Y-104694947D01*
X125017229Y-104752376D01*
X124681176Y-104795328D01*
X124344073Y-104823592D01*
X124312165Y-104825566D01*
X124267166Y-104828356D01*
X124226592Y-104830879D01*
X124193926Y-104832918D01*
X124172653Y-104834257D01*
X124155705Y-104835071D01*
X124117653Y-104836041D01*
X124067757Y-104836624D01*
X124007895Y-104836847D01*
X123939947Y-104836735D01*
X123865792Y-104836316D01*
X123787309Y-104835613D01*
X123706378Y-104834654D01*
X123624878Y-104833464D01*
X123544688Y-104832068D01*
X123467687Y-104830493D01*
X123395756Y-104828765D01*
X123330772Y-104826909D01*
X123274616Y-104824951D01*
X123229167Y-104822918D01*
X123196303Y-104820834D01*
X123193367Y-104820596D01*
X122891737Y-104791520D01*
X122600295Y-104753936D01*
X122316696Y-104707372D01*
X122038592Y-104651356D01*
X121763638Y-104585416D01*
X121489487Y-104509079D01*
X121213791Y-104421873D01*
X121129533Y-104393289D01*
X120972322Y-104337568D01*
X120823095Y-104281150D01*
X120677864Y-104222394D01*
X120532641Y-104159660D01*
X120383436Y-104091307D01*
X120226262Y-104015695D01*
X120204448Y-104004959D01*
X120062032Y-103933470D01*
X119929842Y-103864379D01*
X119804444Y-103795716D01*
X119682403Y-103725513D01*
X119560286Y-103651803D01*
X119434658Y-103572615D01*
X119302084Y-103485982D01*
X119295428Y-103481563D01*
X119061486Y-103320507D01*
X118837592Y-103154739D01*
X118621316Y-102982250D01*
X118410227Y-102801032D01*
X118201897Y-102609074D01*
X117993895Y-102404369D01*
X117774261Y-102172659D01*
X117545398Y-101910658D01*
X117328399Y-101639767D01*
X117123470Y-101360269D01*
X116930818Y-101072448D01*
X116750648Y-100776584D01*
X116583167Y-100472961D01*
X116474528Y-100257871D01*
X116330108Y-99944182D01*
X116199310Y-99624946D01*
X116082305Y-99300721D01*
X116041655Y-99171065D01*
X116444930Y-99171065D01*
X116445206Y-99174918D01*
X116449099Y-99190365D01*
X116456346Y-99214692D01*
X116466057Y-99244796D01*
X116471337Y-99260164D01*
X116482707Y-99289423D01*
X116491737Y-99306875D01*
X116497792Y-99311193D01*
X116501469Y-99309712D01*
X116500208Y-99315257D01*
X116499874Y-99316030D01*
X116500411Y-99327559D01*
X116504875Y-99347393D01*
X116511996Y-99371740D01*
X116520501Y-99396812D01*
X116529115Y-99418817D01*
X116536567Y-99433966D01*
X116541584Y-99438467D01*
X116543934Y-99440143D01*
X116542585Y-99451331D01*
X116542355Y-99452229D01*
X116541535Y-99462648D01*
X116548158Y-99461369D01*
X116553683Y-99458886D01*
X116552424Y-99464246D01*
X116551161Y-99470416D01*
X116553300Y-99486374D01*
X116558958Y-99506072D01*
X116566478Y-99524928D01*
X116574204Y-99538365D01*
X116580479Y-99541803D01*
X116583511Y-99540699D01*
X116582134Y-99546396D01*
X116581662Y-99551106D01*
X116585420Y-99567986D01*
X116594074Y-99593312D01*
X116606632Y-99623941D01*
X116619133Y-99652450D01*
X116637569Y-99694673D01*
X116657195Y-99739775D01*
X116675432Y-99781837D01*
X116780741Y-100013592D01*
X116912781Y-100277594D01*
X117056646Y-100539891D01*
X117210888Y-100797854D01*
X117374057Y-101048855D01*
X117525720Y-101264534D01*
X117728119Y-101529808D01*
X117941563Y-101785893D01*
X118165558Y-102032422D01*
X118399612Y-102269029D01*
X118643232Y-102495347D01*
X118895924Y-102711009D01*
X119157194Y-102915651D01*
X119426550Y-103108904D01*
X119703499Y-103290402D01*
X119987546Y-103459780D01*
X120278200Y-103616670D01*
X120574966Y-103760706D01*
X120877351Y-103891522D01*
X121184863Y-104008751D01*
X121497007Y-104112027D01*
X121536496Y-104124124D01*
X121586395Y-104139442D01*
X121633852Y-104154043D01*
X121674931Y-104166714D01*
X121705693Y-104176245D01*
X121723836Y-104181696D01*
X121761602Y-104192374D01*
X121807402Y-104204750D01*
X121858746Y-104218201D01*
X121913141Y-104232109D01*
X121968096Y-104245853D01*
X122021118Y-104258811D01*
X122069717Y-104270364D01*
X122111401Y-104279892D01*
X122143677Y-104286772D01*
X122164055Y-104290387D01*
X122180758Y-104292886D01*
X122213973Y-104298891D01*
X122246039Y-104305697D01*
X122281014Y-104313818D01*
X122322724Y-104323039D01*
X122353403Y-104328652D01*
X122375124Y-104330590D01*
X122389963Y-104328786D01*
X122399994Y-104323173D01*
X122407293Y-104313683D01*
X122413933Y-104300249D01*
X122426507Y-104257088D01*
X122426050Y-104210873D01*
X122412020Y-104166570D01*
X122384885Y-104126966D01*
X122382614Y-104124468D01*
X122365480Y-104103752D01*
X122351793Y-104084478D01*
X122348681Y-104079328D01*
X122345107Y-104070786D01*
X122345832Y-104061837D01*
X122352060Y-104049634D01*
X122364999Y-104031332D01*
X122385853Y-104004085D01*
X122389078Y-103999906D01*
X122420939Y-103958249D01*
X122444471Y-103925605D01*
X122460420Y-103899431D01*
X122469529Y-103877186D01*
X122472543Y-103856329D01*
X122470205Y-103834319D01*
X122463260Y-103808613D01*
X122452453Y-103776672D01*
X122449115Y-103766809D01*
X122437377Y-103728245D01*
X122427218Y-103689422D01*
X122420532Y-103657424D01*
X122411945Y-103605252D01*
X122345033Y-103542079D01*
X122341323Y-103538560D01*
X122300066Y-103496271D01*
X122270290Y-103458452D01*
X122250413Y-103422797D01*
X122238857Y-103386998D01*
X122238348Y-103384781D01*
X122230535Y-103366294D01*
X122215761Y-103352659D01*
X122191379Y-103342182D01*
X122154739Y-103333168D01*
X122132339Y-103327774D01*
X122114854Y-103321747D01*
X122108157Y-103316847D01*
X122110497Y-103306734D01*
X122119378Y-103285265D01*
X122133132Y-103257424D01*
X122136737Y-103250797D01*
X122265516Y-103250797D01*
X122267265Y-103268643D01*
X122270759Y-103290398D01*
X122271504Y-103294601D01*
X122282996Y-103339083D01*
X122300571Y-103386005D01*
X122322189Y-103431066D01*
X122345812Y-103469966D01*
X122369400Y-103498405D01*
X122402293Y-103522520D01*
X122448055Y-103541601D01*
X122491268Y-103552820D01*
X122524958Y-103556785D01*
X122547276Y-103553146D01*
X122557500Y-103541901D01*
X122562833Y-103532546D01*
X122579356Y-103526995D01*
X122587409Y-103525822D01*
X122600850Y-103516417D01*
X122615041Y-103495320D01*
X122622590Y-103483389D01*
X122642600Y-103457801D01*
X122664553Y-103435082D01*
X122687032Y-103409313D01*
X122707294Y-103375235D01*
X122721442Y-103339462D01*
X122726761Y-103307556D01*
X122724596Y-103298099D01*
X122714718Y-103278593D01*
X122699551Y-103257527D01*
X122689296Y-103244169D01*
X122669849Y-103213979D01*
X122654309Y-103184155D01*
X122630142Y-103129551D01*
X122606268Y-103077365D01*
X122586002Y-103036624D01*
X122568150Y-103006099D01*
X122551518Y-102984562D01*
X122534914Y-102970786D01*
X122517143Y-102963542D01*
X122497011Y-102961602D01*
X122473324Y-102963740D01*
X122444890Y-102968725D01*
X122420942Y-102974369D01*
X122395438Y-102984674D01*
X122374312Y-103000384D01*
X122355414Y-103023723D01*
X122336590Y-103056911D01*
X122315691Y-103102171D01*
X122305623Y-103125319D01*
X122288932Y-103164285D01*
X122277222Y-103193605D01*
X122269848Y-103215989D01*
X122266162Y-103234150D01*
X122265516Y-103250797D01*
X122136737Y-103250797D01*
X122149885Y-103226624D01*
X122167763Y-103196280D01*
X122184893Y-103169806D01*
X122199399Y-103150616D01*
X122211673Y-103135168D01*
X122230092Y-103106018D01*
X122241348Y-103079812D01*
X122242745Y-103075101D01*
X122259055Y-103037288D01*
X122285510Y-102997394D01*
X122323209Y-102953964D01*
X122373251Y-102905547D01*
X122395559Y-102885569D01*
X122421263Y-102863920D01*
X122440244Y-102850345D01*
X122454727Y-102843318D01*
X122466934Y-102841314D01*
X122470736Y-102841635D01*
X122489595Y-102845597D01*
X122518103Y-102853268D01*
X122553053Y-102863622D01*
X122591238Y-102875634D01*
X122629452Y-102888279D01*
X122664490Y-102900531D01*
X122693144Y-102911364D01*
X122712209Y-102919754D01*
X122713887Y-102920758D01*
X122723833Y-102930652D01*
X122737174Y-102949656D01*
X122754588Y-102978892D01*
X122776751Y-103019484D01*
X122804340Y-103072553D01*
X122877472Y-103215526D01*
X122861741Y-103236804D01*
X122852210Y-103251937D01*
X122847508Y-103269470D01*
X122851384Y-103288397D01*
X122862233Y-103307556D01*
X122864571Y-103311684D01*
X122887802Y-103342301D01*
X122929595Y-103394027D01*
X122902708Y-103453686D01*
X122898448Y-103463414D01*
X122886901Y-103492942D01*
X122878847Y-103518378D01*
X122875822Y-103535076D01*
X122881378Y-103557465D01*
X122898605Y-103578345D01*
X122924077Y-103590964D01*
X122928505Y-103592200D01*
X122937904Y-103597719D01*
X122942001Y-103609159D01*
X122942899Y-103630991D01*
X122942629Y-103641673D01*
X122938369Y-103664748D01*
X122927791Y-103679965D01*
X122921638Y-103686708D01*
X122907443Y-103705179D01*
X122889477Y-103730651D01*
X122870195Y-103759726D01*
X122860973Y-103774024D01*
X122844569Y-103798600D01*
X122832769Y-103813678D01*
X122823250Y-103821426D01*
X122813690Y-103824011D01*
X122801766Y-103823603D01*
X122797383Y-103823162D01*
X122782058Y-103819021D01*
X122770831Y-103808530D01*
X122759126Y-103787852D01*
X122754042Y-103777143D01*
X122744211Y-103753389D01*
X122738552Y-103735308D01*
X122730522Y-103719671D01*
X122708108Y-103703633D01*
X122676035Y-103692859D01*
X122644608Y-103693930D01*
X122617244Y-103708945D01*
X122608872Y-103716735D01*
X122601847Y-103726707D01*
X122597671Y-103740425D01*
X122595315Y-103761607D01*
X122593753Y-103793973D01*
X122592833Y-103815150D01*
X122590981Y-103839721D01*
X122588051Y-103854218D01*
X122583290Y-103861643D01*
X122575945Y-103865001D01*
X122572227Y-103866383D01*
X122565534Y-103873684D01*
X122563906Y-103887127D01*
X122567696Y-103907864D01*
X122577259Y-103937049D01*
X122592949Y-103975834D01*
X122615121Y-104025371D01*
X122644129Y-104086813D01*
X122648640Y-104096214D01*
X122671946Y-104145209D01*
X122689435Y-104183063D01*
X122701830Y-104211657D01*
X122709853Y-104232871D01*
X122714227Y-104248586D01*
X122715675Y-104260682D01*
X122714918Y-104271039D01*
X122714519Y-104275174D01*
X122715947Y-104296566D01*
X122720939Y-104323855D01*
X122728205Y-104351861D01*
X122736455Y-104375406D01*
X122744396Y-104389310D01*
X122745160Y-104389970D01*
X122747803Y-104391218D01*
X122753344Y-104392532D01*
X122763488Y-104394117D01*
X122779938Y-104396181D01*
X122804400Y-104398930D01*
X122838578Y-104402570D01*
X122884176Y-104407308D01*
X122942899Y-104413350D01*
X122946369Y-104413707D01*
X122996513Y-104418964D01*
X123045037Y-104424224D01*
X123088638Y-104429115D01*
X123124013Y-104433267D01*
X123147858Y-104436311D01*
X123174180Y-104439355D01*
X123211932Y-104442758D01*
X123254630Y-104445914D01*
X123297135Y-104448406D01*
X123394240Y-104453229D01*
X123478093Y-104355614D01*
X123500444Y-104329736D01*
X123526044Y-104300468D01*
X123547191Y-104276714D01*
X123562147Y-104260420D01*
X123569177Y-104253531D01*
X123571234Y-104251790D01*
X123576131Y-104237461D01*
X123575184Y-104215282D01*
X123568959Y-104189742D01*
X123558026Y-104165330D01*
X123553262Y-104156471D01*
X123542726Y-104130756D01*
X123537530Y-104108427D01*
X123537203Y-104095265D01*
X123542353Y-104081847D01*
X123557776Y-104071495D01*
X123578975Y-104063637D01*
X123615493Y-104059567D01*
X123651556Y-104064911D01*
X123681332Y-104079301D01*
X123687880Y-104084207D01*
X123702968Y-104093231D01*
X123716411Y-104094319D01*
X123735535Y-104088748D01*
X123744054Y-104085955D01*
X123777071Y-104078171D01*
X123814580Y-104074290D01*
X123859062Y-104074280D01*
X123912999Y-104078112D01*
X123978873Y-104085755D01*
X124000190Y-104088413D01*
X124047721Y-104093456D01*
X124093187Y-104097202D01*
X124132365Y-104099331D01*
X124161033Y-104099524D01*
X124220217Y-104097154D01*
X124236424Y-104143904D01*
X124248981Y-104175870D01*
X124263989Y-104201636D01*
X124280481Y-104215800D01*
X124299932Y-104220129D01*
X124301927Y-104220023D01*
X124320815Y-104212106D01*
X124343457Y-104193312D01*
X124367698Y-104166029D01*
X124391384Y-104132645D01*
X124412358Y-104095547D01*
X124422322Y-104073906D01*
X124429614Y-104052928D01*
X124434743Y-104029279D01*
X124438584Y-103998884D01*
X124442016Y-103957666D01*
X124444130Y-103922312D01*
X124445122Y-103820182D01*
X124438789Y-103721098D01*
X124425390Y-103630167D01*
X124421995Y-103612383D01*
X124416425Y-103579982D01*
X124412583Y-103553190D01*
X124411150Y-103536493D01*
X124411008Y-103531276D01*
X124406287Y-103500564D01*
X124396371Y-103467471D01*
X124383287Y-103437750D01*
X124369065Y-103417155D01*
X124364304Y-103412591D01*
X124351450Y-103403859D01*
X124335603Y-103400781D01*
X124310919Y-103401815D01*
X124294883Y-103403987D01*
X124249067Y-103417567D01*
X124202378Y-103440683D01*
X124159840Y-103471035D01*
X124147590Y-103482747D01*
X124125881Y-103506396D01*
X124101296Y-103535528D01*
X124077156Y-103566314D01*
X124069057Y-103576795D01*
X124042179Y-103608613D01*
X124012521Y-103640272D01*
X123982511Y-103669484D01*
X123954577Y-103693961D01*
X123931146Y-103711412D01*
X123914645Y-103719549D01*
X123906388Y-103718758D01*
X123886118Y-103713468D01*
X123857807Y-103704465D01*
X123824632Y-103692901D01*
X123789771Y-103679931D01*
X123756399Y-103666708D01*
X123727696Y-103654384D01*
X123706837Y-103644114D01*
X123681867Y-103624881D01*
X123663861Y-103600629D01*
X123659315Y-103590590D01*
X123656221Y-103580263D01*
X123654753Y-103567473D01*
X123654940Y-103549754D01*
X123656812Y-103524637D01*
X123660397Y-103489655D01*
X123665725Y-103442340D01*
X123669349Y-103409331D01*
X123673885Y-103363846D01*
X123677499Y-103322584D01*
X123679888Y-103289068D01*
X123680751Y-103266823D01*
X123680397Y-103247086D01*
X123677767Y-103228693D01*
X123670890Y-103215939D01*
X123657820Y-103203450D01*
X123652984Y-103199479D01*
X123638110Y-103188545D01*
X123629443Y-103184155D01*
X123625234Y-103181296D01*
X123614305Y-103169115D01*
X123600356Y-103150616D01*
X123594248Y-103142150D01*
X123580294Y-103126117D01*
X123567212Y-103118811D01*
X123550290Y-103117077D01*
X123532073Y-103119902D01*
X123503737Y-103129098D01*
X123472328Y-103143031D01*
X123433328Y-103160958D01*
X123387284Y-103176002D01*
X123349909Y-103179747D01*
X123320631Y-103172227D01*
X123298878Y-103153479D01*
X123294190Y-103144440D01*
X123286667Y-103121235D01*
X123277810Y-103085057D01*
X123267476Y-103035297D01*
X123255518Y-102971347D01*
X123251468Y-102948781D01*
X123243350Y-102903202D01*
X123236378Y-102863583D01*
X123230929Y-102832100D01*
X123227382Y-102810931D01*
X123226115Y-102802252D01*
X123226117Y-102802187D01*
X123232768Y-102798236D01*
X123248474Y-102796596D01*
X123259313Y-102797162D01*
X123268762Y-102802517D01*
X123270944Y-102817092D01*
X123271650Y-102829239D01*
X123277357Y-102863603D01*
X123287668Y-102904176D01*
X123301231Y-102946017D01*
X123316691Y-102984183D01*
X123339562Y-103033889D01*
X123366686Y-103029930D01*
X123394973Y-103025046D01*
X123443041Y-103013358D01*
X123486321Y-102998726D01*
X123521445Y-102982369D01*
X123545047Y-102965500D01*
X123545832Y-102964698D01*
X123561514Y-102939858D01*
X123572149Y-102905513D01*
X123576231Y-102866446D01*
X123579089Y-102849378D01*
X123593178Y-102831998D01*
X123594157Y-102831338D01*
X123602527Y-102823786D01*
X123607269Y-102812933D01*
X123609350Y-102794917D01*
X123609738Y-102765875D01*
X123608188Y-102727335D01*
X123602204Y-102694073D01*
X123589868Y-102665292D01*
X123569252Y-102636610D01*
X123538431Y-102603647D01*
X123518889Y-102584599D01*
X123492237Y-102561878D01*
X123470088Y-102549429D01*
X123449425Y-102546414D01*
X123427231Y-102551997D01*
X123400489Y-102565340D01*
X123379947Y-102576049D01*
X123361122Y-102583985D01*
X123350749Y-102585979D01*
X123351703Y-102580716D01*
X123361166Y-102566772D01*
X123377753Y-102546444D01*
X123399750Y-102521968D01*
X123403593Y-102517849D01*
X123433316Y-102484964D01*
X123454227Y-102459042D01*
X123468208Y-102437190D01*
X123477140Y-102416518D01*
X123482904Y-102394131D01*
X123486763Y-102375538D01*
X123492047Y-102355018D01*
X123496880Y-102344758D01*
X123502301Y-102341960D01*
X123503068Y-102342107D01*
X123513072Y-102348286D01*
X123530171Y-102361742D01*
X123551147Y-102379971D01*
X123578783Y-102403739D01*
X123633632Y-102443746D01*
X123687018Y-102473510D01*
X123737072Y-102492073D01*
X123781923Y-102498474D01*
X123799097Y-102500951D01*
X123810691Y-102511068D01*
X123811149Y-102512861D01*
X123812874Y-102527767D01*
X123814764Y-102554460D01*
X123816684Y-102590531D01*
X123818502Y-102633576D01*
X123820085Y-102681185D01*
X123824645Y-102838709D01*
X123776921Y-102851992D01*
X123753832Y-102858736D01*
X123730796Y-102867459D01*
X123717740Y-102876962D01*
X123711934Y-102889529D01*
X123710652Y-102907441D01*
X123710969Y-102913974D01*
X123713743Y-102935311D01*
X123718524Y-102961045D01*
X123724267Y-102986390D01*
X123729930Y-103006559D01*
X123734470Y-103016767D01*
X123734547Y-103016817D01*
X123743013Y-103015904D01*
X123762898Y-103011951D01*
X123791336Y-103005566D01*
X123825462Y-102997363D01*
X123859210Y-102989632D01*
X123897044Y-102982291D01*
X123929676Y-102977306D01*
X123952519Y-102975469D01*
X123970960Y-102974766D01*
X124007247Y-102969234D01*
X124047526Y-102957481D01*
X124094476Y-102938649D01*
X124150777Y-102911876D01*
X124166499Y-102903921D01*
X124212631Y-102878951D01*
X124247315Y-102855890D01*
X124272438Y-102831998D01*
X124289885Y-102804535D01*
X124301543Y-102770764D01*
X124309297Y-102727945D01*
X124315034Y-102673338D01*
X124316949Y-102648095D01*
X124319417Y-102594008D01*
X124319993Y-102539454D01*
X124318778Y-102487494D01*
X124315871Y-102441190D01*
X124311374Y-102403603D01*
X124305385Y-102377796D01*
X124301862Y-102370853D01*
X124287460Y-102351439D01*
X124265065Y-102326096D01*
X124237049Y-102297098D01*
X124205786Y-102266720D01*
X124173650Y-102237237D01*
X124143013Y-102210921D01*
X124116248Y-102190048D01*
X124095730Y-102176891D01*
X124074933Y-102168976D01*
X124044844Y-102161356D01*
X124013081Y-102156169D01*
X124012763Y-102156133D01*
X123982975Y-102151355D01*
X123956791Y-102144701D01*
X123939844Y-102137602D01*
X123932356Y-102130795D01*
X123918066Y-102111302D01*
X123904155Y-102086503D01*
X123893615Y-102061993D01*
X123889437Y-102043362D01*
X123888165Y-102037824D01*
X123882084Y-102020324D01*
X123872124Y-101994776D01*
X123859558Y-101964535D01*
X123831592Y-101895467D01*
X123798570Y-101804275D01*
X123768489Y-101710620D01*
X123742491Y-101618339D01*
X123721718Y-101531264D01*
X123707310Y-101453233D01*
X123704494Y-101435878D01*
X123698380Y-101404805D01*
X123692156Y-101380140D01*
X123686806Y-101366074D01*
X123685997Y-101364956D01*
X123672291Y-101354707D01*
X123644544Y-101340333D01*
X123602674Y-101321796D01*
X123546596Y-101299055D01*
X123537870Y-101295626D01*
X123484373Y-101274773D01*
X123442365Y-101258929D01*
X123409815Y-101247563D01*
X123384696Y-101240145D01*
X123364977Y-101236146D01*
X123348630Y-101235036D01*
X123333625Y-101236285D01*
X123317933Y-101239364D01*
X123303529Y-101241823D01*
X123270847Y-101244057D01*
X123239093Y-101242861D01*
X123215849Y-101241132D01*
X123194730Y-101242899D01*
X123179674Y-101249710D01*
X123167387Y-101255965D01*
X123136949Y-101260518D01*
X123095851Y-101256048D01*
X123043515Y-101242524D01*
X123033327Y-101239366D01*
X123007788Y-101231519D01*
X122989674Y-101226054D01*
X122982386Y-101224003D01*
X122980842Y-101226413D01*
X122974090Y-101239500D01*
X122963348Y-101261403D01*
X122950057Y-101289216D01*
X122937870Y-101315379D01*
X122895475Y-101412978D01*
X122859092Y-101507543D01*
X122830395Y-101594791D01*
X122820967Y-101625834D01*
X122811898Y-101652439D01*
X122804502Y-101668769D01*
X122797698Y-101677122D01*
X122790405Y-101679797D01*
X122767085Y-101680081D01*
X122737873Y-101673067D01*
X122709518Y-101655098D01*
X122701670Y-101649266D01*
X122677303Y-101634582D01*
X122655280Y-101625329D01*
X122634461Y-101617567D01*
X122613900Y-101604266D01*
X122594105Y-101584156D01*
X122573611Y-101555438D01*
X122550952Y-101516311D01*
X122524660Y-101464977D01*
X122501866Y-101419393D01*
X122481678Y-101381271D01*
X122465041Y-101353459D01*
X122450648Y-101334234D01*
X122437194Y-101321871D01*
X122423370Y-101314645D01*
X122407872Y-101310831D01*
X122392343Y-101306735D01*
X122363143Y-101287980D01*
X122340140Y-101256180D01*
X122336423Y-101246962D01*
X122338795Y-101236956D01*
X122352252Y-101225779D01*
X122352275Y-101225763D01*
X122369577Y-101215728D01*
X122395208Y-101203015D01*
X122423629Y-101190373D01*
X122447799Y-101180680D01*
X122465547Y-101175165D01*
X122475696Y-101175056D01*
X122481355Y-101179782D01*
X122483452Y-101183328D01*
X122492260Y-101198921D01*
X122506512Y-101224522D01*
X122525101Y-101258133D01*
X122546920Y-101297754D01*
X122570862Y-101341388D01*
X122584578Y-101366181D01*
X122607619Y-101406686D01*
X122628164Y-101441390D01*
X122645083Y-101468455D01*
X122657249Y-101486041D01*
X122663531Y-101492312D01*
X122668194Y-101489481D01*
X122676675Y-101475484D01*
X122684797Y-101453183D01*
X122694768Y-101418327D01*
X122712388Y-101355144D01*
X122725494Y-101305551D01*
X122734181Y-101269159D01*
X122738546Y-101245581D01*
X122738683Y-101234429D01*
X122737366Y-101232451D01*
X122725509Y-101223013D01*
X122704626Y-101210358D01*
X122678191Y-101196656D01*
X122671209Y-101193200D01*
X122643668Y-101177758D01*
X122621206Y-101162461D01*
X122608134Y-101150170D01*
X122599358Y-101136611D01*
X122582503Y-101106451D01*
X122565481Y-101072074D01*
X122551004Y-101039084D01*
X122541784Y-101013087D01*
X122539640Y-101004733D01*
X122537985Y-100988565D01*
X122542679Y-100973597D01*
X122555166Y-100953380D01*
X122566228Y-100934308D01*
X122580504Y-100903845D01*
X122592257Y-100872756D01*
X122607496Y-100834283D01*
X122626469Y-100806444D01*
X122649456Y-100791829D01*
X122677827Y-100789599D01*
X122712954Y-100798915D01*
X122729931Y-100804965D01*
X122751797Y-100811529D01*
X122765513Y-100814081D01*
X122765899Y-100814063D01*
X122776712Y-100807464D01*
X122792467Y-100791006D01*
X122810944Y-100767679D01*
X122829917Y-100740473D01*
X122847164Y-100712379D01*
X122860461Y-100686386D01*
X122871066Y-100658317D01*
X122878169Y-100625173D01*
X122879551Y-100588590D01*
X122875299Y-100545090D01*
X122865506Y-100491195D01*
X122862668Y-100477667D01*
X122854973Y-100443389D01*
X122848239Y-100419506D01*
X122841195Y-100402770D01*
X122832568Y-100389931D01*
X122821086Y-100377741D01*
X122815623Y-100372383D01*
X122807311Y-100363311D01*
X122800693Y-100353379D01*
X122795027Y-100340290D01*
X122789573Y-100321744D01*
X122783587Y-100295444D01*
X122776327Y-100259091D01*
X122767052Y-100210387D01*
X122757254Y-100165937D01*
X122731926Y-100088818D01*
X122696523Y-100019237D01*
X122649449Y-99954328D01*
X122589104Y-99891225D01*
X122563957Y-99869121D01*
X122534442Y-99848436D01*
X122508828Y-99837727D01*
X122489471Y-99832458D01*
X122437095Y-99815862D01*
X122380194Y-99795036D01*
X122378501Y-99794401D01*
X122349673Y-99787760D01*
X122311907Y-99784182D01*
X122270464Y-99783738D01*
X122230606Y-99786501D01*
X122197594Y-99792543D01*
X122194286Y-99793559D01*
X122175246Y-99800479D01*
X122145188Y-99812270D01*
X122106143Y-99828101D01*
X122060139Y-99847144D01*
X122009205Y-99868570D01*
X121955370Y-99891548D01*
X121939149Y-99898495D01*
X121885708Y-99921013D01*
X121835571Y-99941600D01*
X121790805Y-99959441D01*
X121753479Y-99973723D01*
X121725661Y-99983631D01*
X121709419Y-99988352D01*
X121701380Y-99990079D01*
X121677383Y-99997447D01*
X121649203Y-100009411D01*
X121614837Y-100026966D01*
X121572285Y-100051108D01*
X121519545Y-100082834D01*
X121502244Y-100093036D01*
X121475439Y-100107239D01*
X121454115Y-100116569D01*
X121441771Y-100119385D01*
X121434278Y-100115668D01*
X121419756Y-100100851D01*
X121404128Y-100077909D01*
X121392871Y-100060906D01*
X121374306Y-100038706D01*
X121357326Y-100024143D01*
X121349402Y-100018227D01*
X121330769Y-99997848D01*
X121314679Y-99972426D01*
X121314057Y-99971205D01*
X121295363Y-99941478D01*
X121275744Y-99924877D01*
X121253237Y-99919718D01*
X121250313Y-99919342D01*
X121241592Y-99912672D01*
X121232452Y-99895933D01*
X121221540Y-99866872D01*
X121209556Y-99835706D01*
X121184704Y-99784883D01*
X121154397Y-99734846D01*
X121120250Y-99687440D01*
X121083877Y-99644512D01*
X121046892Y-99607910D01*
X121010911Y-99579479D01*
X120977549Y-99561066D01*
X120948418Y-99554519D01*
X120944369Y-99554843D01*
X120922431Y-99562678D01*
X120894537Y-99579306D01*
X120863483Y-99602502D01*
X120832064Y-99630037D01*
X120803078Y-99659684D01*
X120779319Y-99689217D01*
X120747976Y-99733772D01*
X120709634Y-99729883D01*
X120700248Y-99729028D01*
X120679652Y-99729309D01*
X120668225Y-99736027D01*
X120663313Y-99751989D01*
X120662265Y-99780001D01*
X120663825Y-99793766D01*
X120670370Y-99822486D01*
X120681253Y-99860837D01*
X120695633Y-99906473D01*
X120712675Y-99957047D01*
X120731540Y-100010211D01*
X120751390Y-100063619D01*
X120771387Y-100114923D01*
X120790694Y-100161777D01*
X120808473Y-100201834D01*
X120823885Y-100232746D01*
X120844014Y-100266965D01*
X120877140Y-100315110D01*
X120912568Y-100358656D01*
X120947715Y-100394511D01*
X120979996Y-100419584D01*
X120980417Y-100419845D01*
X121017748Y-100435190D01*
X121064824Y-100442423D01*
X121118950Y-100441581D01*
X121177427Y-100432706D01*
X121237559Y-100415834D01*
X121287413Y-100398523D01*
X121341381Y-100479805D01*
X121315514Y-100511372D01*
X121306334Y-100522004D01*
X121264435Y-100561547D01*
X121215340Y-100597095D01*
X121165058Y-100624143D01*
X121144186Y-100633291D01*
X121113633Y-100646821D01*
X121088753Y-100657991D01*
X121079442Y-100661988D01*
X121058210Y-100669497D01*
X121043626Y-100672476D01*
X121043126Y-100672451D01*
X121031182Y-100666660D01*
X121013347Y-100652676D01*
X120993286Y-100633348D01*
X120985935Y-100625859D01*
X120962760Y-100603718D01*
X120932562Y-100576160D01*
X120898431Y-100545977D01*
X120863456Y-100515962D01*
X120854338Y-100508233D01*
X120814112Y-100473472D01*
X120771941Y-100436154D01*
X120732314Y-100400284D01*
X120699720Y-100369866D01*
X120698070Y-100368293D01*
X120668457Y-100341163D01*
X120639767Y-100316708D01*
X120615200Y-100297555D01*
X120597958Y-100286330D01*
X120591557Y-100282429D01*
X120571821Y-100267147D01*
X120545924Y-100244319D01*
X120516495Y-100216314D01*
X120486162Y-100185504D01*
X120470479Y-100169194D01*
X120442398Y-100140816D01*
X120417832Y-100117017D01*
X120398990Y-100099912D01*
X120388082Y-100091616D01*
X120386933Y-100091060D01*
X120366041Y-100086475D01*
X120339637Y-100087263D01*
X120330910Y-100088242D01*
X120317520Y-100088003D01*
X120302889Y-100084515D01*
X120284116Y-100076700D01*
X120258299Y-100063482D01*
X120222535Y-100043782D01*
X120192382Y-100026845D01*
X120164415Y-100009762D01*
X120146353Y-99994826D01*
X120136517Y-99979073D01*
X120133227Y-99959534D01*
X120134804Y-99933245D01*
X120139570Y-99897240D01*
X120140574Y-99890336D01*
X120147633Y-99857161D01*
X120159154Y-99828385D01*
X120178038Y-99796404D01*
X120190046Y-99777111D01*
X120211525Y-99737863D01*
X120228825Y-99699943D01*
X120240404Y-99666919D01*
X120244718Y-99642354D01*
X120249750Y-99624208D01*
X120266879Y-99611153D01*
X120295464Y-99606690D01*
X120303927Y-99606406D01*
X120334474Y-99600479D01*
X120358584Y-99588300D01*
X120372129Y-99571751D01*
X120375320Y-99557761D01*
X120378014Y-99532813D01*
X120379049Y-99504215D01*
X120381363Y-99468588D01*
X120389847Y-99435155D01*
X120406105Y-99403025D01*
X120431733Y-99369087D01*
X120468325Y-99330232D01*
X120493588Y-99306478D01*
X120547217Y-99265686D01*
X120604481Y-99235879D01*
X120669719Y-99214565D01*
X120700448Y-99208704D01*
X120761581Y-99205145D01*
X120830539Y-99209581D01*
X120904560Y-99221636D01*
X120980885Y-99240937D01*
X121056750Y-99267108D01*
X121074595Y-99274084D01*
X121109664Y-99287023D01*
X121135656Y-99294816D01*
X121155790Y-99298099D01*
X121173289Y-99297508D01*
X121191372Y-99293678D01*
X121225306Y-99279140D01*
X121257913Y-99250624D01*
X121284493Y-99208828D01*
X121295514Y-99182072D01*
X121298174Y-99157922D01*
X121289438Y-99136670D01*
X121268576Y-99113970D01*
X121226527Y-99080220D01*
X121170908Y-99044244D01*
X121108456Y-99010603D01*
X121042701Y-98980881D01*
X120977175Y-98956660D01*
X120915407Y-98939527D01*
X120860927Y-98931063D01*
X120831950Y-98927862D01*
X120800965Y-98922333D01*
X120777788Y-98915952D01*
X120760438Y-98910701D01*
X120725943Y-98903213D01*
X120681302Y-98895596D01*
X120629246Y-98888176D01*
X120572505Y-98881276D01*
X120513809Y-98875223D01*
X120455888Y-98870341D01*
X120401473Y-98866957D01*
X120353294Y-98865394D01*
X120234376Y-98863930D01*
X120196243Y-98802815D01*
X120158111Y-98741700D01*
X120100130Y-98706779D01*
X122166625Y-98706779D01*
X122269683Y-98760614D01*
X122290726Y-98771673D01*
X122512494Y-98896194D01*
X122732598Y-99034082D01*
X122949263Y-99183933D01*
X123160711Y-99344343D01*
X123365166Y-99513910D01*
X123560850Y-99691229D01*
X123745989Y-99874896D01*
X123918804Y-100063509D01*
X124026429Y-100187048D01*
X124077996Y-100140956D01*
X124109972Y-100112885D01*
X124195904Y-100042668D01*
X124285303Y-99977531D01*
X124381895Y-99914856D01*
X124489407Y-99852026D01*
X124567653Y-99810078D01*
X124696090Y-99747350D01*
X124837342Y-99684901D01*
X124990163Y-99623188D01*
X125153307Y-99562666D01*
X125325525Y-99503792D01*
X125505570Y-99447023D01*
X125692197Y-99392814D01*
X125884158Y-99341623D01*
X125908311Y-99335062D01*
X125919121Y-99331097D01*
X125946479Y-99331097D01*
X125946514Y-99331451D01*
X125949617Y-99341644D01*
X125957017Y-99362554D01*
X125967685Y-99391342D01*
X125980592Y-99425170D01*
X125982258Y-99429475D01*
X125995177Y-99462496D01*
X126006094Y-99489780D01*
X126013901Y-99508599D01*
X126017494Y-99516222D01*
X126018137Y-99516610D01*
X126020818Y-99513156D01*
X126024057Y-99500766D01*
X126028127Y-99477968D01*
X126033298Y-99443295D01*
X126039843Y-99395277D01*
X126039873Y-99395049D01*
X126044166Y-99360536D01*
X126047204Y-99331806D01*
X126048708Y-99311850D01*
X126048399Y-99303661D01*
X126047028Y-99303136D01*
X126035102Y-99304071D01*
X126015228Y-99308115D01*
X125991917Y-99314054D01*
X125969681Y-99320673D01*
X125953032Y-99326759D01*
X125946479Y-99331097D01*
X125919121Y-99331097D01*
X125925217Y-99328861D01*
X125931901Y-99323086D01*
X125930751Y-99316448D01*
X125929878Y-99314750D01*
X125923659Y-99300536D01*
X125913652Y-99276093D01*
X125901038Y-99244342D01*
X125886998Y-99208207D01*
X125874079Y-99175768D01*
X125847831Y-99117860D01*
X125822130Y-99072763D01*
X125796151Y-99039130D01*
X125769068Y-99015613D01*
X125761745Y-99011102D01*
X125739358Y-98998928D01*
X125708105Y-98983090D01*
X125671077Y-98965136D01*
X125631362Y-98946613D01*
X125605763Y-98934734D01*
X125572447Y-98918653D01*
X125546122Y-98905183D01*
X125529001Y-98895469D01*
X125523293Y-98890656D01*
X125527831Y-98886041D01*
X125542527Y-98873492D01*
X125565474Y-98854788D01*
X125594722Y-98831515D01*
X125628320Y-98805258D01*
X125638117Y-98797639D01*
X125679396Y-98764611D01*
X125710756Y-98737265D01*
X125734207Y-98713370D01*
X125751760Y-98690697D01*
X125765423Y-98667017D01*
X125777207Y-98640101D01*
X125781717Y-98625410D01*
X125788189Y-98596239D01*
X125795806Y-98554267D01*
X125804635Y-98499087D01*
X125814740Y-98430292D01*
X125826184Y-98347477D01*
X125839033Y-98250235D01*
X125840339Y-98240323D01*
X125845479Y-98204124D01*
X125850316Y-98174023D01*
X125854359Y-98152920D01*
X125857114Y-98143716D01*
X125857573Y-98143733D01*
X125862540Y-98151920D01*
X125871875Y-98171987D01*
X125884871Y-98202255D01*
X125900820Y-98241048D01*
X125919017Y-98286688D01*
X125938753Y-98337495D01*
X125940158Y-98341155D01*
X125961028Y-98394925D01*
X125981299Y-98446140D01*
X126000040Y-98492521D01*
X126016319Y-98531788D01*
X126029207Y-98561663D01*
X126037772Y-98579868D01*
X126042944Y-98589585D01*
X126055692Y-98611623D01*
X126069108Y-98630630D01*
X126084820Y-98647725D01*
X126104454Y-98664026D01*
X126129637Y-98680650D01*
X126161996Y-98698715D01*
X126203158Y-98719340D01*
X126254749Y-98743643D01*
X126318396Y-98772742D01*
X126366106Y-98794395D01*
X126303490Y-98843030D01*
X126277805Y-98863006D01*
X126234848Y-98896681D01*
X126201445Y-98923512D01*
X126176073Y-98944964D01*
X126157204Y-98962501D01*
X126143314Y-98977588D01*
X126132876Y-98991690D01*
X126124365Y-99006272D01*
X126116256Y-99022799D01*
X126112710Y-99031115D01*
X126103725Y-99057866D01*
X126094737Y-99091425D01*
X126086200Y-99129132D01*
X126078570Y-99168331D01*
X126072301Y-99206362D01*
X126067847Y-99240569D01*
X126065664Y-99268293D01*
X126066205Y-99286877D01*
X126069926Y-99293662D01*
X126071129Y-99293572D01*
X126084422Y-99291225D01*
X126108540Y-99286171D01*
X126140500Y-99279053D01*
X126177317Y-99270514D01*
X126186991Y-99268252D01*
X126222050Y-99260475D01*
X126250960Y-99254706D01*
X126270949Y-99251469D01*
X126279241Y-99251287D01*
X126280399Y-99255193D01*
X126284696Y-99272519D01*
X126291919Y-99302861D01*
X126294024Y-99311850D01*
X126301865Y-99345324D01*
X126314326Y-99399013D01*
X126329098Y-99463033D01*
X126345975Y-99536488D01*
X126364751Y-99618484D01*
X126385221Y-99708124D01*
X126407179Y-99804515D01*
X126430420Y-99906759D01*
X126454738Y-100013964D01*
X126479928Y-100125233D01*
X126497821Y-100204322D01*
X126522369Y-100312731D01*
X126545872Y-100416415D01*
X126568126Y-100514479D01*
X126588927Y-100606032D01*
X126608073Y-100690181D01*
X126625359Y-100766036D01*
X126640583Y-100832703D01*
X126653541Y-100889290D01*
X126664031Y-100934906D01*
X126671847Y-100968658D01*
X126676788Y-100989654D01*
X126678649Y-100997002D01*
X126681196Y-100996412D01*
X126694032Y-100990291D01*
X126714922Y-100979145D01*
X126740857Y-100964708D01*
X126768826Y-100948709D01*
X126795819Y-100932880D01*
X126818827Y-100918951D01*
X126834839Y-100908655D01*
X126840845Y-100903722D01*
X126840786Y-100903190D01*
X126838570Y-100892088D01*
X126833339Y-100867840D01*
X126825345Y-100831555D01*
X126814840Y-100784339D01*
X126802076Y-100727300D01*
X126787305Y-100661545D01*
X126770778Y-100588183D01*
X126752748Y-100508319D01*
X126733466Y-100423062D01*
X126713184Y-100333520D01*
X126692155Y-100240799D01*
X126670629Y-100146006D01*
X126648860Y-100050250D01*
X126627098Y-99954638D01*
X126605596Y-99860277D01*
X126584605Y-99768275D01*
X126564378Y-99679739D01*
X126545166Y-99595776D01*
X126527221Y-99517494D01*
X126510796Y-99446001D01*
X126496141Y-99382403D01*
X126483510Y-99327808D01*
X126473152Y-99283324D01*
X126465322Y-99250058D01*
X126460270Y-99229117D01*
X126458249Y-99221609D01*
X126450804Y-99221085D01*
X126431465Y-99222897D01*
X126403419Y-99226826D01*
X126369756Y-99232490D01*
X126338740Y-99237607D01*
X126309623Y-99241360D01*
X126288775Y-99242841D01*
X126279369Y-99241725D01*
X126278011Y-99231846D01*
X126284192Y-99214982D01*
X126295886Y-99195833D01*
X126310840Y-99178898D01*
X126316589Y-99174418D01*
X126343078Y-99163498D01*
X126375207Y-99160195D01*
X126408145Y-99164086D01*
X126437064Y-99174746D01*
X126457132Y-99191751D01*
X126462185Y-99198385D01*
X126468632Y-99202612D01*
X126479033Y-99203158D01*
X126496908Y-99200115D01*
X126525776Y-99193577D01*
X126617388Y-99168373D01*
X126723849Y-99130568D01*
X126830609Y-99084400D01*
X126933204Y-99031817D01*
X127027172Y-98974765D01*
X127109663Y-98915909D01*
X127227027Y-98817192D01*
X127337922Y-98705281D01*
X127442252Y-98580363D01*
X127539927Y-98442621D01*
X127630851Y-98292240D01*
X127714934Y-98129406D01*
X127792080Y-97954304D01*
X127862198Y-97767117D01*
X127883527Y-97699712D01*
X127959004Y-97699712D01*
X127961544Y-97702328D01*
X127974679Y-97711758D01*
X127997107Y-97726499D01*
X128026688Y-97745157D01*
X128061282Y-97766337D01*
X128080083Y-97777873D01*
X128116418Y-97801164D01*
X128148693Y-97823101D01*
X128173962Y-97841649D01*
X128189275Y-97854770D01*
X128190655Y-97856221D01*
X128204577Y-97872910D01*
X128217472Y-97892968D01*
X128229926Y-97917999D01*
X128242526Y-97949604D01*
X128255859Y-97989384D01*
X128270513Y-98038943D01*
X128287073Y-98099882D01*
X128306126Y-98173803D01*
X128308275Y-98182275D01*
X128321577Y-98234119D01*
X128333770Y-98280638D01*
X128344356Y-98320003D01*
X128352836Y-98350387D01*
X128358713Y-98369961D01*
X128361487Y-98376899D01*
X128361903Y-98376374D01*
X128365591Y-98365836D01*
X128372300Y-98343126D01*
X128381538Y-98310034D01*
X128392811Y-98268352D01*
X128405624Y-98219873D01*
X128419485Y-98166388D01*
X128421553Y-98158356D01*
X128436196Y-98102773D01*
X128450535Y-98050414D01*
X128463915Y-98003527D01*
X128475681Y-97964364D01*
X128485178Y-97935171D01*
X128491752Y-97918200D01*
X128505822Y-97892904D01*
X128523602Y-97869331D01*
X128546835Y-97846248D01*
X128577512Y-97821909D01*
X128617621Y-97794565D01*
X128669155Y-97762470D01*
X128772084Y-97700167D01*
X128670182Y-97638851D01*
X128651629Y-97627577D01*
X128615490Y-97604995D01*
X128583415Y-97584172D01*
X128558335Y-97567032D01*
X128543184Y-97555501D01*
X128541029Y-97553571D01*
X128526341Y-97537970D01*
X128512599Y-97518225D01*
X128499230Y-97492843D01*
X128485663Y-97460333D01*
X128471325Y-97419202D01*
X128455643Y-97367959D01*
X128438045Y-97305111D01*
X128417957Y-97229166D01*
X128413175Y-97210829D01*
X128399466Y-97159442D01*
X128386945Y-97114201D01*
X128376102Y-97076768D01*
X128367429Y-97048805D01*
X128361415Y-97031973D01*
X128358552Y-97027934D01*
X128358380Y-97028415D01*
X128355037Y-97039969D01*
X128348583Y-97063763D01*
X128339535Y-97097839D01*
X128328411Y-97140236D01*
X128315728Y-97188996D01*
X128302003Y-97242160D01*
X128284344Y-97309721D01*
X128268383Y-97367811D01*
X128254346Y-97414780D01*
X128241584Y-97452382D01*
X128229448Y-97482376D01*
X128217286Y-97506519D01*
X128204451Y-97526567D01*
X128190291Y-97544277D01*
X128183847Y-97550495D01*
X128163864Y-97566253D01*
X128135327Y-97586405D01*
X128101033Y-97609010D01*
X128063776Y-97632126D01*
X128039183Y-97647038D01*
X128007357Y-97666771D01*
X127981963Y-97683045D01*
X127965134Y-97694484D01*
X127959004Y-97699712D01*
X127883527Y-97699712D01*
X127925194Y-97568032D01*
X127980976Y-97357233D01*
X128029450Y-97134904D01*
X128070522Y-96901232D01*
X128074026Y-96878473D01*
X128083236Y-96815722D01*
X128091827Y-96753145D01*
X128099508Y-96693167D01*
X128105988Y-96638210D01*
X128110976Y-96590700D01*
X128114183Y-96553059D01*
X128115316Y-96527712D01*
X128115317Y-96485852D01*
X127919674Y-96481564D01*
X127906962Y-96481273D01*
X127807610Y-96477961D01*
X127719102Y-96472765D01*
X127637864Y-96465214D01*
X127560320Y-96454841D01*
X127482897Y-96441176D01*
X127402020Y-96423750D01*
X127314114Y-96402093D01*
X127304658Y-96399624D01*
X127257026Y-96386564D01*
X127208181Y-96372299D01*
X127163356Y-96358395D01*
X127127788Y-96346415D01*
X127122634Y-96344570D01*
X127088986Y-96333134D01*
X127066645Y-96327045D01*
X127053484Y-96325845D01*
X127047375Y-96329074D01*
X127044433Y-96333800D01*
X126977831Y-96440115D01*
X126917570Y-96534816D01*
X126875616Y-96599384D01*
X126862724Y-96619225D01*
X126812360Y-96694662D01*
X126765552Y-96762448D01*
X126721368Y-96823905D01*
X126678881Y-96880354D01*
X126637160Y-96933116D01*
X126595276Y-96983511D01*
X126552300Y-97032861D01*
X126504817Y-97086233D01*
X126525633Y-97090744D01*
X126528839Y-97091375D01*
X126545856Y-97094529D01*
X126551251Y-97095511D01*
X126575872Y-97099993D01*
X126617751Y-97107563D01*
X126670356Y-97117035D01*
X126732551Y-97128205D01*
X126803201Y-97140869D01*
X126881170Y-97154824D01*
X126965321Y-97169866D01*
X127054518Y-97185790D01*
X127147626Y-97202393D01*
X127184031Y-97208889D01*
X127305127Y-97230634D01*
X127411783Y-97250019D01*
X127504208Y-97267086D01*
X127582613Y-97281873D01*
X127647208Y-97294423D01*
X127698204Y-97304775D01*
X127735811Y-97312971D01*
X127760239Y-97319051D01*
X127771699Y-97323056D01*
X127781378Y-97329587D01*
X127803705Y-97354728D01*
X127814639Y-97384883D01*
X127814537Y-97417021D01*
X127803752Y-97448106D01*
X127782641Y-97475106D01*
X127751559Y-97494987D01*
X127748587Y-97496091D01*
X127742864Y-97497390D01*
X127735059Y-97498032D01*
X127724274Y-97497875D01*
X127709610Y-97496780D01*
X127690166Y-97494602D01*
X127665045Y-97491203D01*
X127633346Y-97486439D01*
X127594170Y-97480169D01*
X127546619Y-97472252D01*
X127489792Y-97462546D01*
X127422791Y-97450909D01*
X127344716Y-97437201D01*
X127254667Y-97421280D01*
X127151747Y-97403003D01*
X127035055Y-97382230D01*
X127009097Y-97377608D01*
X126910275Y-97360043D01*
X126815727Y-97343291D01*
X126726495Y-97327531D01*
X126643617Y-97312946D01*
X126568133Y-97299717D01*
X126501083Y-97288025D01*
X126443508Y-97278052D01*
X126396446Y-97269980D01*
X126360937Y-97263989D01*
X126338022Y-97260261D01*
X126328740Y-97258979D01*
X126327802Y-97259039D01*
X126314083Y-97264370D01*
X126293498Y-97276628D01*
X126270126Y-97293415D01*
X126215494Y-97334179D01*
X126137552Y-97386129D01*
X126055377Y-97433598D01*
X125967635Y-97477095D01*
X125872994Y-97517130D01*
X125770119Y-97554212D01*
X125657678Y-97588851D01*
X125534336Y-97621555D01*
X125398761Y-97652835D01*
X125249619Y-97683199D01*
X125238080Y-97685415D01*
X125189511Y-97694674D01*
X125144283Y-97703191D01*
X125105217Y-97710443D01*
X125075139Y-97715904D01*
X125056870Y-97719048D01*
X125044300Y-97721302D01*
X125026882Y-97725587D01*
X125020308Y-97728827D01*
X125019604Y-97729174D01*
X125021374Y-97731655D01*
X125032030Y-97743788D01*
X125051513Y-97765084D01*
X125078895Y-97794551D01*
X125113246Y-97831202D01*
X125153640Y-97874047D01*
X125199147Y-97922097D01*
X125248840Y-97974364D01*
X125301790Y-98029858D01*
X125332445Y-98061990D01*
X125384265Y-98116592D01*
X125432570Y-98167846D01*
X125476387Y-98214696D01*
X125514738Y-98256087D01*
X125546649Y-98290965D01*
X125571144Y-98318273D01*
X125587249Y-98336956D01*
X125593986Y-98345960D01*
X125600682Y-98367301D01*
X125600422Y-98400983D01*
X125588518Y-98432018D01*
X125566890Y-98457585D01*
X125537458Y-98474859D01*
X125502143Y-98481015D01*
X125498779Y-98480928D01*
X125475415Y-98477810D01*
X125457469Y-98471699D01*
X125456877Y-98471303D01*
X125447297Y-98462708D01*
X125428680Y-98444524D01*
X125402078Y-98417829D01*
X125368544Y-98383698D01*
X125329131Y-98343208D01*
X125284892Y-98297433D01*
X125236878Y-98247451D01*
X125186143Y-98194337D01*
X125137405Y-98143206D01*
X125084213Y-98087476D01*
X125032775Y-98033657D01*
X124984512Y-97983231D01*
X124940842Y-97937679D01*
X124903186Y-97898483D01*
X124872962Y-97867125D01*
X124851591Y-97845088D01*
X124772623Y-97764149D01*
X124322313Y-97820637D01*
X124317987Y-97926027D01*
X124296732Y-97889866D01*
X124285125Y-97869991D01*
X124274311Y-97853231D01*
X124263553Y-97841861D01*
X124250366Y-97835187D01*
X124232266Y-97832517D01*
X124206766Y-97833158D01*
X124171383Y-97836417D01*
X124123629Y-97841600D01*
X124048448Y-97849857D01*
X123950763Y-97861155D01*
X123864605Y-97871968D01*
X123787997Y-97882636D01*
X123718963Y-97893499D01*
X123655525Y-97904895D01*
X123595706Y-97917163D01*
X123537529Y-97930643D01*
X123479018Y-97945673D01*
X123418195Y-97962593D01*
X123272368Y-98008474D01*
X123089553Y-98078390D01*
X122913790Y-98160333D01*
X122744128Y-98254842D01*
X122579614Y-98362459D01*
X122419299Y-98483723D01*
X122262230Y-98619176D01*
X122166625Y-98706779D01*
X120100130Y-98706779D01*
X120043125Y-98672446D01*
X120017757Y-98657116D01*
X119973179Y-98629976D01*
X119929577Y-98603208D01*
X119890891Y-98579235D01*
X119861062Y-98560481D01*
X119847502Y-98551916D01*
X119788930Y-98517090D01*
X119736955Y-98490810D01*
X119687924Y-98471852D01*
X119638182Y-98458987D01*
X119584075Y-98450989D01*
X119521949Y-98446631D01*
X119500105Y-98445763D01*
X119464585Y-98445040D01*
X119440241Y-98445893D01*
X119424600Y-98448467D01*
X119415187Y-98452907D01*
X119412477Y-98455758D01*
X119404924Y-98470494D01*
X119395918Y-98496962D01*
X119385147Y-98536156D01*
X119372296Y-98589069D01*
X119364248Y-98623348D01*
X119355422Y-98660219D01*
X119348162Y-98689745D01*
X119343057Y-98709532D01*
X119340699Y-98717185D01*
X119339931Y-98717500D01*
X119328618Y-98719859D01*
X119306059Y-98723745D01*
X119275016Y-98728695D01*
X119238255Y-98734250D01*
X119208804Y-98738782D01*
X119156137Y-98748465D01*
X119111455Y-98759701D01*
X119070086Y-98773993D01*
X119027363Y-98792840D01*
X118978617Y-98817746D01*
X118958824Y-98827980D01*
X118928332Y-98842195D01*
X118905909Y-98850477D01*
X118893872Y-98851891D01*
X118890612Y-98849786D01*
X118880835Y-98836328D01*
X118872475Y-98816075D01*
X118863130Y-98784883D01*
X118784485Y-98789005D01*
X118768192Y-98790091D01*
X118725259Y-98794663D01*
X118683565Y-98801152D01*
X118649942Y-98808564D01*
X118644699Y-98810013D01*
X118608115Y-98820137D01*
X118566569Y-98831655D01*
X118528070Y-98842346D01*
X118522832Y-98843817D01*
X118473981Y-98859258D01*
X118428040Y-98877515D01*
X118381455Y-98900314D01*
X118330670Y-98929377D01*
X118272133Y-98966428D01*
X118231852Y-98991958D01*
X118174326Y-99025929D01*
X118117228Y-99057052D01*
X118063455Y-99083833D01*
X118015902Y-99104778D01*
X117977467Y-99118394D01*
X117971235Y-99120194D01*
X117958864Y-99123595D01*
X117947399Y-99125919D01*
X117934884Y-99127018D01*
X117919363Y-99126746D01*
X117898883Y-99124956D01*
X117871487Y-99121501D01*
X117835222Y-99116235D01*
X117788131Y-99109011D01*
X117728261Y-99099681D01*
X117686425Y-99092991D01*
X117645777Y-99085860D01*
X117615577Y-99079506D01*
X117593414Y-99073335D01*
X117576878Y-99066755D01*
X117563562Y-99059174D01*
X117563260Y-99058975D01*
X117547092Y-99049806D01*
X117527986Y-99042306D01*
X117503950Y-99036144D01*
X117472987Y-99030985D01*
X117433105Y-99026495D01*
X117382308Y-99022341D01*
X117318604Y-99018190D01*
X117296255Y-99016713D01*
X117244633Y-99012482D01*
X117193074Y-99007293D01*
X117146521Y-99001669D01*
X117109918Y-98996131D01*
X117107254Y-98995664D01*
X117067098Y-98989486D01*
X117018432Y-98983191D01*
X116967155Y-98977491D01*
X116919165Y-98973099D01*
X116894556Y-98971242D01*
X116845695Y-98968736D01*
X116807000Y-98969808D01*
X116775229Y-98975637D01*
X116747138Y-98987402D01*
X116719485Y-99006285D01*
X116689028Y-99033464D01*
X116652524Y-99070119D01*
X116596626Y-99127639D01*
X116522095Y-99148149D01*
X116499077Y-99154564D01*
X116471864Y-99162400D01*
X116452770Y-99168210D01*
X116444930Y-99171065D01*
X116041655Y-99171065D01*
X115979262Y-98972060D01*
X115890352Y-98639520D01*
X115815744Y-98303656D01*
X115755610Y-97965024D01*
X115710119Y-97624178D01*
X115708526Y-97609857D01*
X115699590Y-97527909D01*
X115691963Y-97454039D01*
X115685542Y-97386159D01*
X115680226Y-97322178D01*
X115675915Y-97260008D01*
X115672507Y-97197559D01*
X115669901Y-97132742D01*
X115667996Y-97063467D01*
X115666690Y-96987644D01*
X115665883Y-96903185D01*
X115665473Y-96808000D01*
X115665358Y-96700000D01*
X115665361Y-96681364D01*
X115665389Y-96662580D01*
X116039328Y-96662580D01*
X116039376Y-96753039D01*
X116039977Y-96841935D01*
X116041131Y-96926600D01*
X116042838Y-97004369D01*
X116045099Y-97072574D01*
X116047912Y-97128550D01*
X116054111Y-97220050D01*
X116079318Y-97505929D01*
X116112966Y-97782590D01*
X116155448Y-98052627D01*
X116207160Y-98318636D01*
X116268494Y-98583215D01*
X116279669Y-98627249D01*
X116296064Y-98689963D01*
X116312669Y-98751516D01*
X116328996Y-98810250D01*
X116344558Y-98864503D01*
X116358868Y-98912615D01*
X116371439Y-98952925D01*
X116381783Y-98983774D01*
X116389414Y-99003501D01*
X116393844Y-99010446D01*
X116402332Y-99006740D01*
X116420704Y-98996567D01*
X116446229Y-98981489D01*
X116476193Y-98963068D01*
X116594408Y-98891248D01*
X116835331Y-98757252D01*
X117085186Y-98634010D01*
X117342433Y-98522170D01*
X117605532Y-98422380D01*
X117872946Y-98335288D01*
X118143134Y-98261542D01*
X118215549Y-98244241D01*
X118390909Y-98206626D01*
X118570513Y-98173753D01*
X118751463Y-98146001D01*
X118930857Y-98123747D01*
X119105796Y-98107370D01*
X119273380Y-98097246D01*
X119430709Y-98093755D01*
X119536975Y-98093720D01*
X119549363Y-98062045D01*
X119549660Y-98061289D01*
X119573124Y-98008280D01*
X119604724Y-97946941D01*
X119642748Y-97880064D01*
X119685483Y-97810440D01*
X119731216Y-97740860D01*
X119778237Y-97674116D01*
X119824831Y-97612999D01*
X119864151Y-97564957D01*
X119995421Y-97419992D01*
X120137697Y-97284843D01*
X120290699Y-97159646D01*
X120454149Y-97044535D01*
X120482737Y-97027264D01*
X123300729Y-97027264D01*
X123300737Y-97027302D01*
X123308119Y-97030209D01*
X123328089Y-97035995D01*
X123358773Y-97044172D01*
X123398297Y-97054252D01*
X123444787Y-97065747D01*
X123496372Y-97078172D01*
X123511329Y-97081739D01*
X123580408Y-97098655D01*
X123637365Y-97113733D01*
X123684286Y-97127906D01*
X123723258Y-97142109D01*
X123756364Y-97157275D01*
X123785692Y-97174336D01*
X123813327Y-97194228D01*
X123841353Y-97217882D01*
X123871858Y-97246233D01*
X123880194Y-97254259D01*
X123900505Y-97274500D01*
X123919531Y-97294843D01*
X123938274Y-97316693D01*
X123957738Y-97341454D01*
X123978925Y-97370530D01*
X124002839Y-97405324D01*
X124030481Y-97447241D01*
X124062856Y-97497685D01*
X124100966Y-97558059D01*
X124145813Y-97629768D01*
X124150808Y-97637776D01*
X124183385Y-97689888D01*
X124209255Y-97730849D01*
X124229423Y-97762001D01*
X124244895Y-97784683D01*
X124256677Y-97800236D01*
X124265774Y-97809999D01*
X124273191Y-97815314D01*
X124279935Y-97817520D01*
X124287011Y-97817958D01*
X124310838Y-97817958D01*
X124300751Y-97659580D01*
X124299825Y-97644329D01*
X124296816Y-97584885D01*
X124294111Y-97516921D01*
X124291870Y-97445360D01*
X124291705Y-97438205D01*
X124508927Y-97438205D01*
X124516379Y-97467903D01*
X124520920Y-97474709D01*
X124535129Y-97492355D01*
X124557031Y-97517754D01*
X124585074Y-97549151D01*
X124617706Y-97584788D01*
X124653375Y-97622909D01*
X124690080Y-97661609D01*
X124721650Y-97694446D01*
X124745831Y-97718775D01*
X124764059Y-97735856D01*
X124777770Y-97746948D01*
X124788400Y-97753310D01*
X124797386Y-97756203D01*
X124806162Y-97756884D01*
X124822760Y-97756043D01*
X124850578Y-97753161D01*
X124883243Y-97748817D01*
X124916821Y-97743625D01*
X124947380Y-97738201D01*
X124970987Y-97733159D01*
X124983708Y-97729116D01*
X124984110Y-97728827D01*
X124984016Y-97723794D01*
X124977705Y-97713225D01*
X124964457Y-97696284D01*
X124943553Y-97672138D01*
X124914272Y-97639951D01*
X124875897Y-97598888D01*
X124827706Y-97548115D01*
X124804855Y-97524241D01*
X124764773Y-97482742D01*
X124727941Y-97445079D01*
X124695757Y-97412654D01*
X124669615Y-97386866D01*
X124650913Y-97369117D01*
X124641045Y-97360808D01*
X124637113Y-97358496D01*
X124607613Y-97349364D01*
X124578049Y-97352051D01*
X124550908Y-97364417D01*
X124528682Y-97384324D01*
X124513858Y-97409633D01*
X124508927Y-97438205D01*
X124291705Y-97438205D01*
X124290253Y-97375128D01*
X124289419Y-97311150D01*
X124289378Y-97304711D01*
X124289095Y-97247070D01*
X124289171Y-97201812D01*
X124289750Y-97166644D01*
X124290981Y-97139269D01*
X124293008Y-97117393D01*
X124295980Y-97098721D01*
X124300042Y-97080958D01*
X124305341Y-97061809D01*
X124306101Y-97059196D01*
X124317341Y-97023918D01*
X124330025Y-96991609D01*
X124345425Y-96960312D01*
X124361362Y-96933809D01*
X124920938Y-96933809D01*
X124928921Y-96955621D01*
X124930455Y-96958683D01*
X124944562Y-96979543D01*
X124960350Y-96994628D01*
X124964905Y-96996451D01*
X124984338Y-97001552D01*
X125018169Y-97009036D01*
X125066204Y-97018866D01*
X125128246Y-97031004D01*
X125204100Y-97045413D01*
X125293572Y-97062056D01*
X125396465Y-97080896D01*
X125512585Y-97101894D01*
X125641736Y-97125014D01*
X125643308Y-97125294D01*
X125740841Y-97142698D01*
X125834320Y-97159419D01*
X125922683Y-97175264D01*
X126004868Y-97190041D01*
X126079813Y-97203558D01*
X126146456Y-97215622D01*
X126203733Y-97226041D01*
X126250583Y-97234623D01*
X126285944Y-97241176D01*
X126308752Y-97245507D01*
X126317947Y-97247423D01*
X126325851Y-97246234D01*
X126343584Y-97236794D01*
X126367114Y-97220300D01*
X126393842Y-97198865D01*
X126421169Y-97174602D01*
X126446497Y-97149623D01*
X126467228Y-97126042D01*
X126491409Y-97095511D01*
X126474211Y-97091596D01*
X126466580Y-97089997D01*
X126443234Y-97085501D01*
X126407674Y-97078904D01*
X126361124Y-97070420D01*
X126304805Y-97060263D01*
X126239939Y-97048648D01*
X126167749Y-97035788D01*
X126089457Y-97021897D01*
X126006285Y-97007190D01*
X125919455Y-96991880D01*
X125830191Y-96976182D01*
X125739713Y-96960309D01*
X125649244Y-96944477D01*
X125560007Y-96928897D01*
X125473223Y-96913786D01*
X125390116Y-96899357D01*
X125311906Y-96885823D01*
X125239817Y-96873400D01*
X125175071Y-96862300D01*
X125118889Y-96852739D01*
X125072495Y-96844929D01*
X125037109Y-96839086D01*
X125013956Y-96835423D01*
X125004256Y-96834155D01*
X124991230Y-96835608D01*
X124963254Y-96848149D01*
X124939796Y-96870917D01*
X124924687Y-96900709D01*
X124921265Y-96914094D01*
X124920938Y-96933809D01*
X124361362Y-96933809D01*
X124364813Y-96928070D01*
X124389461Y-96892927D01*
X124420641Y-96852925D01*
X124459625Y-96806108D01*
X124507685Y-96750518D01*
X124639860Y-96599384D01*
X124467744Y-96556262D01*
X124295628Y-96513141D01*
X124195012Y-96522723D01*
X124163419Y-96525096D01*
X124116934Y-96527455D01*
X124061288Y-96529444D01*
X123999500Y-96530975D01*
X123934588Y-96531958D01*
X123869571Y-96532306D01*
X123848174Y-96532323D01*
X123793443Y-96532526D01*
X123744362Y-96532936D01*
X123702782Y-96533522D01*
X123670555Y-96534253D01*
X123649531Y-96535100D01*
X123641562Y-96536033D01*
X123640408Y-96538230D01*
X123634993Y-96551774D01*
X123626670Y-96574487D01*
X123616710Y-96602953D01*
X123613477Y-96612213D01*
X123602880Y-96639795D01*
X123590934Y-96665644D01*
X123576383Y-96691568D01*
X123557973Y-96719378D01*
X123534448Y-96750883D01*
X123504555Y-96787891D01*
X123467037Y-96832212D01*
X123420640Y-96885656D01*
X123395957Y-96913976D01*
X123365217Y-96949543D01*
X123338988Y-96980232D01*
X123318608Y-97004466D01*
X123305409Y-97020669D01*
X123300729Y-97027264D01*
X120482737Y-97027264D01*
X120627768Y-96939647D01*
X120811278Y-96845116D01*
X121004399Y-96761080D01*
X121206854Y-96687673D01*
X121418363Y-96625032D01*
X121638648Y-96573291D01*
X121867430Y-96532587D01*
X122104431Y-96503055D01*
X122161262Y-96497746D01*
X122311971Y-96486841D01*
X122466336Y-96480340D01*
X122626479Y-96478233D01*
X122794518Y-96480511D01*
X122972573Y-96487165D01*
X123162764Y-96498183D01*
X123255521Y-96504225D01*
X123353074Y-96510100D01*
X123436116Y-96514511D01*
X123504593Y-96517455D01*
X123558451Y-96518930D01*
X123597638Y-96518935D01*
X123622098Y-96517467D01*
X123631780Y-96514525D01*
X123632584Y-96512665D01*
X123635964Y-96498294D01*
X123639938Y-96474375D01*
X123643805Y-96444958D01*
X123644006Y-96443176D01*
X123645581Y-96422935D01*
X123646354Y-96397230D01*
X123646283Y-96364719D01*
X123645327Y-96324058D01*
X123643446Y-96273904D01*
X123640597Y-96212914D01*
X123636741Y-96139744D01*
X123631836Y-96053051D01*
X123628971Y-96003044D01*
X123625314Y-95937336D01*
X123622094Y-95877265D01*
X123619385Y-95824369D01*
X123617266Y-95780190D01*
X123615810Y-95746268D01*
X123615095Y-95724144D01*
X123615195Y-95715359D01*
X123616623Y-95716293D01*
X123624881Y-95727101D01*
X123639732Y-95748627D01*
X123660352Y-95779608D01*
X123685912Y-95818785D01*
X123715587Y-95864897D01*
X123748551Y-95916681D01*
X123783976Y-95972879D01*
X123798097Y-95995357D01*
X123834630Y-96053266D01*
X123869506Y-96108212D01*
X123901690Y-96158582D01*
X123930141Y-96202759D01*
X123953822Y-96239131D01*
X123971695Y-96266081D01*
X123982722Y-96281996D01*
X123989110Y-96290511D01*
X124038963Y-96348575D01*
X124094961Y-96401457D01*
X124152254Y-96444511D01*
X124174196Y-96458693D01*
X124196120Y-96471903D01*
X124215720Y-96481310D01*
X124235437Y-96487158D01*
X124257712Y-96489696D01*
X124284985Y-96489168D01*
X124319697Y-96485821D01*
X124364289Y-96479902D01*
X124421200Y-96471657D01*
X124435296Y-96469583D01*
X124583962Y-96445526D01*
X124720891Y-96419024D01*
X124848894Y-96389433D01*
X124970786Y-96356106D01*
X125089378Y-96318399D01*
X125162784Y-96292456D01*
X125334074Y-96223564D01*
X125493278Y-96146925D01*
X125641108Y-96062111D01*
X125778270Y-95968695D01*
X125905476Y-95866247D01*
X126023432Y-95754340D01*
X126104112Y-95671379D01*
X126052624Y-95613668D01*
X125985287Y-95534602D01*
X125875983Y-95389252D01*
X125776352Y-95234157D01*
X125687541Y-95071168D01*
X125610702Y-94902134D01*
X125559999Y-94767635D01*
X125505766Y-94588101D01*
X125465113Y-94405290D01*
X125437962Y-94220204D01*
X125424235Y-94033849D01*
X125423854Y-93847228D01*
X125436740Y-93661347D01*
X125462817Y-93477209D01*
X125502004Y-93295819D01*
X125554226Y-93118182D01*
X125619402Y-92945300D01*
X125697457Y-92778180D01*
X125788310Y-92617825D01*
X125813050Y-92578390D01*
X125882139Y-92473206D01*
X125948089Y-92380650D01*
X126011869Y-92299534D01*
X126074448Y-92228669D01*
X126136796Y-92166863D01*
X126199883Y-92112929D01*
X126213318Y-92102132D01*
X126236516Y-92082558D01*
X126253878Y-92066677D01*
X126262399Y-92057166D01*
X126270728Y-92045992D01*
X126286905Y-92028675D01*
X126306725Y-92009772D01*
X126326735Y-91992405D01*
X126343483Y-91979695D01*
X126353518Y-91974765D01*
X126356547Y-91975721D01*
X126362145Y-91986555D01*
X126364110Y-92006222D01*
X126362593Y-92030662D01*
X126357742Y-92055810D01*
X126349710Y-92077605D01*
X126348210Y-92080395D01*
X126334872Y-92100806D01*
X126315563Y-92126290D01*
X126293921Y-92151999D01*
X126270427Y-92179312D01*
X126248903Y-92208490D01*
X126234986Y-92235070D01*
X126226657Y-92263107D01*
X126221896Y-92296655D01*
X126219930Y-92314262D01*
X126215798Y-92335061D01*
X126208397Y-92353337D01*
X126195648Y-92373760D01*
X126175473Y-92400997D01*
X126157284Y-92425641D01*
X126133722Y-92459338D01*
X126109789Y-92495109D01*
X126087300Y-92530120D01*
X126068070Y-92561536D01*
X126053913Y-92586521D01*
X126046645Y-92602240D01*
X126045565Y-92607510D01*
X126044916Y-92627623D01*
X126047091Y-92651834D01*
X126049907Y-92666191D01*
X126057101Y-92684371D01*
X126070372Y-92702602D01*
X126092545Y-92725462D01*
X126108055Y-92740656D01*
X126122283Y-92756501D01*
X126129640Y-92770121D01*
X126132392Y-92786253D01*
X126132805Y-92809638D01*
X126129820Y-92847079D01*
X126118761Y-92882471D01*
X126116582Y-92887000D01*
X126107446Y-92908049D01*
X126095022Y-92938552D01*
X126080660Y-92975145D01*
X126065714Y-93014466D01*
X126060402Y-93028509D01*
X126041294Y-93077312D01*
X126019113Y-93132034D01*
X125996199Y-93186957D01*
X125974893Y-93236362D01*
X125961783Y-93266225D01*
X125946632Y-93301584D01*
X125936466Y-93327243D01*
X125930580Y-93345537D01*
X125928266Y-93358796D01*
X125928819Y-93369354D01*
X125931533Y-93379543D01*
X125936064Y-93389475D01*
X125952579Y-93412320D01*
X125975673Y-93435045D01*
X125983498Y-93441903D01*
X126000323Y-93459592D01*
X126016510Y-93481866D01*
X126034145Y-93511799D01*
X126055311Y-93552465D01*
X126090911Y-93619064D01*
X126125941Y-93675018D01*
X126158427Y-93716404D01*
X126188332Y-93743168D01*
X126214899Y-93761221D01*
X126280058Y-93746581D01*
X126302296Y-93741433D01*
X126326069Y-93734867D01*
X126340771Y-93728328D01*
X126349761Y-93720149D01*
X126356397Y-93708661D01*
X126371188Y-93687215D01*
X126395697Y-93667721D01*
X126431320Y-93650070D01*
X126479951Y-93633104D01*
X126489302Y-93630136D01*
X126519826Y-93618923D01*
X126545479Y-93607348D01*
X126561490Y-93597492D01*
X126569937Y-93587875D01*
X126579355Y-93568229D01*
X126586334Y-93539857D01*
X126591119Y-93501233D01*
X126593953Y-93450829D01*
X126595081Y-93387118D01*
X126595946Y-93339266D01*
X126598492Y-93303206D01*
X126603422Y-93277257D01*
X126611442Y-93259020D01*
X126623258Y-93246098D01*
X126639577Y-93236094D01*
X126649535Y-93230396D01*
X126662432Y-93218528D01*
X126673824Y-93200005D01*
X126686481Y-93170980D01*
X126689879Y-93162542D01*
X126703305Y-93131645D01*
X126714572Y-93112561D01*
X126725771Y-93103377D01*
X126738995Y-93102178D01*
X126756336Y-93107048D01*
X126757799Y-93107575D01*
X126775625Y-93112895D01*
X126785807Y-93111567D01*
X126794002Y-93102982D01*
X126798230Y-93095773D01*
X126807072Y-93075339D01*
X126815392Y-93050639D01*
X126817129Y-93044561D01*
X126821676Y-93024849D01*
X126822501Y-93007451D01*
X126819419Y-92986837D01*
X126812241Y-92957476D01*
X126805804Y-92932121D01*
X126795563Y-92884961D01*
X126791037Y-92847485D01*
X126792549Y-92816756D01*
X126800419Y-92789839D01*
X126814969Y-92763797D01*
X126836520Y-92735693D01*
X126845722Y-92723618D01*
X126861043Y-92698595D01*
X126870329Y-92676682D01*
X126872950Y-92667695D01*
X126886624Y-92637883D01*
X126907146Y-92618253D01*
X126937953Y-92605174D01*
X126938415Y-92605035D01*
X126963509Y-92594789D01*
X126993669Y-92578722D01*
X127022468Y-92560249D01*
X127027750Y-92556511D01*
X127050502Y-92541149D01*
X127068182Y-92530362D01*
X127077331Y-92526291D01*
X127082267Y-92530183D01*
X127094248Y-92544805D01*
X127111340Y-92568201D01*
X127132102Y-92598155D01*
X127155093Y-92632454D01*
X127178869Y-92668882D01*
X127201989Y-92705226D01*
X127223012Y-92739270D01*
X127240496Y-92768800D01*
X127252999Y-92791601D01*
X127259078Y-92805459D01*
X127259186Y-92805853D01*
X127263208Y-92827961D01*
X127266317Y-92858355D01*
X127267846Y-92890578D01*
X127267932Y-92906828D01*
X127266099Y-92937064D01*
X127260410Y-92962183D01*
X127249614Y-92988930D01*
X127230431Y-93030473D01*
X127264570Y-93048555D01*
X127277690Y-93055736D01*
X127312494Y-93078582D01*
X127333161Y-93100126D01*
X127340109Y-93121360D01*
X127333756Y-93143273D01*
X127314522Y-93166858D01*
X127302729Y-93180583D01*
X127283173Y-93211943D01*
X127264805Y-93251380D01*
X127262944Y-93255956D01*
X127247731Y-93289261D01*
X127233954Y-93310749D01*
X127220066Y-93322895D01*
X127213637Y-93326938D01*
X127199473Y-93340347D01*
X127189307Y-93359590D01*
X127181864Y-93387689D01*
X127175868Y-93427670D01*
X127171107Y-93462856D01*
X127164597Y-93505186D01*
X127157984Y-93543632D01*
X127157185Y-93548020D01*
X127151952Y-93580578D01*
X127148195Y-93610520D01*
X127146680Y-93631854D01*
X127144362Y-93648911D01*
X127137786Y-93676774D01*
X127127996Y-93710908D01*
X127116037Y-93747376D01*
X127115794Y-93748074D01*
X127104159Y-93783493D01*
X127090161Y-93829291D01*
X127074964Y-93881467D01*
X127059735Y-93936021D01*
X127045639Y-93988954D01*
X127044194Y-93994514D01*
X127030357Y-94045599D01*
X127015796Y-94096030D01*
X127001570Y-94142350D01*
X126988736Y-94181099D01*
X126978354Y-94208819D01*
X126973525Y-94220584D01*
X126960446Y-94256804D01*
X126953696Y-94285662D01*
X126952192Y-94311394D01*
X126948206Y-94351708D01*
X126934031Y-94399957D01*
X126933858Y-94400415D01*
X126922859Y-94433642D01*
X126918373Y-94459281D01*
X126919473Y-94482591D01*
X126919680Y-94484095D01*
X126920613Y-94508109D01*
X126919054Y-94539772D01*
X126915300Y-94572650D01*
X126913939Y-94581912D01*
X126910648Y-94610859D01*
X126910882Y-94627614D01*
X126914621Y-94634011D01*
X126917616Y-94637616D01*
X126921372Y-94652776D01*
X126922829Y-94675364D01*
X126920975Y-94697135D01*
X126912256Y-94730670D01*
X126898340Y-94760368D01*
X126881401Y-94780706D01*
X126877013Y-94786940D01*
X126868175Y-94805262D01*
X126857245Y-94831976D01*
X126845648Y-94863768D01*
X126838882Y-94882783D01*
X126824020Y-94921629D01*
X126808877Y-94958120D01*
X126795858Y-94986332D01*
X126794259Y-94989541D01*
X126776613Y-95032860D01*
X126766587Y-95074086D01*
X126764701Y-95110001D01*
X126771472Y-95137388D01*
X126785233Y-95159284D01*
X126808484Y-95188459D01*
X126835810Y-95217162D01*
X126850493Y-95226910D01*
X126866644Y-95226879D01*
X126884157Y-95215075D01*
X126904157Y-95190712D01*
X126927774Y-95153004D01*
X126939070Y-95133041D01*
X126953241Y-95106584D01*
X126963068Y-95086428D01*
X126966902Y-95075821D01*
X126969065Y-95067926D01*
X126978148Y-95053462D01*
X126981116Y-95048988D01*
X126990407Y-95031908D01*
X127004265Y-95004560D01*
X127021676Y-94968999D01*
X127041625Y-94927280D01*
X127063097Y-94881455D01*
X127089766Y-94824040D01*
X127123267Y-94752184D01*
X127148317Y-94698851D01*
X127251361Y-94698851D01*
X127260538Y-94720445D01*
X127281108Y-94736396D01*
X127282310Y-94737009D01*
X127313571Y-94746850D01*
X127340794Y-94743664D01*
X127362018Y-94727663D01*
X127368912Y-94718280D01*
X127376070Y-94702369D01*
X127375074Y-94685000D01*
X127366285Y-94660441D01*
X127362795Y-94651461D01*
X127355730Y-94617233D01*
X127360936Y-94584622D01*
X127378893Y-94549390D01*
X127381001Y-94546107D01*
X127390767Y-94529670D01*
X127397114Y-94514542D01*
X127400411Y-94497497D01*
X127401028Y-94475309D01*
X127399335Y-94444751D01*
X127395699Y-94402597D01*
X127393195Y-94381369D01*
X127388108Y-94359638D01*
X127381711Y-94352289D01*
X127378841Y-94352677D01*
X127365218Y-94360996D01*
X127352961Y-94375534D01*
X127347611Y-94390141D01*
X127347555Y-94392562D01*
X127341651Y-94422624D01*
X127328129Y-94454885D01*
X127309981Y-94482041D01*
X127308699Y-94483512D01*
X127295636Y-94501598D01*
X127289511Y-94520448D01*
X127287956Y-94547052D01*
X127285320Y-94577104D01*
X127269323Y-94626928D01*
X127266566Y-94632985D01*
X127253422Y-94670177D01*
X127251361Y-94698851D01*
X127148317Y-94698851D01*
X127151486Y-94692104D01*
X127174953Y-94642744D01*
X127194198Y-94603049D01*
X127209755Y-94571966D01*
X127222153Y-94548438D01*
X127231924Y-94531411D01*
X127239599Y-94519831D01*
X127245710Y-94512642D01*
X127250787Y-94508790D01*
X127256629Y-94505295D01*
X127261509Y-94499809D01*
X127264164Y-94490428D01*
X127264907Y-94474406D01*
X127264053Y-94449000D01*
X127261916Y-94411463D01*
X127256597Y-94322939D01*
X127278744Y-94294759D01*
X127293157Y-94275243D01*
X127311587Y-94244763D01*
X127328036Y-94208984D01*
X127344856Y-94163230D01*
X127353731Y-94134481D01*
X127361032Y-94096121D01*
X127360485Y-94061297D01*
X127352385Y-94024618D01*
X127349540Y-94015110D01*
X127346098Y-94005503D01*
X127342515Y-94001030D01*
X127338039Y-94002944D01*
X127331923Y-94012496D01*
X127323416Y-94030938D01*
X127311769Y-94059523D01*
X127296233Y-94099502D01*
X127276058Y-94152127D01*
X127260580Y-94191747D01*
X127245127Y-94229736D01*
X127231693Y-94261179D01*
X127221336Y-94283601D01*
X127215116Y-94294527D01*
X127210554Y-94298727D01*
X127191324Y-94306437D01*
X127170066Y-94305690D01*
X127153787Y-94296287D01*
X127150720Y-94291133D01*
X127147496Y-94269913D01*
X127151211Y-94241069D01*
X127161172Y-94208272D01*
X127176684Y-94175194D01*
X127179042Y-94170812D01*
X127189913Y-94148106D01*
X127204539Y-94115020D01*
X127221754Y-94074294D01*
X127240393Y-94028668D01*
X127259291Y-93980883D01*
X127260782Y-93977050D01*
X127281598Y-93924141D01*
X127303599Y-93869166D01*
X127325161Y-93816121D01*
X127344659Y-93769007D01*
X127360470Y-93731822D01*
X127401773Y-93636796D01*
X127472156Y-93636796D01*
X127477005Y-93573700D01*
X127482597Y-93518339D01*
X127491137Y-93469560D01*
X127503183Y-93428053D01*
X127519640Y-93389920D01*
X127533919Y-93364169D01*
X127547761Y-93348098D01*
X127564043Y-93340553D01*
X127586496Y-93338674D01*
X127589058Y-93338916D01*
X127605878Y-93343567D01*
X127632479Y-93353244D01*
X127666236Y-93366773D01*
X127704524Y-93382981D01*
X127744718Y-93400697D01*
X127784194Y-93418748D01*
X127820325Y-93435961D01*
X127850489Y-93451164D01*
X127872058Y-93463185D01*
X127882409Y-93470850D01*
X127887652Y-93479411D01*
X127890693Y-93494385D01*
X127886620Y-93513307D01*
X127874724Y-93538760D01*
X127854296Y-93573326D01*
X127845538Y-93587633D01*
X127830983Y-93612768D01*
X127820940Y-93631995D01*
X127817195Y-93642005D01*
X127818826Y-93649130D01*
X127829463Y-93658124D01*
X127851060Y-93663557D01*
X127884841Y-93665669D01*
X127932032Y-93664704D01*
X127969119Y-93662328D01*
X128016340Y-93656255D01*
X128049787Y-93647415D01*
X128084873Y-93633815D01*
X128120591Y-93658813D01*
X128133925Y-93668521D01*
X128160869Y-93689779D01*
X128183441Y-93709463D01*
X128210573Y-93735115D01*
X128216979Y-93673192D01*
X128223386Y-93611269D01*
X128247336Y-93606397D01*
X128248522Y-93606141D01*
X128270985Y-93598272D01*
X128299883Y-93584393D01*
X128331192Y-93566886D01*
X128360886Y-93548133D01*
X128384942Y-93530518D01*
X128399335Y-93516421D01*
X128412017Y-93494416D01*
X128417747Y-93469437D01*
X128414649Y-93440249D01*
X128402846Y-93402865D01*
X128402166Y-93401052D01*
X128392800Y-93374269D01*
X128386154Y-93352020D01*
X128383627Y-93338961D01*
X128383697Y-93338236D01*
X128391521Y-93328628D01*
X128410306Y-93315739D01*
X128437211Y-93301015D01*
X128469393Y-93285903D01*
X128504012Y-93271847D01*
X128538224Y-93260295D01*
X128560426Y-93252521D01*
X128575195Y-93243058D01*
X128581759Y-93230761D01*
X128584034Y-93218465D01*
X128581908Y-93206797D01*
X128571617Y-93200705D01*
X128550989Y-93199186D01*
X128517850Y-93201236D01*
X128501768Y-93202585D01*
X128478551Y-93203860D01*
X128465213Y-93202740D01*
X128458444Y-93198694D01*
X128454934Y-93191196D01*
X128454750Y-93180426D01*
X128462616Y-93159555D01*
X128480233Y-93129522D01*
X128498332Y-93099047D01*
X128508291Y-93072864D01*
X128507850Y-93050500D01*
X128496864Y-93028233D01*
X128475183Y-93002339D01*
X128454410Y-92981783D01*
X128404760Y-92945065D01*
X128350088Y-92921187D01*
X128339061Y-92917496D01*
X128312720Y-92904237D01*
X128298469Y-92887131D01*
X128294190Y-92864010D01*
X128294391Y-92857122D01*
X128301107Y-92824879D01*
X128318327Y-92791190D01*
X128347381Y-92753284D01*
X128359034Y-92739399D01*
X128381345Y-92711653D01*
X128406499Y-92679380D01*
X128430958Y-92647078D01*
X128445738Y-92627769D01*
X128467775Y-92601444D01*
X128484783Y-92584474D01*
X128495260Y-92578462D01*
X128504907Y-92584112D01*
X128521880Y-92601071D01*
X128544898Y-92628155D01*
X128572884Y-92664172D01*
X128582285Y-92676624D01*
X128604489Y-92705492D01*
X128622953Y-92728739D01*
X128635969Y-92744243D01*
X128641831Y-92749882D01*
X128646671Y-92748413D01*
X128662984Y-92742142D01*
X128687659Y-92732078D01*
X128717612Y-92719457D01*
X128751265Y-92705735D01*
X128801387Y-92688874D01*
X128845403Y-92679765D01*
X128887053Y-92677752D01*
X128930080Y-92682176D01*
X128958597Y-92687928D01*
X128990459Y-92696401D01*
X129014923Y-92705066D01*
X129046949Y-92719232D01*
X129046949Y-92665709D01*
X129115889Y-92670021D01*
X129116519Y-92670061D01*
X129159845Y-92674741D01*
X129206393Y-92682768D01*
X129247101Y-92692583D01*
X129272565Y-92700339D01*
X129295714Y-92709220D01*
X129313705Y-92720080D01*
X129331476Y-92736046D01*
X129353965Y-92760242D01*
X129383841Y-92791040D01*
X129420473Y-92820769D01*
X129459414Y-92842191D01*
X129505311Y-92858319D01*
X129537996Y-92868847D01*
X129579010Y-92886267D01*
X129619661Y-92909015D01*
X129661806Y-92938413D01*
X129707299Y-92975786D01*
X129757998Y-93022457D01*
X129815757Y-93079750D01*
X129844389Y-93108809D01*
X129868939Y-93133144D01*
X129886714Y-93149475D01*
X129899644Y-93159230D01*
X129909657Y-93163836D01*
X129918681Y-93164722D01*
X129928645Y-93163315D01*
X129937726Y-93161705D01*
X129949949Y-93161798D01*
X129955862Y-93169600D01*
X129959780Y-93188620D01*
X129960216Y-93191578D01*
X129959544Y-93216961D01*
X129952469Y-93240356D01*
X129940879Y-93257464D01*
X129926665Y-93263984D01*
X129924699Y-93263670D01*
X129910745Y-93257833D01*
X129889251Y-93246151D01*
X129863994Y-93230634D01*
X129842233Y-93216821D01*
X129808265Y-93197258D01*
X129777078Y-93183111D01*
X129745137Y-93173417D01*
X129708907Y-93167218D01*
X129664854Y-93163552D01*
X129609442Y-93161458D01*
X129579585Y-93160682D01*
X129533049Y-93159991D01*
X129496455Y-93161304D01*
X129466849Y-93165812D01*
X129441275Y-93174703D01*
X129416779Y-93189169D01*
X129390405Y-93210398D01*
X129359197Y-93239580D01*
X129320201Y-93277906D01*
X129286582Y-93311425D01*
X129251943Y-93347734D01*
X129225086Y-93379449D01*
X129204203Y-93409638D01*
X129187487Y-93441369D01*
X129173130Y-93477710D01*
X129159324Y-93521730D01*
X129144260Y-93576497D01*
X129134209Y-93613759D01*
X129122566Y-93654402D01*
X129112182Y-93685855D01*
X129101752Y-93711181D01*
X129089971Y-93733441D01*
X129075538Y-93755695D01*
X129057146Y-93781005D01*
X129055499Y-93783222D01*
X129039871Y-93805464D01*
X129028816Y-93823347D01*
X129024637Y-93833177D01*
X129024641Y-93833259D01*
X129031489Y-93839246D01*
X129049548Y-93849041D01*
X129076114Y-93861304D01*
X129108484Y-93874696D01*
X129117803Y-93878372D01*
X129191716Y-93908633D01*
X129252255Y-93935675D01*
X129300367Y-93959973D01*
X129336998Y-93981999D01*
X129363094Y-94002229D01*
X129378464Y-94017983D01*
X129392022Y-94035817D01*
X129397242Y-94048428D01*
X129396561Y-94053031D01*
X129390954Y-94070928D01*
X129380910Y-94096467D01*
X129367913Y-94125736D01*
X129338584Y-94188321D01*
X129298578Y-94188321D01*
X129275263Y-94187147D01*
X129252125Y-94180881D01*
X129229153Y-94166960D01*
X129211563Y-94154865D01*
X129192232Y-94144264D01*
X129171778Y-94137201D01*
X129147458Y-94133260D01*
X129116531Y-94132030D01*
X129076255Y-94133098D01*
X129023887Y-94136051D01*
X129001702Y-94137522D01*
X128955728Y-94140948D01*
X128912563Y-94144624D01*
X128876231Y-94148194D01*
X128850757Y-94151304D01*
X128847539Y-94151793D01*
X128789466Y-94166244D01*
X128742098Y-94190305D01*
X128704050Y-94224913D01*
X128673940Y-94271003D01*
X128666477Y-94288272D01*
X128660609Y-94308478D01*
X128658984Y-94323832D01*
X128662462Y-94329929D01*
X128663347Y-94329658D01*
X128673714Y-94324461D01*
X128692774Y-94314019D01*
X128717242Y-94300117D01*
X128734169Y-94290515D01*
X128759674Y-94277272D01*
X128775590Y-94271539D01*
X128783776Y-94272785D01*
X128786092Y-94280479D01*
X128788479Y-94291149D01*
X128802178Y-94310275D01*
X128825163Y-94328022D01*
X128854129Y-94341428D01*
X128874539Y-94347836D01*
X128890009Y-94350249D01*
X128903164Y-94347159D01*
X128920263Y-94338269D01*
X128949418Y-94326492D01*
X128982219Y-94322951D01*
X129010149Y-94330179D01*
X129025614Y-94344771D01*
X129039913Y-94368953D01*
X129050356Y-94397245D01*
X129054402Y-94424246D01*
X129054356Y-94426907D01*
X129050947Y-94455051D01*
X129046676Y-94475309D01*
X129042684Y-94494242D01*
X129030344Y-94542075D01*
X129014705Y-94596143D01*
X128996545Y-94654038D01*
X128976644Y-94713356D01*
X128955777Y-94771688D01*
X128934725Y-94826629D01*
X128914264Y-94875772D01*
X128895173Y-94916711D01*
X128892942Y-94921196D01*
X128881193Y-94947424D01*
X128875119Y-94966149D01*
X128875626Y-94974679D01*
X128881200Y-94983266D01*
X128882559Y-95002583D01*
X128878041Y-95027266D01*
X128868075Y-95052875D01*
X128867174Y-95054642D01*
X128857241Y-95075006D01*
X128854539Y-95085562D01*
X128859435Y-95089533D01*
X128872292Y-95090141D01*
X128879461Y-95089887D01*
X128892431Y-95087344D01*
X128905579Y-95080795D01*
X128920704Y-95068688D01*
X128939602Y-95049476D01*
X128964070Y-95021608D01*
X128995906Y-94983533D01*
X129010747Y-94965771D01*
X129036705Y-94935626D01*
X129059413Y-94910392D01*
X129076838Y-94892299D01*
X129086945Y-94883583D01*
X129107782Y-94875414D01*
X129136139Y-94874985D01*
X129169229Y-94885684D01*
X129209134Y-94907929D01*
X129262161Y-94941855D01*
X129290573Y-94927243D01*
X129299430Y-94922554D01*
X129342343Y-94895390D01*
X129375618Y-94866413D01*
X129396722Y-94837756D01*
X129406790Y-94820367D01*
X129420303Y-94807076D01*
X129439163Y-94800952D01*
X129468076Y-94799472D01*
X129491112Y-94802673D01*
X129523030Y-94816859D01*
X129551402Y-94839662D01*
X129573483Y-94868093D01*
X129586528Y-94899160D01*
X129587791Y-94929874D01*
X129581275Y-94948249D01*
X129567108Y-94975654D01*
X129547668Y-95007750D01*
X129525181Y-95041074D01*
X129501876Y-95072162D01*
X129479980Y-95097549D01*
X129471940Y-95105511D01*
X129447724Y-95122685D01*
X129419601Y-95131048D01*
X129413411Y-95132121D01*
X129391019Y-95138284D01*
X129373243Y-95149045D01*
X129356349Y-95167330D01*
X129336604Y-95196063D01*
X129333407Y-95200751D01*
X129313328Y-95224693D01*
X129286210Y-95251514D01*
X129256399Y-95276837D01*
X129241454Y-95288580D01*
X129206641Y-95316489D01*
X129169387Y-95346915D01*
X129135556Y-95375088D01*
X129114644Y-95392638D01*
X129086042Y-95416350D01*
X129061338Y-95436513D01*
X129044256Y-95450068D01*
X129036507Y-95456438D01*
X129022633Y-95470686D01*
X129017136Y-95480981D01*
X129020153Y-95487487D01*
X129032218Y-95503235D01*
X129051480Y-95525085D01*
X129075763Y-95550806D01*
X129102892Y-95578163D01*
X129130690Y-95604922D01*
X129156980Y-95628852D01*
X129179588Y-95647717D01*
X129213035Y-95670245D01*
X129252218Y-95686825D01*
X129294620Y-95693519D01*
X129343220Y-95690745D01*
X129400997Y-95678924D01*
X129403009Y-95678406D01*
X129458331Y-95660414D01*
X129505879Y-95636039D01*
X129552283Y-95601906D01*
X129563488Y-95593422D01*
X129587419Y-95579312D01*
X129608070Y-95571651D01*
X129616662Y-95569224D01*
X129639903Y-95558132D01*
X129662476Y-95542582D01*
X129670107Y-95536296D01*
X129695754Y-95515921D01*
X129725137Y-95493371D01*
X129755173Y-95470933D01*
X129782775Y-95450891D01*
X129804859Y-95435530D01*
X129818339Y-95427135D01*
X129830862Y-95422132D01*
X129862995Y-95415777D01*
X129897463Y-95414994D01*
X129926409Y-95420284D01*
X129931595Y-95422099D01*
X129944894Y-95425231D01*
X129957305Y-95423641D01*
X129973265Y-95416157D01*
X129997213Y-95401610D01*
X130007270Y-95395326D01*
X130026580Y-95383892D01*
X130037310Y-95379553D01*
X130042307Y-95381556D01*
X130044417Y-95389151D01*
X130044561Y-95390136D01*
X130044526Y-95397728D01*
X130041755Y-95406902D01*
X130035145Y-95419330D01*
X130023595Y-95436684D01*
X130006004Y-95460635D01*
X129981269Y-95492855D01*
X129948289Y-95535015D01*
X129936939Y-95549161D01*
X129897991Y-95594800D01*
X129851413Y-95646152D01*
X129800009Y-95700355D01*
X129746582Y-95754546D01*
X129693936Y-95805861D01*
X129644875Y-95851437D01*
X129602201Y-95888413D01*
X129514497Y-95957889D01*
X129378690Y-96054576D01*
X129238423Y-96141040D01*
X129089496Y-96219998D01*
X129061246Y-96233918D01*
X129025755Y-96251459D01*
X128996230Y-96266112D01*
X128975143Y-96276652D01*
X128964965Y-96281849D01*
X128963002Y-96283271D01*
X128959082Y-96289128D01*
X128955636Y-96299764D01*
X128952550Y-96316444D01*
X128949713Y-96340432D01*
X128947010Y-96372995D01*
X128944329Y-96415397D01*
X128941558Y-96468903D01*
X128940792Y-96485852D01*
X128938582Y-96534779D01*
X128935290Y-96614290D01*
X128933591Y-96659655D01*
X128931280Y-96742796D01*
X128930331Y-96821878D01*
X128930806Y-96900044D01*
X128932769Y-96980438D01*
X128936282Y-97066205D01*
X128941406Y-97160488D01*
X128948204Y-97266432D01*
X128950919Y-97310686D01*
X128954165Y-97377856D01*
X128956782Y-97449944D01*
X128958784Y-97525536D01*
X128960184Y-97603216D01*
X128960995Y-97681567D01*
X128961051Y-97700167D01*
X128961230Y-97759175D01*
X128960903Y-97834623D01*
X128960026Y-97906497D01*
X128958612Y-97973381D01*
X128956676Y-98033858D01*
X128954230Y-98086514D01*
X128951287Y-98129933D01*
X128947860Y-98162699D01*
X128943963Y-98183396D01*
X128939608Y-98190610D01*
X128936971Y-98189168D01*
X128927743Y-98177567D01*
X128915191Y-98156863D01*
X128901243Y-98130100D01*
X128895693Y-98119051D01*
X128880108Y-98091107D01*
X128865447Y-98068658D01*
X128854276Y-98055765D01*
X128835439Y-98044247D01*
X128803762Y-98036719D01*
X128772689Y-98041333D01*
X128745283Y-98056794D01*
X128724609Y-98081810D01*
X128713730Y-98115087D01*
X128713562Y-98116418D01*
X128713098Y-98126472D01*
X128714529Y-98137945D01*
X128718540Y-98152538D01*
X128725820Y-98171949D01*
X128737055Y-98197878D01*
X128752932Y-98232022D01*
X128774139Y-98276081D01*
X128801363Y-98331755D01*
X128804829Y-98338810D01*
X128828418Y-98386542D01*
X128849745Y-98429226D01*
X128867960Y-98465191D01*
X128882208Y-98492767D01*
X128891639Y-98510282D01*
X128895398Y-98516065D01*
X128895646Y-98515436D01*
X128897842Y-98504378D01*
X128901689Y-98481342D01*
X128906834Y-98448559D01*
X128912925Y-98408257D01*
X128919610Y-98362667D01*
X128921284Y-98351140D01*
X128927895Y-98306583D01*
X128933868Y-98267825D01*
X128938841Y-98237104D01*
X128942456Y-98216662D01*
X128944351Y-98208740D01*
X128944360Y-98208731D01*
X128948386Y-98214536D01*
X128958212Y-98232519D01*
X128973226Y-98261420D01*
X128992813Y-98299979D01*
X129016363Y-98346935D01*
X129043262Y-98401028D01*
X129072897Y-98460997D01*
X129104655Y-98525581D01*
X129137924Y-98593521D01*
X129172091Y-98663555D01*
X129206543Y-98734424D01*
X129240667Y-98804866D01*
X129273851Y-98873621D01*
X129305481Y-98939429D01*
X129334945Y-99001030D01*
X129361631Y-99057162D01*
X129384924Y-99106565D01*
X129404214Y-99147978D01*
X129418886Y-99180142D01*
X129428328Y-99201796D01*
X129431927Y-99211678D01*
X129432338Y-99230573D01*
X129423291Y-99261226D01*
X129404033Y-99286179D01*
X129377352Y-99303852D01*
X129346037Y-99312663D01*
X129312878Y-99311033D01*
X129280664Y-99297382D01*
X129278383Y-99295425D01*
X129270243Y-99284820D01*
X129258264Y-99265466D01*
X129242089Y-99236686D01*
X129221362Y-99197803D01*
X129195724Y-99148138D01*
X129164820Y-99087015D01*
X129128291Y-99013755D01*
X129085780Y-98927682D01*
X129068938Y-98893527D01*
X129036427Y-98828007D01*
X129006124Y-98767470D01*
X128978646Y-98713117D01*
X128954610Y-98666150D01*
X128934635Y-98627773D01*
X128919337Y-98599188D01*
X128909335Y-98581597D01*
X128905247Y-98576203D01*
X128903637Y-98580555D01*
X128899485Y-98597708D01*
X128893755Y-98625258D01*
X128886980Y-98660604D01*
X128879692Y-98701144D01*
X128871666Y-98745126D01*
X128842453Y-98882791D01*
X128806546Y-99025655D01*
X128765358Y-99168701D01*
X128720305Y-99306912D01*
X128672799Y-99435270D01*
X128635011Y-99526273D01*
X128554457Y-99696108D01*
X128465293Y-99854982D01*
X128367790Y-100002560D01*
X128262219Y-100138507D01*
X128148852Y-100262487D01*
X128027958Y-100374164D01*
X127899811Y-100473203D01*
X127764679Y-100559268D01*
X127705876Y-100591500D01*
X127610433Y-100637411D01*
X127509891Y-100677797D01*
X127401017Y-100713910D01*
X127280575Y-100747007D01*
X127186445Y-100772303D01*
X127094247Y-100801218D01*
X127009444Y-100832757D01*
X126928110Y-100868270D01*
X126904950Y-100879203D01*
X126878371Y-100892325D01*
X126861908Y-100901879D01*
X126853443Y-100909440D01*
X126850861Y-100916585D01*
X126852045Y-100924888D01*
X126852770Y-100927792D01*
X126859698Y-100956489D01*
X126868764Y-100995284D01*
X126879581Y-101042419D01*
X126891761Y-101096133D01*
X126904916Y-101154667D01*
X126918659Y-101216261D01*
X126932602Y-101279155D01*
X126946356Y-101341590D01*
X126959534Y-101401805D01*
X126971748Y-101458040D01*
X126982610Y-101508537D01*
X126991733Y-101551534D01*
X126998728Y-101585272D01*
X127003208Y-101607992D01*
X127004785Y-101617934D01*
X127003580Y-101630046D01*
X126991695Y-101659070D01*
X126970023Y-101684158D01*
X126942179Y-101701791D01*
X126911780Y-101708451D01*
X126909598Y-101708418D01*
X126879472Y-101702437D01*
X126851295Y-101688316D01*
X126831488Y-101669194D01*
X126829311Y-101664169D01*
X126823353Y-101645084D01*
X126814831Y-101614002D01*
X126804147Y-101572523D01*
X126791699Y-101522248D01*
X126777889Y-101464778D01*
X126763118Y-101401713D01*
X126747785Y-101334653D01*
X126738093Y-101291772D01*
X126723668Y-101228020D01*
X126710456Y-101169714D01*
X126698801Y-101118370D01*
X126689047Y-101075505D01*
X126681541Y-101042633D01*
X126676625Y-101021270D01*
X126674645Y-101012933D01*
X126673907Y-101012615D01*
X126664359Y-101016729D01*
X126645637Y-101027768D01*
X126619988Y-101044353D01*
X126589660Y-101065104D01*
X126471949Y-101153338D01*
X126335990Y-101269626D01*
X126202788Y-101398941D01*
X126073059Y-101540309D01*
X125947525Y-101692752D01*
X125826904Y-101855295D01*
X125711914Y-102026960D01*
X125603275Y-102206772D01*
X125501707Y-102393754D01*
X125407928Y-102586931D01*
X125322657Y-102785325D01*
X125274694Y-102904482D01*
X125293879Y-103031275D01*
X125301541Y-103082668D01*
X125313592Y-103167903D01*
X125323716Y-103246984D01*
X125332069Y-103322250D01*
X125338807Y-103396041D01*
X125344082Y-103470695D01*
X125348052Y-103548552D01*
X125350870Y-103631949D01*
X125352691Y-103723227D01*
X125353626Y-103820182D01*
X125353670Y-103824723D01*
X125353961Y-103938777D01*
X125353961Y-104308702D01*
X125356821Y-104307549D01*
X125368868Y-104304478D01*
X125497744Y-104275026D01*
X125614443Y-104247410D01*
X125721287Y-104221005D01*
X125820699Y-104195164D01*
X125915098Y-104169242D01*
X126006905Y-104142591D01*
X126098542Y-104114565D01*
X126192430Y-104084517D01*
X126275749Y-104056811D01*
X126596429Y-103940408D01*
X126910408Y-103810758D01*
X127217420Y-103668045D01*
X127517197Y-103512455D01*
X127809470Y-103344171D01*
X128093973Y-103163380D01*
X128370438Y-102970264D01*
X128638597Y-102765009D01*
X128898182Y-102547800D01*
X129148927Y-102318822D01*
X129390563Y-102078258D01*
X129622822Y-101826295D01*
X129845438Y-101563116D01*
X129967975Y-101407714D01*
X130165111Y-101138744D01*
X130350272Y-100861403D01*
X130523220Y-100576282D01*
X130683714Y-100283969D01*
X130831516Y-99985052D01*
X130966385Y-99680121D01*
X131088083Y-99369764D01*
X131196369Y-99054571D01*
X131291004Y-98735131D01*
X131371748Y-98412032D01*
X131438362Y-98085863D01*
X131490606Y-97757214D01*
X131528241Y-97426672D01*
X131534769Y-97353132D01*
X131542533Y-97257268D01*
X131548662Y-97168312D01*
X131553315Y-97082632D01*
X131556655Y-96996594D01*
X131558841Y-96906565D01*
X131560035Y-96808911D01*
X131560397Y-96700000D01*
X131560222Y-96622045D01*
X131559291Y-96521432D01*
X131557416Y-96429521D01*
X131554435Y-96342679D01*
X131550188Y-96257271D01*
X131544514Y-96169666D01*
X131537252Y-96076229D01*
X131528241Y-95973327D01*
X131493095Y-95661322D01*
X131441643Y-95332529D01*
X131375739Y-95005725D01*
X131295610Y-94681624D01*
X131201483Y-94360937D01*
X131093586Y-94044381D01*
X130972145Y-93732667D01*
X130837388Y-93426510D01*
X130689542Y-93126624D01*
X130528835Y-92833722D01*
X130501292Y-92786519D01*
X130471875Y-92736947D01*
X130441835Y-92687043D01*
X130412197Y-92638452D01*
X130383987Y-92592821D01*
X130358228Y-92551795D01*
X130335947Y-92517020D01*
X130318169Y-92490143D01*
X130305919Y-92472810D01*
X130300223Y-92466666D01*
X130298172Y-92468357D01*
X130289168Y-92480179D01*
X130274728Y-92501435D01*
X130256325Y-92529926D01*
X130235429Y-92563454D01*
X130224361Y-92581290D01*
X130204265Y-92612535D01*
X130187206Y-92637598D01*
X130174714Y-92654271D01*
X130168318Y-92660344D01*
X130167464Y-92660138D01*
X130159187Y-92652145D01*
X130146539Y-92634855D01*
X130131890Y-92611452D01*
X130082255Y-92532372D01*
X130014516Y-92436866D01*
X129937819Y-92339435D01*
X129854456Y-92242724D01*
X129766719Y-92149376D01*
X129676901Y-92062036D01*
X129587295Y-91983346D01*
X129582274Y-91979177D01*
X129555114Y-91956179D01*
X129533071Y-91936782D01*
X129518296Y-91922919D01*
X129512939Y-91916521D01*
X129514168Y-91912598D01*
X129518659Y-91903784D01*
X129527213Y-91888985D01*
X129540628Y-91866889D01*
X129559701Y-91836185D01*
X129585230Y-91795560D01*
X129618012Y-91743703D01*
X129678541Y-91648124D01*
X129577020Y-91533907D01*
X129551237Y-91505257D01*
X129515080Y-91465919D01*
X129475143Y-91423202D01*
X129432696Y-91378401D01*
X129389011Y-91332812D01*
X129345357Y-91287732D01*
X129303003Y-91244458D01*
X129263219Y-91204284D01*
X129227277Y-91168508D01*
X129196445Y-91138426D01*
X129171993Y-91115334D01*
X129155192Y-91100528D01*
X129147312Y-91095305D01*
X129144596Y-91096036D01*
X129131091Y-91103553D01*
X129110592Y-91117473D01*
X129086358Y-91135641D01*
X129076833Y-91143286D01*
X129016545Y-91200815D01*
X128957936Y-91272680D01*
X128901338Y-91358436D01*
X128847081Y-91457637D01*
X128809323Y-91533027D01*
X128713860Y-91504198D01*
X128673634Y-91492408D01*
X128488810Y-91447153D01*
X128301604Y-91415583D01*
X128113961Y-91397971D01*
X127927829Y-91394586D01*
X127915487Y-91394821D01*
X127867432Y-91395207D01*
X127833305Y-91394473D01*
X127813419Y-91392634D01*
X127808087Y-91389701D01*
X127809247Y-91387934D01*
X127817866Y-91375821D01*
X127833057Y-91354976D01*
X127853093Y-91327761D01*
X127876245Y-91296537D01*
X127942613Y-91210190D01*
X128038319Y-91094619D01*
X128137331Y-90984668D01*
X128237983Y-90882020D01*
X128338605Y-90788357D01*
X128437527Y-90705359D01*
X128533081Y-90634708D01*
X128541342Y-90628988D01*
X128563291Y-90613113D01*
X128578664Y-90600960D01*
X128584542Y-90594794D01*
X128583519Y-90593347D01*
X128573274Y-90584261D01*
X128553408Y-90568243D01*
X128525629Y-90546583D01*
X128491648Y-90520567D01*
X128453172Y-90491484D01*
X128411912Y-90460620D01*
X128369575Y-90429265D01*
X128327871Y-90398705D01*
X128288509Y-90370228D01*
X128253199Y-90345122D01*
X128182761Y-90296208D01*
X127901218Y-90111935D01*
X127612191Y-89940244D01*
X127316252Y-89781359D01*
X127013977Y-89635500D01*
X126705940Y-89502890D01*
X126392716Y-89383752D01*
X126074879Y-89278307D01*
X125753004Y-89186777D01*
X125427666Y-89109385D01*
X125099439Y-89046354D01*
X124768897Y-88997904D01*
X124628207Y-88981408D01*
X124490811Y-88967510D01*
X124358445Y-88956678D01*
X124227145Y-88948671D01*
X124092946Y-88943248D01*
X123951886Y-88940171D01*
X123800000Y-88939199D01*
X123755372Y-88939311D01*
X123444066Y-88946561D01*
X123139916Y-88965334D01*
X122840573Y-88995911D01*
X122543691Y-89038573D01*
X122246922Y-89093602D01*
X121947917Y-89161280D01*
X121647602Y-89241654D01*
X121324619Y-89342784D01*
X121006887Y-89457748D01*
X120694819Y-89586342D01*
X120388827Y-89728363D01*
X120089321Y-89883608D01*
X119796714Y-90051875D01*
X119511417Y-90232959D01*
X119233841Y-90426658D01*
X118964399Y-90632770D01*
X118704905Y-90849633D01*
X118453076Y-91079102D01*
X118212131Y-91318460D01*
X117982327Y-91567360D01*
X117763922Y-91825454D01*
X117557172Y-92092396D01*
X117362335Y-92367837D01*
X117179668Y-92651431D01*
X117009427Y-92942830D01*
X116851869Y-93241688D01*
X116707252Y-93547656D01*
X116575833Y-93860387D01*
X116486325Y-94098039D01*
X116386430Y-94395603D01*
X116299421Y-94695355D01*
X116225019Y-94998567D01*
X116162945Y-95306510D01*
X116112922Y-95620457D01*
X116074670Y-95941679D01*
X116047912Y-96271449D01*
X116047386Y-96280146D01*
X116044668Y-96338430D01*
X116042503Y-96408481D01*
X116040891Y-96487634D01*
X116039833Y-96573223D01*
X116039328Y-96662580D01*
X115665389Y-96662580D01*
X115665517Y-96575603D01*
X115665985Y-96482316D01*
X115666867Y-96399413D01*
X115668264Y-96324805D01*
X115670277Y-96256402D01*
X115673007Y-96192115D01*
X115676556Y-96129855D01*
X115681025Y-96067532D01*
X115686514Y-96003056D01*
X115693125Y-95934339D01*
X115700960Y-95859290D01*
X115710119Y-95775821D01*
X115740276Y-95538018D01*
X115795992Y-95198657D01*
X115866233Y-94861895D01*
X115950829Y-94528290D01*
X116049609Y-94198395D01*
X116162403Y-93872768D01*
X116289040Y-93551962D01*
X116429352Y-93236534D01*
X116583167Y-92927038D01*
X116726278Y-92665689D01*
X116893236Y-92387060D01*
X117072027Y-92114518D01*
X117263393Y-91846983D01*
X117468075Y-91583378D01*
X117686817Y-91322623D01*
X117728810Y-91275563D01*
X117780887Y-91219239D01*
X117840433Y-91156391D01*
X117905695Y-91088773D01*
X117974922Y-91018136D01*
X118046360Y-90946233D01*
X118118256Y-90874817D01*
X118188858Y-90805640D01*
X118256412Y-90740454D01*
X118319167Y-90681011D01*
X118375368Y-90629065D01*
X118423263Y-90586366D01*
X118627846Y-90413487D01*
X118865109Y-90225321D01*
X119104438Y-90048952D01*
X119348085Y-89882792D01*
X119598300Y-89725253D01*
X119857336Y-89574746D01*
X119883675Y-89560203D01*
X119952483Y-89523330D01*
X120030715Y-89482670D01*
X120115564Y-89439600D01*
X120204222Y-89395496D01*
X120293881Y-89351734D01*
X120381734Y-89309690D01*
X120464971Y-89270741D01*
X120540785Y-89236263D01*
X120606368Y-89207631D01*
X120629013Y-89198065D01*
X120954950Y-89068901D01*
X121284153Y-88954279D01*
X121616650Y-88854193D01*
X121952471Y-88768635D01*
X122291645Y-88697598D01*
X122634200Y-88641074D01*
X122980165Y-88599056D01*
X123011380Y-88595958D01*
X123082767Y-88589115D01*
X123147854Y-88583343D01*
X123208761Y-88578552D01*
X123267608Y-88574655D01*
X123326517Y-88571563D01*
X123387607Y-88569189D01*
X123452999Y-88567444D01*
X123524814Y-88566240D01*
X123605172Y-88565489D01*
X123696194Y-88565103D01*
X123800000Y-88564994D01*
X123843754Y-88565010D01*
X123942122Y-88565221D01*
X124028566Y-88565744D01*
X124105206Y-88566668D01*
X124174162Y-88568081D01*
X124237555Y-88570070D01*
X124297505Y-88572725D01*
X124356133Y-88576133D01*
X124415560Y-88580381D01*
X124477905Y-88585560D01*
X124545290Y-88591755D01*
X124619836Y-88599056D01*
X124783579Y-88617100D01*
X125126839Y-88665869D01*
X125466773Y-88729036D01*
X125802972Y-88806453D01*
X126135028Y-88897974D01*
X126462533Y-89003453D01*
X126785077Y-89122744D01*
X127102252Y-89255700D01*
X127413650Y-89402175D01*
X127718863Y-89562022D01*
X128017481Y-89735095D01*
X128309096Y-89921247D01*
X128409923Y-89989543D01*
X128587609Y-90114599D01*
X128756137Y-90239880D01*
X128918154Y-90367563D01*
X129076309Y-90499830D01*
X129233249Y-90638859D01*
X129391623Y-90786830D01*
X129554078Y-90945922D01*
X129641615Y-91034431D01*
X129794423Y-91194351D01*
X129937288Y-91351621D01*
X130072390Y-91508889D01*
X130201908Y-91668803D01*
X130328021Y-91834012D01*
X130452910Y-92007163D01*
X130578753Y-92190904D01*
X130745374Y-92450702D01*
X130919105Y-92747512D01*
X131079860Y-93051200D01*
X131227454Y-93361238D01*
X131361702Y-93677100D01*
X131482422Y-93998257D01*
X131589428Y-94324182D01*
X131682536Y-94654347D01*
X131761562Y-94988226D01*
X131826321Y-95325290D01*
X131876629Y-95665013D01*
X131912302Y-96006866D01*
X131919377Y-96099851D01*
X131933086Y-96355172D01*
X131939238Y-96616871D01*
X131938795Y-96700000D01*
X131937835Y-96880237D01*
X131928877Y-97140561D01*
G37*
G36*
X119417444Y-101475184D02*
G01*
X119415416Y-101506387D01*
X119409231Y-101527227D01*
X119397139Y-101541405D01*
X119377385Y-101552626D01*
X119369193Y-101556180D01*
X119348967Y-101563603D01*
X119335622Y-101566598D01*
X119327010Y-101565742D01*
X119304165Y-101560388D01*
X119276949Y-101551790D01*
X119251253Y-101541896D01*
X119232968Y-101532654D01*
X119218506Y-101518544D01*
X119202737Y-101492588D01*
X119191256Y-101462224D01*
X119186725Y-101433177D01*
X119187615Y-101423268D01*
X119280126Y-101423268D01*
X119285904Y-101447559D01*
X119304883Y-101475543D01*
X119307685Y-101478774D01*
X119318357Y-101489646D01*
X119325477Y-101490724D01*
X119334132Y-101483368D01*
X119339153Y-101474377D01*
X119342664Y-101453615D01*
X119341437Y-101429874D01*
X119335360Y-101409838D01*
X119331102Y-101404105D01*
X119315117Y-101396224D01*
X119297110Y-101398136D01*
X119283712Y-101409840D01*
X119280126Y-101423268D01*
X119187615Y-101423268D01*
X119187941Y-101419644D01*
X119194675Y-101394392D01*
X119205384Y-101369632D01*
X119217864Y-101350091D01*
X119229915Y-101340495D01*
X119235586Y-101339029D01*
X119273466Y-101332806D01*
X119311504Y-101331597D01*
X119342715Y-101335701D01*
X119356926Y-101340320D01*
X119370341Y-101348713D01*
X119381870Y-101363371D01*
X119395290Y-101388056D01*
X119398022Y-101393585D01*
X119412907Y-101432564D01*
X119415647Y-101453615D01*
X119417504Y-101467877D01*
X119417444Y-101475184D01*
G37*
G36*
X123863633Y-92432268D02*
G01*
X123873706Y-92445483D01*
X123890027Y-92468852D01*
X123911669Y-92500994D01*
X123937703Y-92540527D01*
X123967204Y-92586071D01*
X123999242Y-92636245D01*
X124038192Y-92697525D01*
X124081118Y-92764153D01*
X124118537Y-92820204D01*
X124151787Y-92866824D01*
X124182210Y-92905156D01*
X124211146Y-92936346D01*
X124239935Y-92961538D01*
X124269917Y-92981877D01*
X124302433Y-92998509D01*
X124338823Y-93012578D01*
X124380427Y-93025228D01*
X124428586Y-93037605D01*
X124484639Y-93050853D01*
X124492270Y-93052632D01*
X124535797Y-93062903D01*
X124573761Y-93072067D01*
X124603923Y-93079569D01*
X124624038Y-93084853D01*
X124631866Y-93087363D01*
X124631513Y-93088499D01*
X124624370Y-93098560D01*
X124609309Y-93117539D01*
X124587700Y-93143766D01*
X124560912Y-93175569D01*
X124530315Y-93211278D01*
X124516895Y-93226857D01*
X124477540Y-93273395D01*
X124446758Y-93311951D01*
X124423334Y-93344793D01*
X124406051Y-93374188D01*
X124393692Y-93402403D01*
X124385041Y-93431705D01*
X124378882Y-93464362D01*
X124373998Y-93502641D01*
X124373788Y-93504880D01*
X124373158Y-93526171D01*
X124373481Y-93559936D01*
X124374661Y-93604129D01*
X124376602Y-93656706D01*
X124379209Y-93715620D01*
X124382386Y-93778826D01*
X124386037Y-93844280D01*
X124390065Y-93909935D01*
X124394376Y-93973747D01*
X124398874Y-94033671D01*
X124399870Y-94052380D01*
X124399483Y-94069769D01*
X124397401Y-94076451D01*
X124393818Y-94072278D01*
X124382999Y-94056861D01*
X124365972Y-94031449D01*
X124343679Y-93997480D01*
X124317063Y-93956393D01*
X124287068Y-93909627D01*
X124254636Y-93858621D01*
X124211423Y-93791003D01*
X124169594Y-93727314D01*
X124133195Y-93674292D01*
X124101234Y-93630716D01*
X124072723Y-93595365D01*
X124046670Y-93567018D01*
X124022086Y-93544454D01*
X123997980Y-93526453D01*
X123973362Y-93511793D01*
X123971711Y-93510930D01*
X123943258Y-93498807D01*
X123902226Y-93485338D01*
X123847885Y-93470301D01*
X123779504Y-93453478D01*
X123765773Y-93450228D01*
X123722076Y-93439600D01*
X123684374Y-93429998D01*
X123654800Y-93421994D01*
X123635491Y-93416159D01*
X123628580Y-93413066D01*
X123629017Y-93412101D01*
X123636328Y-93402181D01*
X123651546Y-93383265D01*
X123673237Y-93357088D01*
X123699968Y-93325387D01*
X123730304Y-93289898D01*
X123744378Y-93273511D01*
X123779541Y-93231892D01*
X123808826Y-93195114D01*
X123832670Y-93161383D01*
X123851512Y-93128909D01*
X123865789Y-93095901D01*
X123875940Y-93060565D01*
X123882404Y-93021111D01*
X123885618Y-92975747D01*
X123886020Y-92922682D01*
X123884049Y-92860122D01*
X123880144Y-92786278D01*
X123874742Y-92699357D01*
X123871412Y-92646169D01*
X123867987Y-92588965D01*
X123865097Y-92537896D01*
X123862831Y-92494710D01*
X123861283Y-92461154D01*
X123860542Y-92438977D01*
X123860699Y-92429925D01*
X123863633Y-92432268D01*
G37*
G36*
X129909225Y-98648261D02*
G01*
X129911230Y-98652401D01*
X129913622Y-98660935D01*
X129916605Y-98675014D01*
X129920383Y-98695787D01*
X129925161Y-98724403D01*
X129931144Y-98762011D01*
X129938535Y-98809760D01*
X129947539Y-98868801D01*
X129958361Y-98940282D01*
X129971204Y-99025352D01*
X129980107Y-99083782D01*
X129991134Y-99154674D01*
X130001796Y-99221695D01*
X130011795Y-99283030D01*
X130020830Y-99336868D01*
X130028600Y-99381395D01*
X130034805Y-99414800D01*
X130039144Y-99435270D01*
X130042342Y-99447861D01*
X130072570Y-99542808D01*
X130111349Y-99630210D01*
X130157602Y-99707940D01*
X130210258Y-99773874D01*
X130214131Y-99777846D01*
X130234596Y-99796693D01*
X130264584Y-99822304D01*
X130302147Y-99853101D01*
X130345341Y-99887507D01*
X130392219Y-99923944D01*
X130440834Y-99960834D01*
X130463346Y-99977735D01*
X130507369Y-100011005D01*
X130546607Y-100040946D01*
X130579624Y-100066443D01*
X130604985Y-100086385D01*
X130621254Y-100099659D01*
X130626995Y-100105152D01*
X130625408Y-100106498D01*
X130612909Y-100113561D01*
X130589321Y-100125753D01*
X130556264Y-100142269D01*
X130515354Y-100162306D01*
X130468209Y-100185060D01*
X130416447Y-100209729D01*
X130397369Y-100218796D01*
X130343895Y-100244515D01*
X130293676Y-100269098D01*
X130248765Y-100291513D01*
X130211212Y-100310728D01*
X130183069Y-100325713D01*
X130166387Y-100335436D01*
X130135136Y-100358099D01*
X130078444Y-100409778D01*
X130023862Y-100472803D01*
X129973278Y-100544889D01*
X129928576Y-100623748D01*
X129919734Y-100643017D01*
X129906129Y-100675346D01*
X129888767Y-100718356D01*
X129868315Y-100770333D01*
X129845441Y-100829566D01*
X129820810Y-100894341D01*
X129795090Y-100962945D01*
X129768948Y-101033666D01*
X129766218Y-101041107D01*
X129741293Y-101109007D01*
X129717905Y-101172688D01*
X129696566Y-101230753D01*
X129677791Y-101281807D01*
X129662093Y-101324451D01*
X129649986Y-101357291D01*
X129641984Y-101378929D01*
X129638600Y-101387969D01*
X129638316Y-101388664D01*
X129635841Y-101392525D01*
X129633171Y-101391909D01*
X129630110Y-101385788D01*
X129626466Y-101373135D01*
X129622044Y-101352923D01*
X129616650Y-101324124D01*
X129610091Y-101285710D01*
X129602173Y-101236653D01*
X129592702Y-101175927D01*
X129581484Y-101102503D01*
X129568326Y-101015354D01*
X129554106Y-100921619D01*
X129541203Y-100838660D01*
X129529720Y-100767694D01*
X129519366Y-100707313D01*
X129509850Y-100656111D01*
X129500881Y-100612678D01*
X129492167Y-100575608D01*
X129483419Y-100543494D01*
X129474344Y-100514928D01*
X129464651Y-100488502D01*
X129454050Y-100462809D01*
X129435467Y-100421266D01*
X129416270Y-100382621D01*
X129396195Y-100348006D01*
X129373819Y-100315860D01*
X129347716Y-100284622D01*
X129316462Y-100252730D01*
X129278633Y-100218624D01*
X129232803Y-100180743D01*
X129177549Y-100137526D01*
X129111444Y-100087412D01*
X129078102Y-100062304D01*
X129033427Y-100028451D01*
X128993756Y-99998143D01*
X128960479Y-99972452D01*
X128934984Y-99952454D01*
X128918659Y-99939222D01*
X128912893Y-99933830D01*
X128914751Y-99932339D01*
X128927720Y-99925080D01*
X128951709Y-99912678D01*
X128985114Y-99895934D01*
X129026330Y-99875646D01*
X129073754Y-99852614D01*
X129125783Y-99827640D01*
X129147248Y-99817356D01*
X129200892Y-99791339D01*
X129251204Y-99766506D01*
X129296152Y-99743887D01*
X129333703Y-99724511D01*
X129361825Y-99709409D01*
X129378485Y-99699609D01*
X129385338Y-99694934D01*
X129434181Y-99654930D01*
X129483847Y-99603569D01*
X129532090Y-99543612D01*
X129576660Y-99477818D01*
X129615309Y-99408945D01*
X129615739Y-99408076D01*
X129623875Y-99389703D01*
X129636419Y-99359040D01*
X129652755Y-99317690D01*
X129672268Y-99267255D01*
X129694343Y-99209338D01*
X129718364Y-99145541D01*
X129743716Y-99077468D01*
X129769784Y-99006719D01*
X129774927Y-98992692D01*
X129799984Y-98924595D01*
X129823532Y-98860987D01*
X129845059Y-98803228D01*
X129864050Y-98752678D01*
X129879994Y-98710696D01*
X129892378Y-98678643D01*
X129900688Y-98657877D01*
X129904413Y-98649758D01*
X129905558Y-98648569D01*
X129907403Y-98647367D01*
X129909225Y-98648261D01*
G37*
G36*
X121654309Y-93391247D02*
G01*
X121677468Y-93396827D01*
X121697771Y-93411341D01*
X121702379Y-93417805D01*
X121714375Y-93436801D01*
X121733177Y-93467572D01*
X121758427Y-93509510D01*
X121789772Y-93562012D01*
X121826855Y-93624473D01*
X121869320Y-93696287D01*
X121916811Y-93776849D01*
X121968974Y-93865554D01*
X122025451Y-93961797D01*
X122085888Y-94064974D01*
X122149928Y-94174479D01*
X122217216Y-94289706D01*
X122287397Y-94410052D01*
X122360113Y-94534910D01*
X122435011Y-94663676D01*
X122511733Y-94795745D01*
X122574489Y-94903843D01*
X122660170Y-95051446D01*
X122738864Y-95187046D01*
X122810869Y-95311170D01*
X122876481Y-95424345D01*
X122935997Y-95527097D01*
X122989716Y-95619953D01*
X123037933Y-95703439D01*
X123080947Y-95778081D01*
X123119054Y-95844407D01*
X123152551Y-95902943D01*
X123181737Y-95954215D01*
X123206908Y-95998750D01*
X123228360Y-96037075D01*
X123246393Y-96069716D01*
X123261301Y-96097200D01*
X123273384Y-96120053D01*
X123282938Y-96138801D01*
X123290260Y-96153972D01*
X123295648Y-96166092D01*
X123299398Y-96175687D01*
X123301808Y-96183285D01*
X123303176Y-96189411D01*
X123303797Y-96194592D01*
X123303970Y-96199355D01*
X123303875Y-96214461D01*
X123301231Y-96233508D01*
X123293044Y-96248008D01*
X123276533Y-96264569D01*
X123274683Y-96266254D01*
X123255182Y-96281513D01*
X123236679Y-96288445D01*
X123211436Y-96290082D01*
X123189617Y-96288937D01*
X123169817Y-96282942D01*
X123151813Y-96269586D01*
X123149796Y-96267016D01*
X123140277Y-96252418D01*
X123123777Y-96225719D01*
X123100615Y-96187462D01*
X123071110Y-96138190D01*
X123035581Y-96078445D01*
X122994346Y-96008770D01*
X122947723Y-95929707D01*
X122896033Y-95841798D01*
X122839593Y-95745586D01*
X122778722Y-95641614D01*
X122713739Y-95530423D01*
X122644964Y-95412557D01*
X122572713Y-95288557D01*
X122497307Y-95158966D01*
X122419064Y-95024327D01*
X122338303Y-94885182D01*
X122258528Y-94747621D01*
X122169876Y-94594656D01*
X122088291Y-94453771D01*
X122013528Y-94324531D01*
X121945341Y-94206507D01*
X121883485Y-94099266D01*
X121827712Y-94002377D01*
X121777778Y-93915409D01*
X121733436Y-93837930D01*
X121694441Y-93769508D01*
X121660547Y-93709712D01*
X121631509Y-93658110D01*
X121607079Y-93614272D01*
X121587013Y-93577764D01*
X121571064Y-93548156D01*
X121558987Y-93525017D01*
X121550536Y-93507914D01*
X121545465Y-93496416D01*
X121543528Y-93490092D01*
X121543284Y-93487866D01*
X121544330Y-93459350D01*
X121555535Y-93433611D01*
X121555960Y-93432928D01*
X121577220Y-93408556D01*
X121605081Y-93395024D01*
X121642575Y-93390845D01*
X121654309Y-93391247D01*
G37*
G36*
X119575629Y-98973864D02*
G01*
X119590918Y-98988342D01*
X119608695Y-99016173D01*
X119615104Y-99027210D01*
X119644284Y-99073275D01*
X119673530Y-99113267D01*
X119700863Y-99144645D01*
X119724307Y-99164863D01*
X119725499Y-99165666D01*
X119746334Y-99184107D01*
X119768817Y-99212648D01*
X119794540Y-99253289D01*
X119807519Y-99275712D01*
X119821715Y-99301280D01*
X119831397Y-99320016D01*
X119834977Y-99328952D01*
X119831807Y-99332529D01*
X119817667Y-99341720D01*
X119794791Y-99354240D01*
X119766036Y-99368452D01*
X119763204Y-99369794D01*
X119723440Y-99389680D01*
X119684901Y-99410688D01*
X119650031Y-99431311D01*
X119621277Y-99450040D01*
X119601086Y-99465368D01*
X119591903Y-99475788D01*
X119588282Y-99479917D01*
X119573187Y-99488003D01*
X119551334Y-99494996D01*
X119538968Y-99498425D01*
X119496418Y-99518072D01*
X119461928Y-99546700D01*
X119438625Y-99581898D01*
X119431374Y-99601149D01*
X119427082Y-99622075D01*
X119425553Y-99648508D01*
X119426229Y-99685103D01*
X119427247Y-99708514D01*
X119429492Y-99735127D01*
X119433506Y-99754031D01*
X119440364Y-99769594D01*
X119451145Y-99786184D01*
X119451819Y-99787129D01*
X119480495Y-99816832D01*
X119520861Y-99843799D01*
X119539754Y-99855057D01*
X119572678Y-99882314D01*
X119591456Y-99912378D01*
X119596579Y-99946267D01*
X119588535Y-99985001D01*
X119587705Y-99987286D01*
X119582903Y-99996623D01*
X119574987Y-100004112D01*
X119561650Y-100010677D01*
X119540586Y-100017243D01*
X119509488Y-100024732D01*
X119466051Y-100034068D01*
X119441458Y-100035681D01*
X119405632Y-100029673D01*
X119367956Y-100016289D01*
X119331762Y-99997338D01*
X119300383Y-99974629D01*
X119277153Y-99949971D01*
X119265402Y-99925171D01*
X119263841Y-99912502D01*
X119261833Y-99887990D01*
X119259720Y-99855645D01*
X119257763Y-99819102D01*
X119255867Y-99790210D01*
X119251233Y-99743807D01*
X119245149Y-99699058D01*
X119238434Y-99662588D01*
X119236634Y-99654285D01*
X119228677Y-99611839D01*
X119221458Y-99565209D01*
X119216351Y-99523078D01*
X119214555Y-99506772D01*
X119209489Y-99472298D01*
X119203532Y-99442578D01*
X119197629Y-99422673D01*
X119185941Y-99394699D01*
X119304192Y-99278966D01*
X119350243Y-99233069D01*
X119393781Y-99187234D01*
X119428144Y-99147622D01*
X119454661Y-99112584D01*
X119474662Y-99080475D01*
X119489479Y-99049648D01*
X119494587Y-99039408D01*
X119510713Y-99015491D01*
X119530112Y-98993409D01*
X119542698Y-98982119D01*
X119560374Y-98972026D01*
X119575629Y-98973864D01*
G37*
G36*
X127358343Y-101273973D02*
G01*
X127362742Y-101288799D01*
X127370186Y-101315692D01*
X127380287Y-101353193D01*
X127392656Y-101399842D01*
X127406905Y-101454182D01*
X127422644Y-101514753D01*
X127439486Y-101580096D01*
X127453061Y-101632840D01*
X127471013Y-101701923D01*
X127486204Y-101759234D01*
X127499128Y-101806400D01*
X127510276Y-101845047D01*
X127520141Y-101876803D01*
X127529213Y-101903293D01*
X127537984Y-101926146D01*
X127546948Y-101946988D01*
X127556595Y-101967445D01*
X127567084Y-101988416D01*
X127587181Y-102024810D01*
X127608320Y-102056739D01*
X127632242Y-102085823D01*
X127660684Y-102113688D01*
X127695386Y-102141954D01*
X127738087Y-102172246D01*
X127790526Y-102206185D01*
X127854442Y-102245396D01*
X127893522Y-102269219D01*
X127933433Y-102294102D01*
X127967118Y-102315704D01*
X127992926Y-102332946D01*
X128009209Y-102344750D01*
X128014317Y-102350034D01*
X128009937Y-102353459D01*
X127994225Y-102363859D01*
X127968841Y-102379936D01*
X127935563Y-102400581D01*
X127896168Y-102424684D01*
X127852433Y-102451134D01*
X127823619Y-102468587D01*
X127766168Y-102504486D01*
X127719434Y-102535759D01*
X127681627Y-102563896D01*
X127650961Y-102590386D01*
X127625647Y-102616720D01*
X127603898Y-102644386D01*
X127583925Y-102674876D01*
X127571507Y-102696276D01*
X127559121Y-102720246D01*
X127547198Y-102746775D01*
X127535251Y-102777355D01*
X127522793Y-102813481D01*
X127509339Y-102856645D01*
X127494401Y-102908342D01*
X127477493Y-102970065D01*
X127458129Y-103043307D01*
X127435823Y-103129562D01*
X127427694Y-103161193D01*
X127411708Y-103223186D01*
X127397064Y-103279692D01*
X127384155Y-103329219D01*
X127373371Y-103370274D01*
X127365104Y-103401365D01*
X127359745Y-103420999D01*
X127357684Y-103427684D01*
X127357525Y-103427253D01*
X127354675Y-103416958D01*
X127348625Y-103394138D01*
X127339781Y-103360357D01*
X127328551Y-103317179D01*
X127315340Y-103266166D01*
X127300557Y-103208882D01*
X127284607Y-103146889D01*
X127279991Y-103128930D01*
X127259720Y-103050288D01*
X127242541Y-102984285D01*
X127227994Y-102929416D01*
X127215619Y-102884179D01*
X127204956Y-102847069D01*
X127195544Y-102816583D01*
X127186923Y-102791218D01*
X127178633Y-102769469D01*
X127170214Y-102749833D01*
X127161205Y-102730807D01*
X127151146Y-102710886D01*
X127134831Y-102681027D01*
X127113237Y-102647540D01*
X127088663Y-102616806D01*
X127059374Y-102587272D01*
X127023639Y-102557381D01*
X126979725Y-102525581D01*
X126925899Y-102490315D01*
X126860428Y-102450029D01*
X126824101Y-102428013D01*
X126783843Y-102403298D01*
X126749536Y-102381883D01*
X126722892Y-102364852D01*
X126705625Y-102353287D01*
X126699449Y-102348271D01*
X126703156Y-102344957D01*
X126718000Y-102334745D01*
X126742589Y-102318846D01*
X126775201Y-102298352D01*
X126814117Y-102274354D01*
X126857615Y-102247943D01*
X126906266Y-102218338D01*
X126957410Y-102186152D01*
X126998691Y-102158448D01*
X127031919Y-102133769D01*
X127058904Y-102110655D01*
X127081459Y-102087646D01*
X127101393Y-102063283D01*
X127120519Y-102036108D01*
X127125302Y-102028831D01*
X127139764Y-102005457D01*
X127153002Y-101981285D01*
X127165535Y-101954795D01*
X127177882Y-101924461D01*
X127190562Y-101888762D01*
X127204093Y-101846175D01*
X127218994Y-101795177D01*
X127235784Y-101734244D01*
X127254982Y-101661855D01*
X127277107Y-101576487D01*
X127285824Y-101542644D01*
X127301969Y-101480196D01*
X127316797Y-101423137D01*
X127329912Y-101372977D01*
X127340918Y-101331223D01*
X127349417Y-101299384D01*
X127355013Y-101278969D01*
X127357309Y-101271486D01*
X127358343Y-101273973D01*
G37*
G36*
X122016841Y-92430533D02*
G01*
X122036535Y-92435303D01*
X122068468Y-92443499D01*
X122111434Y-92454789D01*
X122164229Y-92468841D01*
X122225649Y-92485325D01*
X122294490Y-92503910D01*
X122369547Y-92524264D01*
X122449615Y-92546056D01*
X122533490Y-92568955D01*
X122619967Y-92592631D01*
X122707843Y-92616751D01*
X122795913Y-92640985D01*
X122882971Y-92665002D01*
X122967815Y-92688471D01*
X123049239Y-92711060D01*
X123126039Y-92732438D01*
X123197010Y-92752275D01*
X123260948Y-92770239D01*
X123316649Y-92785999D01*
X123362908Y-92799223D01*
X123398520Y-92809582D01*
X123422282Y-92816743D01*
X123432988Y-92820376D01*
X123439918Y-92824112D01*
X123463516Y-92845095D01*
X123480443Y-92872789D01*
X123486944Y-92901544D01*
X123484317Y-92923705D01*
X123470247Y-92956492D01*
X123446492Y-92982565D01*
X123415857Y-92998111D01*
X123400787Y-92999938D01*
X123379591Y-92998908D01*
X123372077Y-92997345D01*
X123350243Y-92991973D01*
X123316394Y-92983203D01*
X123271730Y-92971367D01*
X123217451Y-92956799D01*
X123154757Y-92939830D01*
X123084847Y-92920796D01*
X123008921Y-92900027D01*
X122928179Y-92877857D01*
X122843821Y-92854619D01*
X122757046Y-92830646D01*
X122669054Y-92806271D01*
X122581045Y-92781827D01*
X122494219Y-92757647D01*
X122409775Y-92734062D01*
X122328913Y-92711408D01*
X122252833Y-92690016D01*
X122182734Y-92670219D01*
X122119817Y-92652350D01*
X122065281Y-92636743D01*
X122020326Y-92623730D01*
X121986152Y-92613643D01*
X121963958Y-92606817D01*
X121954944Y-92603583D01*
X121947242Y-92597467D01*
X121929328Y-92573362D01*
X121918215Y-92543599D01*
X121916723Y-92514731D01*
X121926858Y-92483915D01*
X121948207Y-92455428D01*
X121977179Y-92436357D01*
X122010801Y-92429401D01*
X122016841Y-92430533D01*
G37*
G36*
X116615258Y-99602963D02*
G01*
X116611532Y-99606690D01*
X116607805Y-99602963D01*
X116611532Y-99599237D01*
X116615258Y-99602963D01*
G37*
G36*
X120639906Y-101033949D02*
G01*
X120636180Y-101037676D01*
X120632453Y-101033949D01*
X120636180Y-101030223D01*
X120639906Y-101033949D01*
G37*
G36*
X119728861Y-93675743D02*
G01*
X119734682Y-93685256D01*
X119742970Y-93702685D01*
X119754279Y-93729236D01*
X119769161Y-93766120D01*
X119788169Y-93814545D01*
X119811853Y-93875720D01*
X119834601Y-93934537D01*
X119860158Y-93999965D01*
X119881732Y-94054112D01*
X119900012Y-94098501D01*
X119915686Y-94134653D01*
X119929443Y-94164088D01*
X119941972Y-94188330D01*
X119953962Y-94208898D01*
X119966101Y-94227316D01*
X119979079Y-94245103D01*
X119980685Y-94247210D01*
X120000134Y-94270614D01*
X120021295Y-94291403D01*
X120046209Y-94310882D01*
X120076919Y-94330357D01*
X120115466Y-94351133D01*
X120163892Y-94374514D01*
X120224240Y-94401808D01*
X120228969Y-94403906D01*
X120269280Y-94421996D01*
X120304230Y-94438038D01*
X120331742Y-94451053D01*
X120349744Y-94460062D01*
X120356159Y-94464084D01*
X120356035Y-94464339D01*
X120348837Y-94470973D01*
X120331847Y-94485022D01*
X120306859Y-94505045D01*
X120275670Y-94529600D01*
X120240075Y-94557247D01*
X120230048Y-94565002D01*
X120180807Y-94603752D01*
X120141836Y-94635996D01*
X120111469Y-94663439D01*
X120088043Y-94687786D01*
X120069891Y-94710741D01*
X120055348Y-94734011D01*
X120042749Y-94759299D01*
X120035880Y-94774971D01*
X120028073Y-94794898D01*
X120021098Y-94816176D01*
X120014627Y-94840487D01*
X120008335Y-94869511D01*
X120001897Y-94904930D01*
X119994986Y-94948425D01*
X119987278Y-95001677D01*
X119978445Y-95066367D01*
X119968163Y-95144175D01*
X119962878Y-95184110D01*
X119955366Y-95239312D01*
X119948452Y-95288340D01*
X119942390Y-95329472D01*
X119937438Y-95360985D01*
X119933850Y-95381156D01*
X119931884Y-95388263D01*
X119930023Y-95385254D01*
X119923226Y-95370189D01*
X119912207Y-95343906D01*
X119897626Y-95308028D01*
X119880140Y-95264182D01*
X119860406Y-95213991D01*
X119839083Y-95159081D01*
X119816843Y-95101710D01*
X119790484Y-95034732D01*
X119767941Y-94979125D01*
X119748474Y-94933371D01*
X119731343Y-94895950D01*
X119715809Y-94865344D01*
X119701132Y-94840033D01*
X119686573Y-94818499D01*
X119671392Y-94799222D01*
X119654849Y-94780684D01*
X119649964Y-94775522D01*
X119634236Y-94760010D01*
X119617652Y-94745990D01*
X119598374Y-94732422D01*
X119574560Y-94718265D01*
X119544371Y-94702478D01*
X119505967Y-94684022D01*
X119457509Y-94661855D01*
X119397155Y-94634936D01*
X119388665Y-94631153D01*
X119356217Y-94616250D01*
X119329925Y-94603476D01*
X119312300Y-94594086D01*
X119305856Y-94589334D01*
X119305916Y-94589113D01*
X119312617Y-94582282D01*
X119329139Y-94567990D01*
X119353683Y-94547723D01*
X119384451Y-94522969D01*
X119419645Y-94495215D01*
X119469032Y-94456136D01*
X119508470Y-94423559D01*
X119539239Y-94396076D01*
X119563090Y-94371914D01*
X119581772Y-94349297D01*
X119597037Y-94326453D01*
X119610634Y-94301605D01*
X119613779Y-94295285D01*
X119623126Y-94274925D01*
X119631299Y-94253718D01*
X119638656Y-94229917D01*
X119645553Y-94201778D01*
X119652347Y-94167555D01*
X119659396Y-94125503D01*
X119667057Y-94073877D01*
X119675686Y-94010930D01*
X119685640Y-93934918D01*
X119689324Y-93906553D01*
X119696832Y-93849698D01*
X119703858Y-93797719D01*
X119710125Y-93752598D01*
X119715355Y-93716319D01*
X119719269Y-93690864D01*
X119721592Y-93678214D01*
X119722414Y-93675625D01*
X119724956Y-93672935D01*
X119728861Y-93675743D01*
G37*
G36*
X123357095Y-101622368D02*
G01*
X123368583Y-101626870D01*
X123380825Y-101633874D01*
X123405106Y-101648679D01*
X123400116Y-101702787D01*
X123397641Y-101724861D01*
X123389036Y-101767567D01*
X123376429Y-101796778D01*
X123359572Y-101813167D01*
X123347815Y-101816623D01*
X123318958Y-101818370D01*
X123275713Y-101816444D01*
X123232538Y-101814527D01*
X123196035Y-101816427D01*
X123162764Y-101822633D01*
X123142168Y-101827305D01*
X123104620Y-101834253D01*
X123069601Y-101839179D01*
X123032935Y-101844181D01*
X123005770Y-101850993D01*
X122984235Y-101861170D01*
X122963650Y-101876354D01*
X122960663Y-101878753D01*
X122930765Y-101892624D01*
X122895549Y-101892698D01*
X122855324Y-101878968D01*
X122844471Y-101873135D01*
X122812071Y-101845770D01*
X122791547Y-101809794D01*
X122783704Y-101766472D01*
X122782659Y-101727083D01*
X122857189Y-101713870D01*
X122882269Y-101709426D01*
X122927880Y-101701349D01*
X122976514Y-101692743D01*
X123021156Y-101684848D01*
X123022954Y-101684529D01*
X123066148Y-101676392D01*
X123117277Y-101666068D01*
X123170101Y-101654849D01*
X123218380Y-101644027D01*
X123223379Y-101642867D01*
X123268635Y-101632512D01*
X123302133Y-101625441D01*
X123326373Y-101621497D01*
X123343860Y-101620525D01*
X123357095Y-101622368D01*
G37*
G36*
X124955589Y-89180684D02*
G01*
X124960039Y-89191708D01*
X124968165Y-89214647D01*
X124979380Y-89247748D01*
X124993096Y-89289259D01*
X125008726Y-89337429D01*
X125025681Y-89390506D01*
X125054698Y-89481845D01*
X125081256Y-89564878D01*
X125104316Y-89636090D01*
X125124349Y-89696716D01*
X125141825Y-89747993D01*
X125157214Y-89791156D01*
X125170986Y-89827443D01*
X125183611Y-89858088D01*
X125195559Y-89884330D01*
X125207300Y-89907403D01*
X125219303Y-89928544D01*
X125232040Y-89948989D01*
X125245979Y-89969974D01*
X125258251Y-89987449D01*
X125282595Y-90018178D01*
X125309527Y-90046384D01*
X125340900Y-90073469D01*
X125378562Y-90100836D01*
X125424367Y-90129887D01*
X125480162Y-90162023D01*
X125547801Y-90198648D01*
X125589149Y-90220518D01*
X125632642Y-90243390D01*
X125670598Y-90263212D01*
X125701114Y-90278992D01*
X125722284Y-90289742D01*
X125732204Y-90294472D01*
X125739266Y-90298036D01*
X125745247Y-90304930D01*
X125739861Y-90310020D01*
X125723681Y-90322420D01*
X125698306Y-90340909D01*
X125665350Y-90364330D01*
X125626424Y-90391525D01*
X125583143Y-90421335D01*
X125560060Y-90437205D01*
X125498445Y-90480634D01*
X125447703Y-90518435D01*
X125406305Y-90551976D01*
X125372718Y-90582622D01*
X125345410Y-90611739D01*
X125322852Y-90640695D01*
X125303512Y-90670855D01*
X125296906Y-90682271D01*
X125283456Y-90706599D01*
X125271382Y-90730629D01*
X125260313Y-90755720D01*
X125249879Y-90783232D01*
X125239711Y-90814525D01*
X125229438Y-90850959D01*
X125218690Y-90893895D01*
X125207097Y-90944691D01*
X125194288Y-91004708D01*
X125179894Y-91075306D01*
X125163545Y-91157844D01*
X125144869Y-91253682D01*
X125134146Y-91308410D01*
X125123019Y-91363957D01*
X125112916Y-91413100D01*
X125104190Y-91454192D01*
X125097190Y-91485584D01*
X125092267Y-91505628D01*
X125089773Y-91512676D01*
X125088024Y-91509399D01*
X125082025Y-91493597D01*
X125072360Y-91466002D01*
X125059511Y-91428055D01*
X125043957Y-91381194D01*
X125026180Y-91326857D01*
X125006659Y-91266483D01*
X124985875Y-91201511D01*
X124972302Y-91159082D01*
X124945605Y-91077042D01*
X124921209Y-91004016D01*
X124899482Y-90941065D01*
X124880795Y-90889250D01*
X124865517Y-90849631D01*
X124854018Y-90823269D01*
X124831565Y-90780975D01*
X124792897Y-90720129D01*
X124751014Y-90666413D01*
X124708681Y-90623624D01*
X124693782Y-90612655D01*
X124666975Y-90595448D01*
X124631072Y-90573850D01*
X124588223Y-90549123D01*
X124540577Y-90522530D01*
X124490284Y-90495334D01*
X124485483Y-90492778D01*
X124438271Y-90467384D01*
X124395768Y-90444073D01*
X124359673Y-90423812D01*
X124331686Y-90407567D01*
X124313504Y-90396305D01*
X124306829Y-90390992D01*
X124310806Y-90386289D01*
X124325529Y-90374005D01*
X124349571Y-90355570D01*
X124381312Y-90332195D01*
X124419130Y-90305091D01*
X124461405Y-90275469D01*
X124494371Y-90252521D01*
X124536627Y-90222821D01*
X124574657Y-90195778D01*
X124606444Y-90172837D01*
X124629975Y-90155442D01*
X124643233Y-90145041D01*
X124684042Y-90104433D01*
X124731487Y-90041107D01*
X124772194Y-89967046D01*
X124804963Y-89884184D01*
X124807613Y-89875390D01*
X124814952Y-89847226D01*
X124824424Y-89807279D01*
X124835609Y-89757483D01*
X124848084Y-89699773D01*
X124861429Y-89636081D01*
X124875222Y-89568342D01*
X124889041Y-89498489D01*
X124897828Y-89453596D01*
X124910438Y-89389890D01*
X124922082Y-89331914D01*
X124932452Y-89281154D01*
X124941240Y-89239094D01*
X124948139Y-89207218D01*
X124952840Y-89187011D01*
X124955037Y-89179958D01*
X124955589Y-89180684D01*
G37*
G36*
X117718747Y-95058475D02*
G01*
X117725269Y-95071508D01*
X117726114Y-95073675D01*
X117732194Y-95089300D01*
X117742847Y-95116699D01*
X117757440Y-95154245D01*
X117775341Y-95200311D01*
X117795917Y-95253269D01*
X117818537Y-95311493D01*
X117842568Y-95373357D01*
X117864394Y-95429407D01*
X117895112Y-95507531D01*
X117921769Y-95573928D01*
X117945056Y-95629975D01*
X117965667Y-95677046D01*
X117984296Y-95716518D01*
X118001636Y-95749765D01*
X118018379Y-95778164D01*
X118035220Y-95803091D01*
X118052852Y-95825921D01*
X118071967Y-95848029D01*
X118093260Y-95870792D01*
X118107611Y-95885418D01*
X118127928Y-95904553D01*
X118148978Y-95921855D01*
X118172617Y-95938416D01*
X118200700Y-95955331D01*
X118235084Y-95973693D01*
X118277624Y-95994596D01*
X118330175Y-96019134D01*
X118394592Y-96048399D01*
X118441955Y-96069885D01*
X118485204Y-96089766D01*
X118521907Y-96106909D01*
X118550296Y-96120479D01*
X118568605Y-96129643D01*
X118575068Y-96133568D01*
X118572654Y-96136099D01*
X118560216Y-96146680D01*
X118538644Y-96164202D01*
X118509570Y-96187361D01*
X118474623Y-96214850D01*
X118435435Y-96245364D01*
X118425824Y-96252817D01*
X118369872Y-96296564D01*
X118324231Y-96333071D01*
X118287418Y-96363703D01*
X118257949Y-96389821D01*
X118234341Y-96412788D01*
X118215111Y-96433966D01*
X118198773Y-96454719D01*
X118183845Y-96476408D01*
X118169897Y-96498365D01*
X118153824Y-96525794D01*
X118139734Y-96553333D01*
X118127264Y-96582452D01*
X118116050Y-96614623D01*
X118105727Y-96651314D01*
X118095931Y-96693997D01*
X118086298Y-96744142D01*
X118076464Y-96803219D01*
X118066065Y-96872699D01*
X118054737Y-96954052D01*
X118042115Y-97048748D01*
X118036759Y-97089367D01*
X118028104Y-97154443D01*
X118020065Y-97214208D01*
X118012860Y-97267085D01*
X118006706Y-97311495D01*
X118001821Y-97345858D01*
X117998423Y-97368597D01*
X117996728Y-97378133D01*
X117994800Y-97376252D01*
X117987942Y-97362586D01*
X117976715Y-97337314D01*
X117961678Y-97301776D01*
X117943385Y-97257309D01*
X117922392Y-97205254D01*
X117899255Y-97146951D01*
X117874531Y-97083738D01*
X117861268Y-97049617D01*
X117831002Y-96972073D01*
X117805141Y-96906517D01*
X117783050Y-96851552D01*
X117764092Y-96805780D01*
X117747628Y-96767805D01*
X117733023Y-96736231D01*
X117719640Y-96709659D01*
X117706841Y-96686694D01*
X117693990Y-96665939D01*
X117680450Y-96645995D01*
X117665583Y-96625468D01*
X117652905Y-96608631D01*
X117631512Y-96582142D01*
X117609737Y-96558471D01*
X117586091Y-96536672D01*
X117559086Y-96515799D01*
X117527233Y-96494907D01*
X117489045Y-96473050D01*
X117443034Y-96449282D01*
X117387711Y-96422657D01*
X117321589Y-96392231D01*
X117243178Y-96357057D01*
X117221554Y-96347333D01*
X117188031Y-96331821D01*
X117161212Y-96318852D01*
X117143419Y-96309563D01*
X117136972Y-96305088D01*
X117137082Y-96304831D01*
X117144213Y-96298044D01*
X117161421Y-96283490D01*
X117187214Y-96262381D01*
X117220098Y-96235926D01*
X117258583Y-96205337D01*
X117301176Y-96171825D01*
X117331124Y-96148274D01*
X117383269Y-96106472D01*
X117425657Y-96070938D01*
X117459848Y-96040033D01*
X117487403Y-96012119D01*
X117509884Y-95985559D01*
X117528850Y-95958716D01*
X117545864Y-95929950D01*
X117562485Y-95897625D01*
X117565374Y-95891644D01*
X117577399Y-95864735D01*
X117588263Y-95836315D01*
X117598270Y-95804905D01*
X117607727Y-95769026D01*
X117616938Y-95727199D01*
X117626208Y-95677945D01*
X117635845Y-95619786D01*
X117646152Y-95551241D01*
X117657436Y-95470833D01*
X117670001Y-95377083D01*
X117674844Y-95340449D01*
X117683426Y-95275953D01*
X117691366Y-95216825D01*
X117698448Y-95164633D01*
X117704459Y-95120945D01*
X117709182Y-95087332D01*
X117712403Y-95065361D01*
X117713908Y-95056602D01*
X117714246Y-95055923D01*
X117718747Y-95058475D01*
G37*
G36*
X121869691Y-100966984D02*
G01*
X121910231Y-100980061D01*
X121948375Y-101000871D01*
X121980730Y-101028041D01*
X122003899Y-101060199D01*
X122007366Y-101066282D01*
X122029809Y-101092842D01*
X122063107Y-101119434D01*
X122086719Y-101136923D01*
X122110093Y-101157037D01*
X122126052Y-101173927D01*
X122127023Y-101175213D01*
X122148112Y-101208981D01*
X122169862Y-101253731D01*
X122190697Y-101305889D01*
X122209040Y-101361884D01*
X122215634Y-101385123D01*
X122221434Y-101409264D01*
X122224801Y-101431612D01*
X122226107Y-101456336D01*
X122225726Y-101487602D01*
X122224029Y-101529577D01*
X122223802Y-101534475D01*
X122221704Y-101574694D01*
X122219394Y-101611874D01*
X122217138Y-101642063D01*
X122215200Y-101661308D01*
X122213730Y-101672927D01*
X122214101Y-101687162D01*
X122221417Y-101694495D01*
X122238841Y-101700117D01*
X122259649Y-101703577D01*
X122286667Y-101702712D01*
X122323189Y-101697003D01*
X122379673Y-101686196D01*
X122407882Y-101713742D01*
X122409928Y-101715766D01*
X122429679Y-101740444D01*
X122436092Y-101761874D01*
X122438111Y-101782883D01*
X122447818Y-101818010D01*
X122463944Y-101855190D01*
X122484693Y-101891707D01*
X122508270Y-101924840D01*
X122532881Y-101951872D01*
X122556728Y-101970085D01*
X122578017Y-101976760D01*
X122578199Y-101976764D01*
X122589784Y-101981242D01*
X122605478Y-101991666D01*
X122605802Y-101991920D01*
X122633366Y-102004441D01*
X122665114Y-102003304D01*
X122699410Y-101988561D01*
X122714932Y-101980619D01*
X122735811Y-101975223D01*
X122750819Y-101977663D01*
X122756573Y-101987975D01*
X122757047Y-101991686D01*
X122760752Y-102008180D01*
X122767337Y-102033375D01*
X122775839Y-102063500D01*
X122780363Y-102079871D01*
X122790348Y-102120707D01*
X122801040Y-102169557D01*
X122811935Y-102223602D01*
X122822531Y-102280024D01*
X122832327Y-102336004D01*
X122840821Y-102388725D01*
X122847509Y-102435366D01*
X122851891Y-102473111D01*
X122853463Y-102499141D01*
X122853463Y-102551167D01*
X122777457Y-102549043D01*
X122701452Y-102546919D01*
X122688004Y-102479841D01*
X122677053Y-102422431D01*
X122663177Y-102338779D01*
X122653046Y-102262360D01*
X122647158Y-102196625D01*
X122646167Y-102182536D01*
X122643257Y-102153962D01*
X122639844Y-102132671D01*
X122636476Y-102122468D01*
X122636457Y-102122448D01*
X122631805Y-102110482D01*
X122629871Y-102091705D01*
X122627536Y-102073340D01*
X122615950Y-102057641D01*
X122592758Y-102050155D01*
X122585765Y-102050045D01*
X122576333Y-102053901D01*
X122565178Y-102064246D01*
X122550227Y-102083122D01*
X122529407Y-102112571D01*
X122521469Y-102124054D01*
X122498141Y-102157692D01*
X122470300Y-102197728D01*
X122440774Y-102240100D01*
X122412388Y-102280744D01*
X122340239Y-102383911D01*
X122292280Y-102392747D01*
X122267737Y-102397160D01*
X122245895Y-102400427D01*
X122233754Y-102400714D01*
X122228511Y-102398002D01*
X122227365Y-102392268D01*
X122227291Y-102389407D01*
X122220598Y-102357785D01*
X122205323Y-102325253D01*
X122184689Y-102298858D01*
X122158559Y-102274214D01*
X122176790Y-102239146D01*
X122182298Y-102228999D01*
X122197625Y-102202583D01*
X122216791Y-102171054D01*
X122236904Y-102139217D01*
X122253056Y-102115019D01*
X122273308Y-102088394D01*
X122291226Y-102070572D01*
X122309293Y-102058794D01*
X122319748Y-102053118D01*
X122334135Y-102042368D01*
X122344303Y-102028004D01*
X122352492Y-102006333D01*
X122360944Y-101973660D01*
X122360978Y-101973514D01*
X122365248Y-101947116D01*
X122361395Y-101932129D01*
X122347674Y-101926495D01*
X122322340Y-101928158D01*
X122263754Y-101934882D01*
X122182160Y-101936791D01*
X122109121Y-101928465D01*
X122043166Y-101909806D01*
X122023081Y-101900779D01*
X121998431Y-101883445D01*
X121985523Y-101864973D01*
X121984803Y-101847211D01*
X121996719Y-101832006D01*
X122021718Y-101821207D01*
X122054046Y-101813067D01*
X122059401Y-101737542D01*
X122064755Y-101662018D01*
X122038012Y-101639973D01*
X122031494Y-101634166D01*
X122016934Y-101616788D01*
X122011268Y-101602289D01*
X122009525Y-101591855D01*
X122000514Y-101574766D01*
X122000463Y-101574709D01*
X121992337Y-101559291D01*
X121984037Y-101533090D01*
X121976386Y-101500169D01*
X121970204Y-101464588D01*
X121966311Y-101430412D01*
X121965530Y-101401702D01*
X121964843Y-101371937D01*
X121956858Y-101336743D01*
X121939305Y-101302295D01*
X121910529Y-101264466D01*
X121910426Y-101264344D01*
X121893641Y-101243400D01*
X121881676Y-101226017D01*
X121877113Y-101215947D01*
X121872865Y-101201757D01*
X121860639Y-101189014D01*
X121844814Y-101181555D01*
X121829844Y-101181374D01*
X121820184Y-101190463D01*
X121815419Y-101196537D01*
X121801100Y-101201243D01*
X121785249Y-101198840D01*
X121775090Y-101189485D01*
X121773970Y-101179086D01*
X121775418Y-101157653D01*
X121779528Y-101131528D01*
X121781925Y-101118808D01*
X121784850Y-101093866D01*
X121783135Y-101073307D01*
X121776518Y-101050049D01*
X121770927Y-101031606D01*
X121767075Y-101004155D01*
X121772550Y-100985289D01*
X121787676Y-100972758D01*
X121795004Y-100969523D01*
X121830150Y-100963014D01*
X121869691Y-100966984D01*
G37*
G36*
X119065832Y-101029337D02*
G01*
X119080295Y-101044604D01*
X119083518Y-101048515D01*
X119097814Y-101062029D01*
X119109183Y-101067488D01*
X119122617Y-101071599D01*
X119139199Y-101086391D01*
X119151767Y-101107516D01*
X119156749Y-101130262D01*
X119156410Y-101139201D01*
X119151025Y-101155968D01*
X119136253Y-101167568D01*
X119121058Y-101174137D01*
X119085617Y-101178081D01*
X119048519Y-101167528D01*
X119041029Y-101163449D01*
X119017789Y-101140572D01*
X119004497Y-101107532D01*
X119001711Y-101065547D01*
X119003961Y-101026496D01*
X119033174Y-101024108D01*
X119050592Y-101023803D01*
X119065832Y-101029337D01*
G37*
G36*
X116942409Y-100284498D02*
G01*
X116947660Y-100288546D01*
X116959692Y-100305554D01*
X116969164Y-100328004D01*
X116973005Y-100349381D01*
X116972327Y-100356531D01*
X116968320Y-100357820D01*
X116960119Y-100346689D01*
X116947045Y-100322431D01*
X116942267Y-100312948D01*
X116932467Y-100292330D01*
X116929392Y-100282091D01*
X116932790Y-100280169D01*
X116942409Y-100284498D01*
G37*
G36*
X119410334Y-95005327D02*
G01*
X119440705Y-95018015D01*
X119465807Y-95039039D01*
X119474952Y-95053203D01*
X119484064Y-95084781D01*
X119483203Y-95119022D01*
X119472048Y-95150222D01*
X119470865Y-95151809D01*
X119463017Y-95158667D01*
X119448343Y-95168870D01*
X119426352Y-95182688D01*
X119396550Y-95200392D01*
X119358444Y-95222252D01*
X119311542Y-95248539D01*
X119255351Y-95279523D01*
X119189377Y-95315475D01*
X119113128Y-95356666D01*
X119026111Y-95403366D01*
X118927834Y-95455846D01*
X118817802Y-95514377D01*
X118695523Y-95579228D01*
X118560505Y-95650671D01*
X118524431Y-95669588D01*
X118479903Y-95692092D01*
X118445027Y-95708078D01*
X118417837Y-95718085D01*
X118396366Y-95722648D01*
X118378646Y-95722305D01*
X118362710Y-95717592D01*
X118346591Y-95709046D01*
X118336137Y-95701672D01*
X118313397Y-95674667D01*
X118302225Y-95641874D01*
X118303371Y-95606804D01*
X118317584Y-95572971D01*
X118317662Y-95572857D01*
X118326636Y-95565514D01*
X118347539Y-95552140D01*
X118380540Y-95532640D01*
X118425806Y-95506921D01*
X118483506Y-95474890D01*
X118553808Y-95436453D01*
X118636880Y-95391517D01*
X118732891Y-95339988D01*
X118842009Y-95281773D01*
X118859555Y-95272439D01*
X118940276Y-95229583D01*
X119017297Y-95188831D01*
X119089570Y-95150731D01*
X119156045Y-95115829D01*
X119215671Y-95084672D01*
X119267401Y-95057808D01*
X119310183Y-95035784D01*
X119342970Y-95019148D01*
X119364710Y-95008445D01*
X119374355Y-95004224D01*
X119380302Y-95003109D01*
X119410334Y-95005327D01*
G37*
G36*
X120876060Y-92810486D02*
G01*
X120902072Y-92825226D01*
X120924463Y-92852714D01*
X120935777Y-92889885D01*
X120936009Y-92891845D01*
X120936210Y-92898279D01*
X120935284Y-92905955D01*
X120932783Y-92915791D01*
X120928260Y-92928709D01*
X120921269Y-92945626D01*
X120911363Y-92967462D01*
X120898095Y-92995137D01*
X120881019Y-93029571D01*
X120859688Y-93071682D01*
X120833655Y-93122391D01*
X120802474Y-93182616D01*
X120765697Y-93253277D01*
X120722879Y-93335294D01*
X120673572Y-93429586D01*
X120666443Y-93443210D01*
X120624178Y-93523842D01*
X120583788Y-93600666D01*
X120545831Y-93672637D01*
X120510864Y-93738710D01*
X120479442Y-93797838D01*
X120452123Y-93848975D01*
X120429465Y-93891077D01*
X120412023Y-93923096D01*
X120400354Y-93943988D01*
X120395017Y-93952705D01*
X120380390Y-93965128D01*
X120360417Y-93976636D01*
X120337721Y-93984625D01*
X120314199Y-93985411D01*
X120286898Y-93976813D01*
X120285981Y-93976425D01*
X120255063Y-93956233D01*
X120236373Y-93927581D01*
X120230301Y-93891057D01*
X120230346Y-93889382D01*
X120231301Y-93881413D01*
X120233829Y-93871261D01*
X120238382Y-93858012D01*
X120245407Y-93840748D01*
X120255356Y-93818555D01*
X120268678Y-93790515D01*
X120285823Y-93755712D01*
X120307240Y-93713231D01*
X120333380Y-93662155D01*
X120364691Y-93601568D01*
X120401624Y-93530554D01*
X120444629Y-93448197D01*
X120494155Y-93353580D01*
X120497985Y-93346270D01*
X120540352Y-93265655D01*
X120581052Y-93188635D01*
X120619508Y-93116280D01*
X120655141Y-93049661D01*
X120687371Y-92989847D01*
X120715619Y-92937908D01*
X120739308Y-92894915D01*
X120757858Y-92861938D01*
X120770690Y-92840046D01*
X120777225Y-92830309D01*
X120777696Y-92829826D01*
X120806363Y-92810664D01*
X120840416Y-92803963D01*
X120876060Y-92810486D01*
G37*
G36*
X124609184Y-91133115D02*
G01*
X124641731Y-91143115D01*
X124668875Y-91163555D01*
X124687469Y-91191410D01*
X124694366Y-91223650D01*
X124694028Y-91227229D01*
X124691000Y-91244988D01*
X124685079Y-91275225D01*
X124676570Y-91316589D01*
X124665774Y-91367727D01*
X124652995Y-91427287D01*
X124638536Y-91493916D01*
X124622698Y-91566263D01*
X124605786Y-91642975D01*
X124588102Y-91722700D01*
X124569949Y-91804085D01*
X124551630Y-91885779D01*
X124533447Y-91966430D01*
X124515704Y-92044684D01*
X124498704Y-92119190D01*
X124482748Y-92188595D01*
X124468141Y-92251548D01*
X124455185Y-92306695D01*
X124444182Y-92352686D01*
X124435436Y-92388167D01*
X124429250Y-92411786D01*
X124425926Y-92422192D01*
X124425150Y-92423537D01*
X124412206Y-92438198D01*
X124393905Y-92452131D01*
X124386636Y-92456149D01*
X124352196Y-92465800D01*
X124317515Y-92462360D01*
X124286182Y-92446707D01*
X124261788Y-92419723D01*
X124260508Y-92417556D01*
X124251086Y-92396459D01*
X124247211Y-92378162D01*
X124247815Y-92372899D01*
X124251332Y-92353469D01*
X124257726Y-92321817D01*
X124266690Y-92279281D01*
X124277921Y-92227201D01*
X124291114Y-92166914D01*
X124305963Y-92099760D01*
X124322164Y-92027078D01*
X124339412Y-91950206D01*
X124357403Y-91870484D01*
X124375831Y-91789249D01*
X124394392Y-91707842D01*
X124412781Y-91627600D01*
X124430694Y-91549863D01*
X124447824Y-91475970D01*
X124463868Y-91407259D01*
X124478521Y-91345069D01*
X124491479Y-91290739D01*
X124502435Y-91245608D01*
X124511086Y-91211014D01*
X124517126Y-91188298D01*
X124520251Y-91178796D01*
X124524546Y-91172888D01*
X124546530Y-91153048D01*
X124573754Y-91138357D01*
X124599710Y-91132598D01*
X124609184Y-91133115D01*
G37*
G36*
X120878218Y-90509464D02*
G01*
X120890056Y-90529513D01*
X120908075Y-90562232D01*
X120932099Y-90607288D01*
X120961954Y-90664344D01*
X120997463Y-90733066D01*
X121038450Y-90813117D01*
X121084741Y-90904163D01*
X121136159Y-91005868D01*
X121151575Y-91036240D01*
X121188175Y-91106269D01*
X121221027Y-91165410D01*
X121251514Y-91215757D01*
X121281018Y-91259403D01*
X121310924Y-91298442D01*
X121342614Y-91334966D01*
X121377471Y-91371068D01*
X121402319Y-91395187D01*
X121429002Y-91419254D01*
X121455355Y-91440241D01*
X121483199Y-91459084D01*
X121514356Y-91476716D01*
X121550648Y-91494073D01*
X121593896Y-91512089D01*
X121645922Y-91531698D01*
X121708547Y-91553835D01*
X121783594Y-91579435D01*
X121812451Y-91589199D01*
X121865026Y-91607102D01*
X121912074Y-91623266D01*
X121951872Y-91637093D01*
X121982700Y-91647981D01*
X122002836Y-91655332D01*
X122010560Y-91658545D01*
X122010580Y-91658572D01*
X122006056Y-91664732D01*
X121992069Y-91680111D01*
X121969769Y-91703528D01*
X121940307Y-91733801D01*
X121904834Y-91769746D01*
X121864499Y-91810180D01*
X121820455Y-91853923D01*
X121782951Y-91891067D01*
X121734449Y-91939556D01*
X121694689Y-91980297D01*
X121662494Y-92014872D01*
X121636685Y-92044863D01*
X121616085Y-92071852D01*
X121599515Y-92097422D01*
X121585798Y-92123153D01*
X121573755Y-92150628D01*
X121562208Y-92181429D01*
X121549979Y-92217137D01*
X121540737Y-92245577D01*
X121532789Y-92272559D01*
X121526008Y-92299512D01*
X121520243Y-92327929D01*
X121515345Y-92359303D01*
X121511163Y-92395128D01*
X121507548Y-92436896D01*
X121504350Y-92486100D01*
X121501418Y-92544235D01*
X121498603Y-92612792D01*
X121495755Y-92693265D01*
X121492724Y-92787148D01*
X121492207Y-92803531D01*
X121489833Y-92876739D01*
X121487503Y-92945462D01*
X121485273Y-93008212D01*
X121483202Y-93063501D01*
X121481345Y-93109842D01*
X121479761Y-93145747D01*
X121478505Y-93169727D01*
X121477636Y-93180296D01*
X121474917Y-93190789D01*
X121471330Y-93197066D01*
X121470908Y-93196563D01*
X121465293Y-93186674D01*
X121453762Y-93165085D01*
X121436963Y-93133046D01*
X121415543Y-93091805D01*
X121390150Y-93042612D01*
X121361430Y-92986716D01*
X121330030Y-92925367D01*
X121296599Y-92859815D01*
X121292677Y-92852115D01*
X121257958Y-92784321D01*
X121224176Y-92718980D01*
X121192156Y-92657644D01*
X121162720Y-92601865D01*
X121136693Y-92553193D01*
X121114897Y-92513182D01*
X121098155Y-92483382D01*
X121087292Y-92465345D01*
X121055415Y-92421235D01*
X121015431Y-92373204D01*
X120971983Y-92326700D01*
X120928653Y-92285549D01*
X120889024Y-92253577D01*
X120869382Y-92240072D01*
X120847581Y-92226564D01*
X120823782Y-92213695D01*
X120796236Y-92200741D01*
X120763197Y-92186975D01*
X120722917Y-92171675D01*
X120673648Y-92154115D01*
X120613642Y-92133570D01*
X120541153Y-92109315D01*
X120526212Y-92104336D01*
X120474898Y-92086996D01*
X120428977Y-92071114D01*
X120390203Y-92057321D01*
X120360334Y-92046250D01*
X120341125Y-92038534D01*
X120334331Y-92034806D01*
X120335054Y-92033565D01*
X120343881Y-92023684D01*
X120361699Y-92005323D01*
X120387190Y-91979793D01*
X120419036Y-91948408D01*
X120455918Y-91912480D01*
X120496517Y-91873322D01*
X120506306Y-91863911D01*
X120548493Y-91823045D01*
X120588255Y-91784052D01*
X120623914Y-91748611D01*
X120653793Y-91718399D01*
X120676214Y-91695093D01*
X120689500Y-91680370D01*
X120732216Y-91620157D01*
X120770683Y-91545424D01*
X120802180Y-91458977D01*
X120827106Y-91359888D01*
X120827817Y-91356383D01*
X120831321Y-91337090D01*
X120834428Y-91315627D01*
X120837225Y-91290579D01*
X120839797Y-91260533D01*
X120842231Y-91224073D01*
X120844612Y-91179784D01*
X120847028Y-91126253D01*
X120849564Y-91062065D01*
X120852306Y-90985805D01*
X120855340Y-90896058D01*
X120856329Y-90866518D01*
X120858884Y-90793366D01*
X120861409Y-90725313D01*
X120863842Y-90663760D01*
X120866122Y-90610106D01*
X120868189Y-90565752D01*
X120869980Y-90532097D01*
X120871436Y-90510542D01*
X120872495Y-90502485D01*
X120872737Y-90502422D01*
X120878218Y-90509464D01*
G37*
G36*
X119980742Y-100233082D02*
G01*
X119987764Y-100240199D01*
X119989152Y-100242838D01*
X119988644Y-100247652D01*
X119987334Y-100247317D01*
X119980311Y-100240199D01*
X119978923Y-100237561D01*
X119979432Y-100232746D01*
X119980742Y-100233082D01*
G37*
G36*
X121597656Y-102120977D02*
G01*
X121607505Y-102127730D01*
X121624787Y-102142558D01*
X121647437Y-102163455D01*
X121673394Y-102188419D01*
X121700595Y-102215442D01*
X121726979Y-102242522D01*
X121750483Y-102267653D01*
X121769044Y-102288830D01*
X121773198Y-102293778D01*
X121791307Y-102314145D01*
X121805768Y-102328568D01*
X121813762Y-102334188D01*
X121815369Y-102334833D01*
X121825577Y-102343596D01*
X121841464Y-102360415D01*
X121860344Y-102382504D01*
X121899472Y-102430303D01*
X121899472Y-102504011D01*
X121898057Y-102556084D01*
X121890699Y-102621688D01*
X121876691Y-102676036D01*
X121855625Y-102720558D01*
X121827091Y-102756684D01*
X121802279Y-102776080D01*
X121778050Y-102782174D01*
X121753503Y-102774031D01*
X121726898Y-102751564D01*
X121713934Y-102736517D01*
X121701786Y-102714494D01*
X121699052Y-102690896D01*
X121705575Y-102662273D01*
X121721200Y-102625176D01*
X121724548Y-102617830D01*
X121739836Y-102568677D01*
X121742498Y-102518403D01*
X121732421Y-102464928D01*
X121709494Y-102406170D01*
X121703949Y-102395307D01*
X121687127Y-102367696D01*
X121667112Y-102339802D01*
X121646552Y-102314929D01*
X121628096Y-102296383D01*
X121614393Y-102287470D01*
X121607497Y-102284122D01*
X121601350Y-102274723D01*
X121601352Y-102274544D01*
X121606030Y-102270931D01*
X121620193Y-102278062D01*
X121624216Y-102280561D01*
X121641546Y-102286839D01*
X121651173Y-102282062D01*
X121652812Y-102267840D01*
X121646176Y-102245781D01*
X121630979Y-102217495D01*
X121621284Y-102200657D01*
X121609172Y-102175035D01*
X121600024Y-102150564D01*
X121595263Y-102131207D01*
X121596310Y-102120924D01*
X121597656Y-102120977D01*
G37*
%TD*%
M02*
