M48
; DRILL file {KiCad (6.0.11)} date Fri Feb 17 03:24:23 2023
; FORMAT={-:-/ absolute / inch / decimal}
; #@! TF.CreationDate,2023-02-17T03:24:23-05:00
; #@! TF.GenerationSoftware,Kicad,Pcbnew,(6.0.11)
; #@! TF.FileFunction,MixedPlating,1,2
FMAT,2
INCH
; #@! TA.AperFunction,Plated,PTH,ComponentDrill
T1C0.0295
; #@! TA.AperFunction,Plated,PTH,ComponentDrill
T2C0.0300
; #@! TA.AperFunction,Plated,PTH,ComponentDrill
T3C0.0354
; #@! TA.AperFunction,Plated,PTH,ComponentDrill
T4C0.0394
; #@! TA.AperFunction,Plated,PTH,ComponentDrill
T5C0.0400
; #@! TA.AperFunction,Plated,PTH,ComponentDrill
T6C0.0433
; #@! TA.AperFunction,Plated,PTH,ComponentDrill
T7C0.0472
; #@! TA.AperFunction,Plated,PTH,ComponentDrill
T8C0.0591
; #@! TA.AperFunction,Plated,PTH,ComponentDrill
T9C0.0984
%
G90
G05
T1
X5.5453Y-3.2126
X5.624Y-3.2126
T2
X4.4441Y-2.8228
X4.5441Y-2.8228
X4.6441Y-2.8228
X4.7441Y-2.8228
X4.8441Y-2.8228
X4.9921Y-2.8228
X5.2677Y-2.8228
X6.3701Y-3.0906
X6.6457Y-3.0906
X6.7795Y-3.0906
X7.0551Y-3.0906
T3
X6.4108Y-2.8642
X6.5108Y-2.8642
T4
X5.5555Y-3.561
X5.5555Y-3.661
X5.5555Y-3.761
X5.5555Y-3.861
X5.5555Y-3.961
X5.5555Y-4.061
X6.2555Y-3.561
X6.2555Y-3.661
X6.2555Y-3.761
X6.2555Y-3.861
X6.2555Y-3.961
X6.2555Y-4.061
X7.2362Y-3.3268
X7.2362Y-3.4252
X7.2362Y-3.5236
X7.2362Y-3.622
X7.2362Y-3.7205
T5
X4.428Y-3.2422
X4.428Y-3.3422
X4.428Y-3.4422
X4.428Y-3.5422
X4.428Y-3.6422
X4.428Y-3.7422
X4.428Y-3.8422
X4.428Y-3.9422
X5.328Y-3.2422
X5.328Y-3.3422
X5.328Y-3.4422
X5.328Y-3.5422
X5.328Y-3.6422
X5.328Y-3.7422
X5.328Y-3.8422
X5.328Y-3.9422
T6
X5.8079Y-3.0906
X5.8079Y-3.2283
X6.2079Y-3.0906
X6.2079Y-3.2283
T7
X6.4764Y-3.3543
X6.4764Y-4.2402
X6.5945Y-3.3543
X6.9094Y-3.3543
X7.0276Y-3.3543
X7.0276Y-4.2402
T8
X6.6752Y-2.8681
X6.8642Y-2.8681
X7.0531Y-2.8681
T9
X5.5555Y-3.411
X5.5555Y-4.211
X6.2555Y-3.411
X6.2555Y-4.211
T0
M30
