%TF.GenerationSoftware,KiCad,Pcbnew,(6.0.11)*%
%TF.CreationDate,2023-02-17T03:20:08-05:00*%
%TF.ProjectId,IMU-pcb,494d552d-7063-4622-9e6b-696361645f70,rev?*%
%TF.SameCoordinates,Original*%
%TF.FileFunction,Legend,Bot*%
%TF.FilePolarity,Positive*%
%FSLAX46Y46*%
G04 Gerber Fmt 4.6, Leading zero omitted, Abs format (unit mm)*
G04 Created by KiCad (PCBNEW (6.0.11)) date 2023-02-17 03:20:08*
%MOMM*%
%LPD*%
G01*
G04 APERTURE LIST*
%ADD10C,0.150000*%
G04 APERTURE END LIST*
D10*
X135702380Y-108930952D02*
X135702380Y-106430952D01*
X134750000Y-106430952D01*
X134511904Y-106550000D01*
X134392857Y-106669047D01*
X134273809Y-106907142D01*
X134273809Y-107264285D01*
X134392857Y-107502380D01*
X134511904Y-107621428D01*
X134750000Y-107740476D01*
X135702380Y-107740476D01*
X132011904Y-108930952D02*
X133202380Y-108930952D01*
X133202380Y-106430952D01*
X131297619Y-108216666D02*
X130107142Y-108216666D01*
X131535714Y-108930952D02*
X130702380Y-106430952D01*
X129869047Y-108930952D01*
X129035714Y-108930952D02*
X129035714Y-106430952D01*
X127607142Y-108930952D01*
X127607142Y-106430952D01*
X126416666Y-107621428D02*
X125583333Y-107621428D01*
X125226190Y-108930952D02*
X126416666Y-108930952D01*
X126416666Y-106430952D01*
X125226190Y-106430952D01*
X124511904Y-106430952D02*
X123083333Y-106430952D01*
X123797619Y-108930952D02*
X123797619Y-106430952D01*
X122369047Y-108811904D02*
X122011904Y-108930952D01*
X121416666Y-108930952D01*
X121178571Y-108811904D01*
X121059523Y-108692857D01*
X120940476Y-108454761D01*
X120940476Y-108216666D01*
X121059523Y-107978571D01*
X121178571Y-107859523D01*
X121416666Y-107740476D01*
X121892857Y-107621428D01*
X122130952Y-107502380D01*
X122250000Y-107383333D01*
X122369047Y-107145238D01*
X122369047Y-106907142D01*
X122250000Y-106669047D01*
X122130952Y-106550000D01*
X121892857Y-106430952D01*
X121297619Y-106430952D01*
X120940476Y-106550000D01*
X118202380Y-107264285D02*
X117607142Y-108930952D01*
X117011904Y-107264285D01*
X114750000Y-108930952D02*
X116178571Y-108930952D01*
X115464285Y-108930952D02*
X115464285Y-106430952D01*
X115702380Y-106788095D01*
X115940476Y-107026190D01*
X116178571Y-107145238D01*
X113678571Y-108692857D02*
X113559523Y-108811904D01*
X113678571Y-108930952D01*
X113797619Y-108811904D01*
X113678571Y-108692857D01*
X113678571Y-108930952D01*
X112011904Y-106430952D02*
X111773809Y-106430952D01*
X111535714Y-106550000D01*
X111416666Y-106669047D01*
X111297619Y-106907142D01*
X111178571Y-107383333D01*
X111178571Y-107978571D01*
X111297619Y-108454761D01*
X111416666Y-108692857D01*
X111535714Y-108811904D01*
X111773809Y-108930952D01*
X112011904Y-108930952D01*
X112250000Y-108811904D01*
X112369047Y-108692857D01*
X112488095Y-108454761D01*
X112607142Y-107978571D01*
X112607142Y-107383333D01*
X112488095Y-106907142D01*
X112369047Y-106669047D01*
X112250000Y-106550000D01*
X112011904Y-106430952D01*
M02*
