%TF.GenerationSoftware,KiCad,Pcbnew,(6.0.11)*%
%TF.CreationDate,2023-02-17T03:20:08-05:00*%
%TF.ProjectId,IMU-pcb,494d552d-7063-4622-9e6b-696361645f70,rev?*%
%TF.SameCoordinates,Original*%
%TF.FileFunction,Soldermask,Bot*%
%TF.FilePolarity,Negative*%
%FSLAX46Y46*%
G04 Gerber Fmt 4.6, Leading zero omitted, Abs format (unit mm)*
G04 Created by KiCad (PCBNEW (6.0.11)) date 2023-02-17 03:20:08*
%MOMM*%
%LPD*%
G01*
G04 APERTURE LIST*
%ADD10R,1.200000X1.700000*%
%ADD11O,1.200000X1.700000*%
%ADD12C,2.000000*%
%ADD13C,1.800000*%
%ADD14C,1.778000*%
%ADD15C,3.200000*%
%ADD16C,1.524000*%
%ADD17C,2.500000*%
%ADD18R,1.750000X1.750000*%
%ADD19C,1.750000*%
%ADD20R,2.200000X2.200000*%
%ADD21O,2.200000X2.200000*%
%ADD22R,1.800000X1.800000*%
G04 APERTURE END LIST*
D10*
%TO.C,J2*%
X142850000Y-81600000D03*
D11*
X140850000Y-81600000D03*
%TD*%
D12*
%TO.C,R3*%
X168800000Y-78500000D03*
X161800000Y-78500000D03*
%TD*%
%TO.C,R2*%
X133800000Y-71700000D03*
X126800000Y-71700000D03*
%TD*%
D13*
%TO.C,U2*%
X112471012Y-82351012D03*
X112471012Y-84891012D03*
X112471012Y-87431012D03*
X112471012Y-89971012D03*
X112471012Y-92511012D03*
X112471012Y-95051012D03*
X112471012Y-97591012D03*
X112471012Y-100131012D03*
X135331012Y-100131012D03*
X135331012Y-97591012D03*
X135331012Y-95051012D03*
X135331012Y-92511012D03*
X135331012Y-89971012D03*
X135331012Y-87431012D03*
X135331012Y-84891012D03*
X135331012Y-82351012D03*
%TD*%
D12*
%TO.C,R1*%
X179200000Y-78500000D03*
X172200000Y-78500000D03*
%TD*%
D14*
%TO.C,U3*%
X158890000Y-103150000D03*
X158890000Y-100610000D03*
X158890000Y-98070000D03*
X158890000Y-95530000D03*
X158890000Y-92990000D03*
X158890000Y-90450000D03*
X141110000Y-103150000D03*
X141110000Y-100610000D03*
X141110000Y-98070000D03*
X141110000Y-95530000D03*
X141110000Y-92990000D03*
X141110000Y-90450000D03*
D15*
X141110000Y-106960000D03*
X141110000Y-86640000D03*
X158890000Y-106960000D03*
X158890000Y-86640000D03*
%TD*%
D16*
%TO.C,J1*%
X112880000Y-71700000D03*
X115420000Y-71700000D03*
X117960000Y-71700000D03*
X120500000Y-71700000D03*
X123040000Y-71700000D03*
%TD*%
D17*
%TO.C,S1*%
X169550000Y-72850000D03*
X174350000Y-72850000D03*
X179150000Y-72850000D03*
%TD*%
D18*
%TO.C,J3*%
X183800000Y-94500000D03*
D19*
X183800000Y-92000000D03*
X183800000Y-89500000D03*
X183800000Y-87000000D03*
X183800000Y-84500000D03*
%TD*%
D20*
%TO.C,D3*%
X147520000Y-78500000D03*
D21*
X157680000Y-78500000D03*
%TD*%
D22*
%TO.C,D1*%
X165375000Y-72750000D03*
D13*
X162835000Y-72750000D03*
%TD*%
D12*
%TO.C,U1*%
X164500000Y-85200000D03*
X167500000Y-85200000D03*
X175500000Y-85200000D03*
X178500000Y-85200000D03*
X164500000Y-107700000D03*
X178500000Y-107700000D03*
%TD*%
D20*
%TO.C,D2*%
X147520000Y-82000000D03*
D21*
X157680000Y-82000000D03*
%TD*%
M02*
